<?xml version="1.0" encoding="UTF-8"?>
<!DOCTYPE svg PUBLIC "-//W3C//DTD SVG 1.1//EN" "http://www.w3.org/Graphics/SVG/1.1/DTD/svg11.dtd">
<svg xmlns="http://www.w3.org/2000/svg" version="1.1" width="300px" height="300px" style="shape-rendering:geometricPrecision; text-rendering:geometricPrecision; image-rendering:optimizeQuality; fill-rule:evenodd; clip-rule:evenodd" xmlns:xlink="http://www.w3.org/1999/xlink">
<g><path style="opacity:1" fill="#bf9e68" d="M 182.5,17.5 C 179.833,18.5 177.167,19.5 174.5,20.5C 166.067,16.784 157.733,12.784 149.5,8.5C 140.948,12.6077 132.615,16.941 124.5,21.5C 118.91,23.6284 113.577,26.2951 108.5,29.5C 110.91,31.3716 113.577,32.705 116.5,33.5C 119.167,35.1667 121.833,36.8333 124.5,38.5C 121.492,39.4202 118.659,40.7535 116,42.5C 113.341,40.7535 110.508,39.4202 107.5,38.5C 104.833,36.8333 102.167,35.1667 99.5,33.5C 101.969,32.4314 104.302,31.0981 106.5,29.5C 104.435,28.1433 102.435,26.81 100.5,25.5C 116.616,16.9411 132.95,8.60775 149.5,0.5C 160.718,5.94104 171.718,11.6077 182.5,17.5 Z"/></g>
<g><path style="opacity:1" fill="#937b47" d="M 174.5,20.5 C 179.771,23.4725 185.104,26.4725 190.5,29.5C 182.757,34.0383 174.757,38.0383 166.5,41.5C 163.515,40.6743 160.849,39.341 158.5,37.5C 161.032,36.4043 163.365,35.0709 165.5,33.5C 167.928,32.7878 170.261,31.7878 172.5,30.5C 173.833,29.8333 173.833,29.1667 172.5,28.5C 164.95,24.558 157.283,20.8913 149.5,17.5C 146.498,18.3341 143.832,19.6675 141.5,21.5C 138.378,22.5612 135.378,23.8946 132.5,25.5C 130.151,23.659 127.485,22.3257 124.5,21.5C 132.615,16.941 140.948,12.6077 149.5,8.5C 157.733,12.784 166.067,16.784 174.5,20.5 Z"/></g>
<g><path style="opacity:1" fill="#bd9a65" d="M 165.5,33.5 C 157.5,29.5 149.5,25.5 141.5,21.5C 143.832,19.6675 146.498,18.3341 149.5,17.5C 157.283,20.8913 164.95,24.558 172.5,28.5C 173.833,29.1667 173.833,29.8333 172.5,30.5C 170.261,31.7878 167.928,32.7878 165.5,33.5 Z"/></g>
<g><path style="opacity:1" fill="#b3915a" d="M 182.5,17.5 C 190.96,21.2298 199.293,25.2298 207.5,29.5C 205.231,30.9758 202.898,32.4758 200.5,34C 206.053,36.6076 211.387,39.4409 216.5,42.5C 213.86,43.8201 211.193,45.1534 208.5,46.5C 202.949,43.5575 197.282,40.8908 191.5,38.5C 185.806,40.7635 180.306,43.4302 175,46.5C 172.341,44.7535 169.508,43.4202 166.5,42.5C 166.5,42.1667 166.5,41.8333 166.5,41.5C 174.757,38.0383 182.757,34.0383 190.5,29.5C 185.104,26.4725 179.771,23.4725 174.5,20.5C 177.167,19.5 179.833,18.5 182.5,17.5 Z"/></g>
<g><path style="opacity:1" fill="#8b6c3c" d="M 124.5,21.5 C 127.485,22.3257 130.151,23.659 132.5,25.5C 129.968,26.5957 127.635,27.9291 125.5,29.5C 122.378,30.5612 119.378,31.8946 116.5,33.5C 113.577,32.705 110.91,31.3716 108.5,29.5C 113.577,26.2951 118.91,23.6284 124.5,21.5 Z"/></g>
<g><path style="opacity:1" fill="#b4925a" d="M 100.5,25.5 C 102.435,26.81 104.435,28.1433 106.5,29.5C 104.302,31.0981 101.969,32.4314 99.5,33.5C 90.9749,37.5948 82.6416,41.9281 74.5,46.5C 74.1667,46.5 73.8333,46.5 73.5,46.5C 71.3649,44.9291 69.0316,43.5957 66.5,42.5C 77.5157,36.3255 88.849,30.6588 100.5,25.5 Z"/></g>
<g><path style="opacity:1" fill="#a68751" d="M 141.5,21.5 C 149.5,25.5 157.5,29.5 165.5,33.5C 163.365,35.0709 161.032,36.4043 158.5,37.5C 158.167,37.5 157.833,37.5 157.5,37.5C 154.86,36.1799 152.193,34.8466 149.5,33.5C 146.727,34.9699 143.894,36.3032 141,37.5C 135.552,35.1941 130.386,32.5275 125.5,29.5C 127.635,27.9291 129.968,26.5957 132.5,25.5C 135.378,23.8946 138.378,22.5612 141.5,21.5 Z"/></g>
<g><path style="opacity:1" fill="#937b47" d="M 125.5,29.5 C 130.386,32.5275 135.552,35.1941 141,37.5C 143.894,36.3032 146.727,34.9699 149.5,33.5C 152.193,34.8466 154.86,36.1799 157.5,37.5C 152.387,40.5591 147.053,43.3924 141.5,46C 143.898,47.5242 146.231,49.0242 148.5,50.5C 146.365,52.0709 144.032,53.4043 141.5,54.5C 135.64,57.2616 129.974,60.2616 124.5,63.5C 121.515,64.3257 118.849,65.659 116.5,67.5C 113.515,68.3257 110.849,69.659 108.5,71.5C 105.378,72.5612 102.378,73.8946 99.5,75.5C 99.1667,75.5 98.8333,75.5 98.5,75.5C 95.9684,74.4043 93.6351,73.0709 91.5,71.5C 93.7686,70.0242 96.1019,68.5242 98.5,67C 92.9466,64.3924 87.6132,61.5591 82.5,58.5C 85.4848,57.6743 88.1515,56.341 90.5,54.5C 96.0248,57.4286 101.691,60.0953 107.5,62.5C 115.835,58.9994 123.835,54.9994 131.5,50.5C 134.757,49.5383 137.757,48.0383 140.5,46C 135.265,43.2152 129.932,40.7152 124.5,38.5C 121.833,36.8333 119.167,35.1667 116.5,33.5C 119.378,31.8946 122.378,30.5612 125.5,29.5 Z"/></g>
<g><path style="opacity:1" fill="#bf9e68" d="M 207.5,29.5 C 218.691,34.9281 229.691,40.5947 240.5,46.5C 238.5,47.8333 236.5,49.1667 234.5,50.5C 231.167,49.1667 227.833,47.8333 224.5,46.5C 222.151,44.659 219.485,43.3257 216.5,42.5C 211.387,39.4409 206.053,36.6076 200.5,34C 202.898,32.4758 205.231,30.9758 207.5,29.5 Z"/></g>
<g><path style="opacity:1" fill="#a1834e" d="M 99.5,33.5 C 102.167,35.1667 104.833,36.8333 107.5,38.5C 102.401,40.5484 97.4014,42.8817 92.5,45.5C 91.1667,46.1667 91.1667,46.8333 92.5,47.5C 97.2723,49.9696 102.106,52.3029 107,54.5C 112.667,51.8333 118.333,49.1667 124,46.5C 126.784,47.4731 129.284,48.8064 131.5,50.5C 123.835,54.9994 115.835,58.9994 107.5,62.5C 101.691,60.0953 96.0248,57.4286 90.5,54.5C 85.1667,51.8333 79.8333,49.1667 74.5,46.5C 82.6416,41.9281 90.9749,37.5948 99.5,33.5 Z"/></g>
<g><path style="opacity:1" fill="#8b6c3c" d="M 157.5,37.5 C 157.833,37.5 158.167,37.5 158.5,37.5C 160.849,39.341 163.515,40.6743 166.5,41.5C 166.5,41.8333 166.5,42.1667 166.5,42.5C 163.738,43.3795 161.071,44.5462 158.5,46C 168.677,51.5886 179.01,56.9219 189.5,62C 190.833,62.6667 192.167,62.6667 193.5,62C 198.527,59.4867 203.527,56.9867 208.5,54.5C 210.849,56.341 213.515,57.6743 216.5,58.5C 216.5,58.8333 216.5,59.1667 216.5,59.5C 210.849,61.6588 205.516,64.3255 200.5,67.5C 197.639,65.9038 194.639,64.5704 191.5,63.5C 188.361,64.5704 185.361,65.9038 182.5,67.5C 177.484,64.3255 172.151,61.6588 166.5,59.5C 160.818,55.9922 154.818,52.9922 148.5,50.5C 146.231,49.0242 143.898,47.5242 141.5,46C 147.053,43.3924 152.387,40.5591 157.5,37.5 Z"/></g>
<g><path style="opacity:1" fill="#ac8b58" d="M 107.5,38.5 C 110.508,39.4202 113.341,40.7535 116,42.5C 118.659,40.7535 121.492,39.4202 124.5,38.5C 129.932,40.7152 135.265,43.2152 140.5,46C 137.757,48.0383 134.757,49.5383 131.5,50.5C 129.284,48.8064 126.784,47.4731 124,46.5C 118.333,49.1667 112.667,51.8333 107,54.5C 102.106,52.3029 97.2723,49.9696 92.5,47.5C 91.1667,46.8333 91.1667,46.1667 92.5,45.5C 97.4014,42.8817 102.401,40.5484 107.5,38.5 Z"/></g>
<g><path style="opacity:1" fill="#bf9e68" d="M 66.5,42.5 C 69.0316,43.5957 71.3649,44.9291 73.5,46.5C 70.9684,47.5957 68.6351,48.9291 66.5,50.5C 60.5,53.1667 54.5,55.8333 48.5,58.5C 45.8333,57.5 43.1667,56.5 40.5,55.5C 48.849,50.6588 57.5157,46.3255 66.5,42.5 Z"/></g>
<g><path style="opacity:1" fill="#8b6c3c" d="M 73.5,46.5 C 73.8333,46.5 74.1667,46.5 74.5,46.5C 79.8333,49.1667 85.1667,51.8333 90.5,54.5C 88.1515,56.341 85.4848,57.6743 82.5,58.5C 79.3777,57.4388 76.3777,56.1054 73.5,54.5C 70.9684,53.4043 68.6351,52.0709 66.5,50.5C 68.6351,48.9291 70.9684,47.5957 73.5,46.5 Z"/></g>
<g><path style="opacity:1" fill="#a48652" d="M 216.5,42.5 C 219.485,43.3257 222.151,44.659 224.5,46.5C 219.167,49.1667 213.833,51.8333 208.5,54.5C 203.527,56.9867 198.527,59.4867 193.5,62C 192.167,62.6667 190.833,62.6667 189.5,62C 179.01,56.9219 168.677,51.5886 158.5,46C 161.071,44.5462 163.738,43.3795 166.5,42.5C 169.508,43.4202 172.341,44.7535 175,46.5C 180.306,43.4302 185.806,40.7635 191.5,38.5C 197.282,40.8908 202.949,43.5575 208.5,46.5C 211.193,45.1534 213.86,43.8201 216.5,42.5 Z"/></g>
<g><path style="opacity:1" fill="#937b47" d="M 224.5,46.5 C 227.833,47.8333 231.167,49.1667 234.5,50.5C 245.105,56.1378 255.772,61.8044 266.5,67.5C 258.757,72.0383 250.757,76.0383 242.5,79.5C 239.515,78.6743 236.849,77.341 234.5,75.5C 237.032,74.4043 239.365,73.0709 241.5,71.5C 243.928,70.7878 246.261,69.7878 248.5,68.5C 249.833,67.8333 249.833,67.1667 248.5,66.5C 240.589,62.6277 232.755,58.6277 225,54.5C 222.341,56.2465 219.508,57.5798 216.5,58.5C 213.515,57.6743 210.849,56.341 208.5,54.5C 213.833,51.8333 219.167,49.1667 224.5,46.5 Z"/></g>
<g><path style="opacity:1" fill="#937b47" d="M 66.5,50.5 C 68.6351,52.0709 70.9684,53.4043 73.5,54.5C 70.8333,56.1667 68.1667,57.8333 65.5,59.5C 59.9099,61.6284 54.5765,64.2951 49.5,67.5C 51.9099,69.3716 54.5766,70.705 57.5,71.5C 59.6351,73.0709 61.9684,74.4043 64.5,75.5C 62.1515,77.341 59.4848,78.6743 56.5,79.5C 48.2432,76.0383 40.2432,72.0383 32.5,67.5C 37.8957,64.4725 43.2291,61.4725 48.5,58.5C 54.5,55.8333 60.5,53.1667 66.5,50.5 Z"/></g>
<g><path style="opacity:1" fill="#bf9e68" d="M 148.5,50.5 C 154.818,52.9922 160.818,55.9922 166.5,59.5C 163.515,60.3257 160.849,61.659 158.5,63.5C 155.622,61.8946 152.622,60.5612 149.5,59.5C 146.833,57.8333 144.167,56.1667 141.5,54.5C 144.032,53.4043 146.365,52.0709 148.5,50.5 Z"/></g>
<g><path style="opacity:1" fill="#bd9a65" d="M 73.5,54.5 C 76.3777,56.1054 79.3777,57.4388 82.5,58.5C 87.6132,61.5591 92.9466,64.3924 98.5,67C 96.1019,68.5242 93.7686,70.0242 91.5,71.5C 90.8333,71.5 90.1667,71.5 89.5,71.5C 84.4844,68.3255 79.1511,65.6588 73.5,63.5C 71.1515,61.659 68.4848,60.3257 65.5,59.5C 68.1667,57.8333 70.8333,56.1667 73.5,54.5 Z"/></g>
<g><path style="opacity:1" fill="#b4925a" d="M 141.5,54.5 C 144.167,56.1667 146.833,57.8333 149.5,59.5C 143.734,61.882 138.068,64.5487 132.5,67.5C 129.807,66.1534 127.14,64.8201 124.5,63.5C 129.974,60.2616 135.64,57.2616 141.5,54.5 Z"/></g>
<g><path style="opacity:1" fill="#bd9a65" d="M 241.5,71.5 C 235.959,68.5626 230.292,65.8959 224.5,63.5C 222.151,61.659 219.485,60.3257 216.5,59.5C 216.5,59.1667 216.5,58.8333 216.5,58.5C 219.508,57.5798 222.341,56.2465 225,54.5C 232.755,58.6277 240.589,62.6277 248.5,66.5C 249.833,67.1667 249.833,67.8333 248.5,68.5C 246.261,69.7878 243.928,70.7878 241.5,71.5 Z"/></g>
<g><path style="opacity:1" fill="#b4915a" d="M 40.5,55.5 C 43.1667,56.5 45.8333,57.5 48.5,58.5C 43.2291,61.4725 37.8957,64.4725 32.5,67.5C 40.2432,72.0383 48.2432,76.0383 56.5,79.5C 62.1823,83.0078 68.1823,86.0078 74.5,88.5C 85.3089,94.4053 96.3089,100.072 107.5,105.5C 115.707,109.77 124.04,113.77 132.5,117.5C 137.833,120.5 143.167,123.5 148.5,126.5C 146.5,127.833 144.5,129.167 142.5,130.5C 142.167,130.5 141.833,130.5 141.5,130.5C 135.959,127.563 130.292,124.896 124.5,122.5C 116.358,117.928 108.025,113.595 99.5,109.5C 85.5,102.5 71.5,95.5 57.5,88.5C 51.9586,85.5626 46.2919,82.8959 40.5,80.5C 32.5,76.1667 24.5,71.8333 16.5,67.5C 24.1823,62.9922 32.1823,58.9922 40.5,55.5 Z"/></g>
<g><path style="opacity:1" fill="#a3854f" d="M 149.5,59.5 C 152.622,60.5612 155.622,61.8946 158.5,63.5C 163.693,65.9283 168.693,68.595 173.5,71.5C 168.501,74.6661 163.168,77.3327 157.5,79.5C 154.833,78.5 152.167,77.5 149.5,76.5C 146.817,77.5103 144.151,78.5103 141.5,79.5C 133.04,75.7702 124.707,71.7702 116.5,67.5C 118.849,65.659 121.515,64.3257 124.5,63.5C 127.14,64.8201 129.807,66.1534 132.5,67.5C 138.068,64.5487 143.734,61.882 149.5,59.5 Z"/></g>
<g><path style="opacity:1" fill="#b4925a" d="M 166.5,59.5 C 172.151,61.6588 177.484,64.3255 182.5,67.5C 179.622,69.1054 176.622,70.4388 173.5,71.5C 168.693,68.595 163.693,65.9283 158.5,63.5C 160.849,61.659 163.515,60.3257 166.5,59.5 Z"/></g>
<g><path style="opacity:1" fill="#ae8c59" d="M 65.5,59.5 C 68.4848,60.3257 71.1515,61.659 73.5,63.5C 68.1667,66.1667 62.8333,68.8333 57.5,71.5C 54.5766,70.705 51.9099,69.3716 49.5,67.5C 54.5765,64.2951 59.9099,61.6284 65.5,59.5 Z"/></g>
<g><path style="opacity:1" fill="#9f824d" d="M 73.5,63.5 C 79.1511,65.6588 84.4844,68.3255 89.5,71.5C 84.5013,74.6661 79.1679,77.3327 73.5,79.5C 70.3611,78.4296 67.3611,77.0962 64.5,75.5C 61.9684,74.4043 59.6351,73.0709 57.5,71.5C 62.8333,68.8333 68.1667,66.1667 73.5,63.5 Z"/></g>
<g><path style="opacity:1" fill="#937b47" d="M 200.5,67.5 C 203.032,68.5957 205.365,69.9291 207.5,71.5C 205.365,73.0709 203.032,74.4043 200.5,75.5C 197.404,74.4533 194.404,73.12 191.5,71.5C 188.807,72.8466 186.14,74.1799 183.5,75.5C 177.5,78.5 171.5,81.5 165.5,84.5C 163.168,82.6675 160.502,81.3341 157.5,80.5C 154.833,81.5 152.167,82.5 149.5,83.5C 146.498,82.6659 143.832,81.3325 141.5,79.5C 144.151,78.5103 146.817,77.5103 149.5,76.5C 152.167,77.5 154.833,78.5 157.5,79.5C 163.168,77.3327 168.501,74.6661 173.5,71.5C 176.622,70.4388 179.622,69.1054 182.5,67.5C 185.361,65.9038 188.361,64.5704 191.5,63.5C 194.639,64.5704 197.639,65.9038 200.5,67.5 Z"/></g>
<g><path style="opacity:1" fill="#ae8c58" d="M 216.5,59.5 C 219.485,60.3257 222.151,61.659 224.5,63.5C 219.307,65.9283 214.307,68.595 209.5,71.5C 208.833,71.5 208.167,71.5 207.5,71.5C 205.365,69.9291 203.032,68.5957 200.5,67.5C 205.516,64.3255 210.849,61.6588 216.5,59.5 Z"/></g>
<g><path style="opacity:1" fill="#9f824d" d="M 224.5,63.5 C 230.292,65.8959 235.959,68.5626 241.5,71.5C 239.365,73.0709 237.032,74.4043 234.5,75.5C 231.639,77.0962 228.639,78.4296 225.5,79.5C 219.832,77.3327 214.499,74.6661 209.5,71.5C 214.307,68.595 219.307,65.9283 224.5,63.5 Z"/></g>
<g><path style="opacity:1" fill="#977c4f" d="M 16.5,67.5 C 24.5,71.8333 32.5,76.1667 40.5,80.5C 40.5,83.5 40.5,86.5 40.5,89.5C 34.7081,87.1041 29.0414,84.4374 23.5,81.5C 20.8333,80.1667 18.1667,78.8333 15.5,77.5C 15.1872,73.9581 15.5206,70.6248 16.5,67.5 Z"/></g>
<g><path style="opacity:1" fill="#8b6c3c" d="M 116.5,67.5 C 124.707,71.7702 133.04,75.7702 141.5,79.5C 143.832,81.3325 146.498,82.6659 149.5,83.5C 152.167,82.5 154.833,81.5 157.5,80.5C 160.502,81.3341 163.168,82.6675 165.5,84.5C 162.968,85.5957 160.635,86.9291 158.5,88.5C 155.515,89.3257 152.849,90.659 150.5,92.5C 147.378,93.5612 144.378,94.8946 141.5,96.5C 141.167,96.5 140.833,96.5 140.5,96.5C 137.968,95.4043 135.635,94.0709 133.5,92.5C 135.769,91.0242 138.102,89.5242 140.5,88C 135.265,85.2152 129.932,82.7152 124.5,80.5C 119.167,77.5 113.833,74.5 108.5,71.5C 110.849,69.659 113.515,68.3257 116.5,67.5 Z"/></g>
<g><path style="opacity:1" fill="#8b6c3c" d="M 89.5,71.5 C 90.1667,71.5 90.8333,71.5 91.5,71.5C 93.6351,73.0709 95.9684,74.4043 98.5,75.5C 90.5,79.8333 82.5,84.1667 74.5,88.5C 68.1823,86.0078 62.1823,83.0078 56.5,79.5C 59.4848,78.6743 62.1515,77.341 64.5,75.5C 67.3611,77.0962 70.3611,78.4296 73.5,79.5C 79.1679,77.3327 84.5013,74.6661 89.5,71.5 Z"/></g>
<g><path style="opacity:1" fill="#bf9e68" d="M 108.5,71.5 C 113.833,74.5 119.167,77.5 124.5,80.5C 121.515,81.3257 118.849,82.659 116.5,84.5C 116.167,84.5 115.833,84.5 115.5,84.5C 110.167,81.5 104.833,78.5 99.5,75.5C 102.378,73.8946 105.378,72.5612 108.5,71.5 Z"/></g>
<g><path style="opacity:1" fill="#bf9e68" d="M 200.5,75.5 C 203.167,77.1667 205.833,78.8333 208.5,80.5C 205.492,81.4202 202.659,82.7535 200,84.5C 194.358,81.5988 188.858,78.5988 183.5,75.5C 186.14,74.1799 188.807,72.8466 191.5,71.5C 194.404,73.12 197.404,74.4533 200.5,75.5 Z"/></g>
<g><path style="opacity:1" fill="#8b6c3c" d="M 207.5,71.5 C 208.167,71.5 208.833,71.5 209.5,71.5C 214.499,74.6661 219.832,77.3327 225.5,79.5C 228.639,78.4296 231.639,77.0962 234.5,75.5C 236.849,77.341 239.515,78.6743 242.5,79.5C 236.818,83.0078 230.818,86.0078 224.5,88.5C 219.484,85.3255 214.151,82.6588 208.5,80.5C 205.833,78.8333 203.167,77.1667 200.5,75.5C 203.032,74.4043 205.365,73.0709 207.5,71.5 Z"/></g>
<g><path style="opacity:1" fill="#b4915a" d="M 240.5,46.5 C 254.818,52.9921 268.818,59.9921 282.5,67.5C 274.5,71.8333 266.5,76.1667 258.5,80.5C 244.5,87.1667 230.5,93.8333 216.5,100.5C 213.738,99.6205 211.071,98.4538 208.5,97C 214.053,94.3924 219.387,91.5591 224.5,88.5C 230.818,86.0078 236.818,83.0078 242.5,79.5C 250.757,76.0383 258.757,72.0383 266.5,67.5C 255.772,61.8044 245.105,56.1378 234.5,50.5C 236.5,49.1667 238.5,47.8333 240.5,46.5 Z"/></g>
<g><path style="opacity:1" fill="#756238" d="M 15.5,77.5 C 18.1667,78.8333 20.8333,80.1667 23.5,81.5C 23.5,84.8333 23.5,88.1667 23.5,91.5C 20.8333,90.5 18.1667,89.5 15.5,88.5C 15.5,84.8333 15.5,81.1667 15.5,77.5 Z"/></g>
<g><path style="opacity:1" fill="#84683b" d="M 40.5,80.5 C 46.2919,82.8959 51.9586,85.5626 57.5,88.5C 57.5,91.8333 57.5,95.1667 57.5,98.5C 51.6404,95.7384 45.9737,92.7384 40.5,89.5C 40.5,86.5 40.5,83.5 40.5,80.5 Z"/></g>
<g><path style="opacity:1" fill="#ad8b58" d="M 98.5,75.5 C 98.8333,75.5 99.1667,75.5 99.5,75.5C 104.833,78.5 110.167,81.5 115.5,84.5C 110.035,87.0661 104.702,89.8994 99.5,93C 104.735,95.7848 110.068,98.2848 115.5,100.5C 112.833,102.167 110.167,103.833 107.5,105.5C 96.3089,100.072 85.3089,94.4053 74.5,88.5C 82.5,84.1667 90.5,79.8333 98.5,75.5 Z"/></g>
<g><path style="opacity:1" fill="#b4925a" d="M 124.5,80.5 C 129.932,82.7152 135.265,85.2152 140.5,88C 138.102,89.5242 135.769,91.0242 133.5,92.5C 132.833,92.5 132.167,92.5 131.5,92.5C 126.693,89.595 121.693,86.9283 116.5,84.5C 118.849,82.659 121.515,81.3257 124.5,80.5 Z"/></g>
<g><path style="opacity:1" fill="#130e07" d="M 23.5,81.5 C 29.0414,84.4374 34.7081,87.1041 40.5,89.5C 45.9737,92.7384 51.6404,95.7384 57.5,98.5C 71.5,105.5 85.5,112.5 99.5,119.5C 107.707,123.77 116.04,127.77 124.5,131.5C 129.974,134.738 135.64,137.738 141.5,140.5C 141.5,147.167 141.5,153.833 141.5,160.5C 138.378,159.439 135.378,158.105 132.5,156.5C 132.789,152.894 132.456,149.394 131.5,146C 101.256,130.961 71.089,115.795 41,100.5C 40.5017,103.817 40.335,107.15 40.5,110.5C 37.9476,109.307 35.4476,107.973 33,106.5C 32.5001,120.163 32.3334,133.829 32.5,147.5C 29.3777,146.439 26.3777,145.105 23.5,143.5C 23.5,139.833 23.5,136.167 23.5,132.5C 23.5,118.833 23.5,105.167 23.5,91.5C 23.5,88.1667 23.5,84.8333 23.5,81.5 Z"/></g>
<g><path style="opacity:1" fill="#a2854e" d="M 115.5,84.5 C 115.833,84.5 116.167,84.5 116.5,84.5C 121.693,86.9283 126.693,89.595 131.5,92.5C 126.484,95.6745 121.151,98.3412 115.5,100.5C 110.068,98.2848 104.735,95.7848 99.5,93C 104.702,89.8994 110.035,87.0661 115.5,84.5 Z"/></g>
<g><path style="opacity:1" fill="#977c4f" d="M 57.5,88.5 C 71.5,95.5 85.5,102.5 99.5,109.5C 99.5,112.833 99.5,116.167 99.5,119.5C 85.5,112.5 71.5,105.5 57.5,98.5C 57.5,95.1667 57.5,91.8333 57.5,88.5 Z"/></g>
<g><path style="opacity:1" fill="#937b47" d="M 158.5,88.5 C 169.473,93.9867 180.473,99.4867 191.5,105C 188.757,107.038 185.757,108.538 182.5,109.5C 180.151,107.659 177.485,106.326 174.5,105.5C 166.5,101.167 158.5,96.8333 150.5,92.5C 152.849,90.659 155.515,89.3257 158.5,88.5 Z"/></g>
<g><path style="opacity:1" fill="#a98955" d="M 183.5,75.5 C 188.858,78.5988 194.358,81.5988 200,84.5C 202.659,82.7535 205.492,81.4202 208.5,80.5C 214.151,82.6588 219.484,85.3255 224.5,88.5C 219.387,91.5591 214.053,94.3924 208.5,97C 211.071,98.4538 213.738,99.6205 216.5,100.5C 194.383,112.059 172.05,123.392 149.5,134.5C 146.941,133.392 144.608,132.059 142.5,130.5C 144.5,129.167 146.5,127.833 148.5,126.5C 160.151,121.341 171.484,115.675 182.5,109.5C 185.757,108.538 188.757,107.038 191.5,105C 180.473,99.4867 169.473,93.9867 158.5,88.5C 160.635,86.9291 162.968,85.5957 165.5,84.5C 171.5,81.5 177.5,78.5 183.5,75.5 Z"/></g>
<g><path style="opacity:1" fill="#574729" d="M 275.5,112.5 C 272.833,113.833 270.167,115.167 267.5,116.5C 267.5,113.167 267.5,109.833 267.5,106.5C 267.665,102.818 267.499,99.1516 267,95.5C 258.551,99.9741 250.051,104.307 241.5,108.5C 241.5,105.167 241.5,101.833 241.5,98.5C 247.36,95.7384 253.026,92.7384 258.5,89.5C 264.177,87.2451 269.677,84.5785 275,81.5C 275.5,91.828 275.666,102.161 275.5,112.5 Z"/></g>
<g><path style="opacity:1" fill="#937b47" d="M 131.5,92.5 C 132.167,92.5 132.833,92.5 133.5,92.5C 135.635,94.0709 137.968,95.4043 140.5,96.5C 135.387,99.5591 130.053,102.392 124.5,105C 127.243,107.038 130.243,108.538 133.5,109.5C 135.635,111.071 137.968,112.404 140.5,113.5C 138.151,115.341 135.485,116.674 132.5,117.5C 124.04,113.77 115.707,109.77 107.5,105.5C 110.167,103.833 112.833,102.167 115.5,100.5C 121.151,98.3412 126.484,95.6745 131.5,92.5 Z"/></g>
<g><path style="opacity:1" fill="#bd9a65" d="M 150.5,92.5 C 158.5,96.8333 166.5,101.167 174.5,105.5C 171.622,107.105 168.622,108.439 165.5,109.5C 160.484,106.326 155.151,103.659 149.5,101.5C 146.833,99.8333 144.167,98.1667 141.5,96.5C 144.378,94.8946 147.378,93.5612 150.5,92.5 Z"/></g>
<g><path style="opacity:1" fill="#86693e" d="M 15.5,88.5 C 18.1667,89.5 20.8333,90.5 23.5,91.5C 23.5,105.167 23.5,118.833 23.5,132.5C 20.8333,131.5 18.1667,130.5 15.5,129.5C 15.5,115.833 15.5,102.167 15.5,88.5 Z"/></g>
<g><path style="opacity:1" fill="#544124" d="M 241.5,98.5 C 241.5,101.833 241.5,105.167 241.5,108.5C 241.167,122.183 241.501,135.85 242.5,149.5C 245.193,148.153 247.86,146.82 250.5,145.5C 255.807,142.847 261.14,140.18 266.5,137.5C 267.497,130.532 267.83,123.532 267.5,116.5C 270.167,115.167 272.833,113.833 275.5,112.5C 275.666,122.839 275.5,133.172 275,143.5C 266.693,147.735 258.526,152.068 250.5,156.5C 239.167,161.833 227.833,167.167 216.5,172.5C 216.335,169.15 216.502,165.817 217,162.5C 222.088,159.706 227.255,157.039 232.5,154.5C 233.489,150.893 233.823,147.226 233.5,143.5C 233.666,133.161 233.5,122.828 233,112.5C 221.885,118.308 210.718,123.974 199.5,129.5C 196.833,130.833 194.167,132.167 191.5,133.5C 188.622,135.105 185.622,136.439 182.5,137.5C 182.5,134.5 182.5,131.5 182.5,128.5C 201.976,118.261 221.643,108.261 241.5,98.5 Z"/></g>
<g><path style="opacity:1" fill="#1c160c" d="M 132.5,156.5 C 127.193,153.847 121.86,151.18 116.5,148.5C 115.513,151.768 115.18,155.102 115.5,158.5C 112.833,157.167 110.167,155.833 107.5,154.5C 109.342,146.898 106.675,142.231 99.5,140.5C 91.4741,136.068 83.3074,131.735 75,127.5C 74.5017,130.817 74.335,134.15 74.5,137.5C 71.3777,136.439 68.3777,135.105 65.5,133.5C 67.3416,125.898 64.6749,121.231 57.5,119.5C 52.0263,116.262 46.3596,113.262 40.5,110.5C 40.335,107.15 40.5017,103.817 41,100.5C 71.089,115.795 101.256,130.961 131.5,146C 132.456,149.394 132.789,152.894 132.5,156.5 Z"/></g>
<g><path style="opacity:1" fill="#ae8c59" d="M 140.5,96.5 C 140.833,96.5 141.167,96.5 141.5,96.5C 144.167,98.1667 146.833,99.8333 149.5,101.5C 143.849,103.659 138.516,106.326 133.5,109.5C 130.243,108.538 127.243,107.038 124.5,105C 130.053,102.392 135.387,99.5591 140.5,96.5 Z"/></g>
<g><path style="opacity:1" fill="#9f824d" d="M 149.5,101.5 C 155.151,103.659 160.484,106.326 165.5,109.5C 160.501,112.666 155.168,115.333 149.5,117.5C 146.361,116.43 143.361,115.096 140.5,113.5C 137.968,112.404 135.635,111.071 133.5,109.5C 138.516,106.326 143.849,103.659 149.5,101.5 Z"/></g>
<g><path style="opacity:1" fill="#8b6c3c" d="M 174.5,105.5 C 177.485,106.326 180.151,107.659 182.5,109.5C 171.484,115.675 160.151,121.341 148.5,126.5C 143.167,123.5 137.833,120.5 132.5,117.5C 135.485,116.674 138.151,115.341 140.5,113.5C 143.361,115.096 146.361,116.43 149.5,117.5C 155.168,115.333 160.501,112.666 165.5,109.5C 168.622,108.439 171.622,107.105 174.5,105.5 Z"/></g>
<g><path style="opacity:1" fill="#1c160c" d="M 40.5,110.5 C 40.5,124.167 40.5,137.833 40.5,151.5C 37.5152,150.674 34.8485,149.341 32.5,147.5C 32.3334,133.829 32.5001,120.163 33,106.5C 35.4476,107.973 37.9476,109.307 40.5,110.5 Z"/></g>
<g><path style="opacity:1" fill="#756238" d="M 99.5,109.5 C 108.025,113.595 116.358,117.928 124.5,122.5C 124.5,125.5 124.5,128.5 124.5,131.5C 116.04,127.77 107.707,123.77 99.5,119.5C 99.5,116.167 99.5,112.833 99.5,109.5 Z"/></g>
<g><path style="opacity:1" fill="#2f2412" d="M 40.5,110.5 C 46.3596,113.262 52.0263,116.262 57.5,119.5C 57.5,126.5 57.5,133.5 57.5,140.5C 57.5,147.167 57.5,153.833 57.5,160.5C 51.6404,157.738 45.9737,154.738 40.5,151.5C 40.5,137.833 40.5,124.167 40.5,110.5 Z"/></g>
<g><path style="opacity:1" fill="#6b5737" d="M 267.5,106.5 C 264.492,107.42 261.659,108.754 259,110.5C 258.831,117.524 258.331,124.524 257.5,131.5C 255.5,132.5 253.5,133.5 251.5,134.5C 250.511,138.107 250.177,141.774 250.5,145.5C 247.86,146.82 245.193,148.153 242.5,149.5C 241.501,135.85 241.167,122.183 241.5,108.5C 250.051,104.307 258.551,99.9741 267,95.5C 267.499,99.1516 267.665,102.818 267.5,106.5 Z"/></g>
<g><path style="opacity:1" fill="#463720" d="M 57.5,119.5 C 64.6749,121.231 67.3416,125.898 65.5,133.5C 65.5,136.833 65.5,140.167 65.5,143.5C 62.8333,142.5 60.1667,141.5 57.5,140.5C 57.5,133.5 57.5,126.5 57.5,119.5 Z"/></g>
<g><path style="opacity:1" fill="#84683b" d="M 124.5,122.5 C 130.292,124.896 135.959,127.563 141.5,130.5C 141.5,133.833 141.5,137.167 141.5,140.5C 135.64,137.738 129.974,134.738 124.5,131.5C 124.5,128.5 124.5,125.5 124.5,122.5 Z"/></g>
<g><path style="opacity:1" fill="#725e3d" d="M 258.5,80.5 C 258.5,83.5 258.5,86.5 258.5,89.5C 253.026,92.7384 247.36,95.7384 241.5,98.5C 221.643,108.261 201.976,118.261 182.5,128.5C 174.156,132.089 165.989,136.089 158,140.5C 157.5,147.158 157.334,153.825 157.5,160.5C 157.5,164.167 157.5,167.833 157.5,171.5C 154.833,172.833 152.167,174.167 149.5,175.5C 149.5,171.833 149.5,168.167 149.5,164.5C 149.666,157.825 149.5,151.158 149,144.5C 146.552,143.027 144.052,141.693 141.5,140.5C 141.5,137.167 141.5,133.833 141.5,130.5C 141.833,130.5 142.167,130.5 142.5,130.5C 144.608,132.059 146.941,133.392 149.5,134.5C 172.05,123.392 194.383,112.059 216.5,100.5C 230.5,93.8333 244.5,87.1667 258.5,80.5 Z"/></g>
<g><path style="opacity:1" fill="#2f2412" d="M 99.5,140.5 C 99.5,147.5 99.5,154.5 99.5,161.5C 99.5,168.167 99.5,174.833 99.5,181.5C 93.9586,178.563 88.2919,175.896 82.5,173.5C 79.8333,171.833 77.1667,170.167 74.5,168.5C 74.5,158.167 74.5,147.833 74.5,137.5C 74.335,134.15 74.5017,130.817 75,127.5C 83.3074,131.735 91.4741,136.068 99.5,140.5 Z"/></g>
<g><path style="opacity:1" fill="#685435" d="M 233.5,143.5 C 225.527,147.487 217.527,151.487 209.5,155.5C 208.675,159.122 208.175,162.789 208,166.5C 205.341,168.246 202.508,169.58 199.5,170.5C 199.5,163.833 199.5,157.167 199.5,150.5C 199.5,143.5 199.5,136.5 199.5,129.5C 210.718,123.974 221.885,118.308 233,112.5C 233.5,122.828 233.666,133.161 233.5,143.5 Z"/></g>
<g><path style="opacity:1" fill="#584a2a" d="M 182.5,128.5 C 182.5,131.5 182.5,134.5 182.5,137.5C 177.72,140.392 172.72,143.059 167.5,145.5C 166.511,149.107 166.177,152.774 166.5,156.5C 163.622,158.105 160.622,159.439 157.5,160.5C 157.334,153.825 157.5,147.158 158,140.5C 165.989,136.089 174.156,132.089 182.5,128.5 Z"/></g>
<g><path style="opacity:1" fill="#5b492d" d="M 15.5,129.5 C 18.1667,130.5 20.8333,131.5 23.5,132.5C 23.5,136.167 23.5,139.833 23.5,143.5C 20.8333,142.167 18.1667,140.833 15.5,139.5C 15.5,136.167 15.5,132.833 15.5,129.5 Z"/></g>
<g><path style="opacity:1" fill="#5f4e2e" d="M 267.5,106.5 C 267.5,109.833 267.5,113.167 267.5,116.5C 267.83,123.532 267.497,130.532 266.5,137.5C 261.14,140.18 255.807,142.847 250.5,145.5C 250.177,141.774 250.511,138.107 251.5,134.5C 253.5,133.5 255.5,132.5 257.5,131.5C 258.331,124.524 258.831,117.524 259,110.5C 261.659,108.754 264.492,107.42 267.5,106.5 Z"/></g>
<g><path style="opacity:1" fill="#120e06" d="M 65.5,133.5 C 68.3777,135.105 71.3777,136.439 74.5,137.5C 74.5,147.833 74.5,158.167 74.5,168.5C 71.3777,167.439 68.3777,166.105 65.5,164.5C 65.5,157.5 65.5,150.5 65.5,143.5C 65.5,140.167 65.5,136.833 65.5,133.5 Z"/></g>
<g><path style="opacity:1" fill="#1c160c" d="M 57.5,140.5 C 60.1667,141.5 62.8333,142.5 65.5,143.5C 65.5,150.5 65.5,157.5 65.5,164.5C 62.8333,163.167 60.1667,161.833 57.5,160.5C 57.5,153.833 57.5,147.167 57.5,140.5 Z"/></g>
<g><path style="opacity:1" fill="#463720" d="M 99.5,140.5 C 106.675,142.231 109.342,146.898 107.5,154.5C 107.5,157.833 107.5,161.167 107.5,164.5C 104.833,163.5 102.167,162.5 99.5,161.5C 99.5,154.5 99.5,147.5 99.5,140.5 Z"/></g>
<g><path style="opacity:1" fill="#5b492d" d="M 141.5,140.5 C 144.052,141.693 146.552,143.027 149,144.5C 149.5,151.158 149.666,157.825 149.5,164.5C 146.833,163.5 144.167,162.5 141.5,161.5C 141.5,161.167 141.5,160.833 141.5,160.5C 141.5,153.833 141.5,147.167 141.5,140.5 Z"/></g>
<g><path style="opacity:1" fill="#876b40" d="M 15.5,139.5 C 18.1667,140.833 20.8333,142.167 23.5,143.5C 26.3777,145.105 29.3777,146.439 32.5,147.5C 34.8485,149.341 37.5152,150.674 40.5,151.5C 45.9737,154.738 51.6404,157.738 57.5,160.5C 57.5,163.833 57.5,167.167 57.5,170.5C 49.5266,166.513 41.5266,162.513 33.5,158.5C 32.5159,161.428 32.1826,164.428 32.5,167.5C 29.3777,166.439 26.3777,165.105 23.5,163.5C 20.8333,162.167 18.1667,160.833 15.5,159.5C 15.5,152.833 15.5,146.167 15.5,139.5 Z"/></g>
<g><path style="opacity:1" fill="#6c5837" d="M 282.5,67.5 C 283.498,94.6616 283.831,121.995 283.5,149.5C 272.627,155.103 261.627,160.437 250.5,165.5C 250.5,162.5 250.5,159.5 250.5,156.5C 258.526,152.068 266.693,147.735 275,143.5C 275.5,133.172 275.666,122.839 275.5,112.5C 275.666,102.161 275.5,91.828 275,81.5C 269.677,84.5785 264.177,87.2451 258.5,89.5C 258.5,86.5 258.5,83.5 258.5,80.5C 266.5,76.1667 274.5,71.8333 282.5,67.5 Z"/></g>
<g><path style="opacity:1" fill="#5f4e2d" d="M 199.5,129.5 C 199.5,136.5 199.5,143.5 199.5,150.5C 196.948,151.693 194.448,153.027 192,154.5C 191.831,161.524 191.331,168.524 190.5,175.5C 185.14,178.18 179.807,180.847 174.5,183.5C 174.177,179.774 174.511,176.107 175.5,172.5C 177.5,171.5 179.5,170.5 181.5,169.5C 182.331,162.524 182.831,155.524 183,148.5C 185.421,147.039 187.921,145.706 190.5,144.5C 191.489,140.893 191.823,137.226 191.5,133.5C 194.167,132.167 196.833,130.833 199.5,129.5 Z"/></g>
<g><path style="opacity:1" fill="#2f2412" d="M 132.5,156.5 C 132.5,170.167 132.5,183.833 132.5,197.5C 129.833,196.5 127.167,195.5 124.5,194.5C 121.696,192.595 118.696,190.929 115.5,189.5C 115.5,179.167 115.5,168.833 115.5,158.5C 115.18,155.102 115.513,151.768 116.5,148.5C 121.86,151.18 127.193,153.847 132.5,156.5 Z"/></g>
<g><path style="opacity:1" fill="#5d4d2d" d="M 233.5,143.5 C 233.823,147.226 233.489,150.893 232.5,154.5C 227.255,157.039 222.088,159.706 217,162.5C 216.502,165.817 216.335,169.15 216.5,172.5C 213.833,174.167 211.167,175.833 208.5,177.5C 205.378,178.561 202.378,179.895 199.5,181.5C 199.5,177.833 199.5,174.167 199.5,170.5C 202.508,169.58 205.341,168.246 208,166.5C 208.175,162.789 208.675,159.122 209.5,155.5C 217.527,151.487 225.527,147.487 233.5,143.5 Z"/></g>
<g><path style="opacity:1" fill="#645132" d="M 283.5,149.5 C 283.5,170.167 283.5,190.833 283.5,211.5C 280.833,212.833 278.167,214.167 275.5,215.5C 275.5,208.833 275.5,202.167 275.5,195.5C 275.832,185.145 275.499,174.812 274.5,164.5C 266.473,168.513 258.473,172.513 250.5,176.5C 241.833,180.833 233.167,185.167 224.5,189.5C 221.833,190.833 219.167,192.167 216.5,193.5C 216.177,189.774 216.511,186.107 217.5,182.5C 228.718,177.059 239.718,171.392 250.5,165.5C 261.627,160.437 272.627,155.103 283.5,149.5 Z"/></g>
<g><path style="opacity:1" fill="#544124" d="M 199.5,150.5 C 199.5,157.167 199.5,163.833 199.5,170.5C 199.5,174.167 199.5,177.833 199.5,181.5C 193.64,184.262 187.974,187.262 182.5,190.5C 176.849,192.659 171.516,195.326 166.5,198.5C 163.492,199.42 160.659,200.754 158,202.5C 157.5,192.172 157.334,181.839 157.5,171.5C 157.5,167.833 157.5,164.167 157.5,160.5C 160.622,159.439 163.622,158.105 166.5,156.5C 166.334,166.839 166.5,177.172 167,187.5C 169.448,186.027 171.948,184.693 174.5,183.5C 179.807,180.847 185.14,178.18 190.5,175.5C 191.331,168.524 191.831,161.524 192,154.5C 194.448,153.027 196.948,151.693 199.5,150.5 Z"/></g>
<g><path style="opacity:1" fill="#6b5737" d="M 191.5,133.5 C 191.823,137.226 191.489,140.893 190.5,144.5C 187.921,145.706 185.421,147.039 183,148.5C 182.831,155.524 182.331,162.524 181.5,169.5C 179.5,170.5 177.5,171.5 175.5,172.5C 174.511,176.107 174.177,179.774 174.5,183.5C 171.948,184.693 169.448,186.027 167,187.5C 166.5,177.172 166.334,166.839 166.5,156.5C 166.177,152.774 166.511,149.107 167.5,145.5C 172.72,143.059 177.72,140.392 182.5,137.5C 185.622,136.439 188.622,135.105 191.5,133.5 Z"/></g>
<g><path style="opacity:1" fill="#120e06" d="M 107.5,154.5 C 110.167,155.833 112.833,157.167 115.5,158.5C 115.5,168.833 115.5,179.167 115.5,189.5C 112.833,188.167 110.167,186.833 107.5,185.5C 107.5,178.5 107.5,171.5 107.5,164.5C 107.5,161.167 107.5,157.833 107.5,154.5 Z"/></g>
<g><path style="opacity:1" fill="#1c160c" d="M 132.5,156.5 C 135.378,158.105 138.378,159.439 141.5,160.5C 141.5,160.833 141.5,161.167 141.5,161.5C 141.5,171.833 141.5,182.167 141.5,192.5C 141.5,195.833 141.5,199.167 141.5,202.5C 138.304,201.071 135.304,199.405 132.5,197.5C 132.5,183.833 132.5,170.167 132.5,156.5 Z"/></g>
<g><path style="opacity:1" fill="#725930" d="M 15.5,159.5 C 18.1667,160.833 20.8333,162.167 23.5,163.5C 23.5,166.833 23.5,170.167 23.5,173.5C 20.8333,172.5 18.1667,171.5 15.5,170.5C 15.5,166.833 15.5,163.167 15.5,159.5 Z"/></g>
<g><path style="opacity:1" fill="#977c4f" d="M 57.5,160.5 C 60.1667,161.833 62.8333,163.167 65.5,164.5C 68.3777,166.105 71.3777,167.439 74.5,168.5C 77.1667,170.167 79.8333,171.833 82.5,173.5C 82.8174,176.572 82.4841,179.572 81.5,182.5C 79.2612,181.212 76.9279,180.212 74.5,179.5C 69.0263,176.262 63.3596,173.262 57.5,170.5C 57.5,167.167 57.5,163.833 57.5,160.5 Z"/></g>
<g><path style="opacity:1" fill="#1c160c" d="M 99.5,161.5 C 102.167,162.5 104.833,163.5 107.5,164.5C 107.5,171.5 107.5,178.5 107.5,185.5C 104.833,184.167 102.167,182.833 99.5,181.5C 99.5,174.833 99.5,168.167 99.5,161.5 Z"/></g>
<g><path style="opacity:1" fill="#725930" d="M 141.5,161.5 C 144.167,162.5 146.833,163.5 149.5,164.5C 149.5,168.167 149.5,171.833 149.5,175.5C 149.5,182.167 149.5,188.833 149.5,195.5C 146.833,194.5 144.167,193.5 141.5,192.5C 141.5,182.167 141.5,171.833 141.5,161.5 Z"/></g>
<g><path style="opacity:1" fill="#130e07" d="M 23.5,163.5 C 26.3777,165.105 29.3777,166.439 32.5,167.5C 46.1824,175.008 60.1824,182.008 74.5,188.5C 79.5156,191.674 84.8489,194.341 90.5,196.5C 98.6416,201.072 106.975,205.405 115.5,209.5C 124.167,213.833 132.833,218.167 141.5,222.5C 141.5,226.167 141.5,229.833 141.5,233.5C 141.5,236.833 141.5,240.167 141.5,243.5C 138.622,241.895 135.622,240.561 132.5,239.5C 132.5,239.167 132.5,238.833 132.5,238.5C 132.789,234.894 132.456,231.394 131.5,228C 101.256,212.961 71.089,197.795 41,182.5C 40.8236,185.882 40.3236,189.215 39.5,192.5C 37.5,191.5 35.5,190.5 33.5,189.5C 32.5008,202.817 32.1675,216.15 32.5,229.5C 29.3777,228.439 26.3777,227.105 23.5,225.5C 23.5,215.167 23.5,204.833 23.5,194.5C 23.5,187.5 23.5,180.5 23.5,173.5C 23.5,170.167 23.5,166.833 23.5,163.5 Z"/></g>
<g><path style="opacity:1" fill="#755f36" d="M 57.5,170.5 C 63.3596,173.262 69.0263,176.262 74.5,179.5C 74.5,182.5 74.5,185.5 74.5,188.5C 60.1824,182.008 46.1824,175.008 32.5,167.5C 32.1826,164.428 32.5159,161.428 33.5,158.5C 41.5266,162.513 49.5266,166.513 57.5,170.5 Z"/></g>
<g><path style="opacity:1" fill="#977c4f" d="M 15.5,170.5 C 18.1667,171.5 20.8333,172.5 23.5,173.5C 23.5,180.5 23.5,187.5 23.5,194.5C 20.8333,193.167 18.1667,191.833 15.5,190.5C 15.5,183.833 15.5,177.167 15.5,170.5 Z"/></g>
<g><path style="opacity:1" fill="#886c43" d="M 82.5,173.5 C 88.2919,175.896 93.9586,178.563 99.5,181.5C 102.167,182.833 104.833,184.167 107.5,185.5C 110.167,186.833 112.833,188.167 115.5,189.5C 118.696,190.929 121.696,192.595 124.5,194.5C 124.5,197.5 124.5,200.5 124.5,203.5C 121.378,202.439 118.378,201.105 115.5,199.5C 107.527,195.513 99.5266,191.513 91.5,187.5C 90.5159,190.428 90.1826,193.428 90.5,196.5C 84.8489,194.341 79.5156,191.674 74.5,188.5C 74.5,185.5 74.5,182.5 74.5,179.5C 76.9279,180.212 79.2612,181.212 81.5,182.5C 82.4841,179.572 82.8174,176.572 82.5,173.5 Z"/></g>
<g><path style="opacity:1" fill="#534123" d="M 250.5,176.5 C 250.5,179.833 250.5,183.167 250.5,186.5C 247.86,187.82 245.193,189.153 242.5,190.5C 241.503,197.803 241.169,205.137 241.5,212.5C 238.833,213.5 236.167,214.5 233.5,215.5C 233.83,208.8 233.497,202.134 232.5,195.5C 229.807,196.847 227.14,198.18 224.5,199.5C 224.5,196.167 224.5,192.833 224.5,189.5C 233.167,185.167 241.833,180.833 250.5,176.5 Z"/></g>
<g><path style="opacity:1" fill="#725f3e" d="M 208.5,177.5 C 208.82,180.898 208.487,184.232 207.5,187.5C 199.5,191.5 191.5,195.5 183.5,199.5C 182.516,196.572 182.183,193.572 182.5,190.5C 187.974,187.262 193.64,184.262 199.5,181.5C 202.378,179.895 205.378,178.561 208.5,177.5 Z"/></g>
<g><path style="opacity:1" fill="#1c160c" d="M 132.5,238.5 C 126.823,236.245 121.323,233.578 116,230.5C 115.502,233.817 115.335,237.15 115.5,240.5C 112.833,239.167 110.167,237.833 107.5,236.5C 107.665,233.15 107.498,229.817 107,226.5C 104.552,225.027 102.052,223.693 99.5,222.5C 91.5266,218.513 83.5266,214.513 75.5,210.5C 74.5159,213.428 74.1826,216.428 74.5,219.5C 71.3777,218.439 68.3777,217.105 65.5,215.5C 65.665,212.15 65.4983,208.817 65,205.5C 62.5524,204.027 60.0524,202.693 57.5,201.5C 52.1932,198.847 46.8599,196.18 41.5,193.5C 40.5008,206.817 40.1675,220.15 40.5,233.5C 37.5152,232.674 34.8485,231.341 32.5,229.5C 32.1675,216.15 32.5008,202.817 33.5,189.5C 35.5,190.5 37.5,191.5 39.5,192.5C 40.3236,189.215 40.8236,185.882 41,182.5C 71.089,197.795 101.256,212.961 131.5,228C 132.456,231.394 132.789,234.894 132.5,238.5 Z"/></g>
<g><path style="opacity:1" fill="#675334" d="M 250.5,156.5 C 250.5,159.5 250.5,162.5 250.5,165.5C 239.718,171.392 228.718,177.059 217.5,182.5C 216.511,186.107 216.177,189.774 216.5,193.5C 210.64,196.262 204.974,199.262 199.5,202.5C 193.708,204.896 188.041,207.563 182.5,210.5C 174.293,214.77 165.96,218.77 157.5,222.5C 157.335,219.15 157.502,215.817 158,212.5C 160.421,211.039 162.921,209.706 165.5,208.5C 166.487,205.232 166.82,201.898 166.5,198.5C 171.516,195.326 176.849,192.659 182.5,190.5C 182.183,193.572 182.516,196.572 183.5,199.5C 191.5,195.5 199.5,191.5 207.5,187.5C 208.487,184.232 208.82,180.898 208.5,177.5C 211.167,175.833 213.833,174.167 216.5,172.5C 227.833,167.167 239.167,161.833 250.5,156.5 Z"/></g>
<g><path style="opacity:1" fill="#756238" d="M 115.5,199.5 C 115.5,202.833 115.5,206.167 115.5,209.5C 106.975,205.405 98.6416,201.072 90.5,196.5C 90.1826,193.428 90.5159,190.428 91.5,187.5C 99.5266,191.513 107.527,195.513 115.5,199.5 Z"/></g>
<g><path style="opacity:1" fill="#584a2a" d="M 224.5,189.5 C 224.5,192.833 224.5,196.167 224.5,199.5C 216.293,203.77 207.96,207.77 199.5,211.5C 199.5,208.5 199.5,205.5 199.5,202.5C 204.974,199.262 210.64,196.262 216.5,193.5C 219.167,192.167 221.833,190.833 224.5,189.5 Z"/></g>
<g><path style="opacity:1" fill="#5b492d" d="M 141.5,192.5 C 144.167,193.5 146.833,194.5 149.5,195.5C 149.5,199.167 149.5,202.833 149.5,206.5C 146.833,205.167 144.167,203.833 141.5,202.5C 141.5,199.167 141.5,195.833 141.5,192.5 Z"/></g>
<g><path style="opacity:1" fill="#2f2412" d="M 57.5,201.5 C 57.5,208.5 57.5,215.5 57.5,222.5C 57.5,229.167 57.5,235.833 57.5,242.5C 51.9586,239.563 46.2919,236.896 40.5,234.5C 40.5,234.167 40.5,233.833 40.5,233.5C 40.1675,220.15 40.5008,206.817 41.5,193.5C 46.8599,196.18 52.1932,198.847 57.5,201.5 Z"/></g>
<g><path style="opacity:1" fill="#756238" d="M 124.5,194.5 C 127.167,195.5 129.833,196.5 132.5,197.5C 135.304,199.405 138.304,201.071 141.5,202.5C 144.167,203.833 146.833,205.167 149.5,206.5C 149.5,209.833 149.5,213.167 149.5,216.5C 140.975,212.405 132.642,208.072 124.5,203.5C 124.5,200.5 124.5,197.5 124.5,194.5 Z"/></g>
<g><path style="opacity:1" fill="#534123" d="M 275.5,195.5 C 275.5,202.167 275.5,208.833 275.5,215.5C 275.789,219.106 275.456,222.606 274.5,226C 266.833,229.833 259.167,233.667 251.5,237.5C 250.516,234.572 250.183,231.572 250.5,228.5C 250.5,228.167 250.5,227.833 250.5,227.5C 256.177,225.245 261.677,222.578 267,219.5C 267.169,212.476 267.669,205.476 268.5,198.5C 270.739,197.212 273.072,196.212 275.5,195.5 Z"/></g>
<g><path style="opacity:1" fill="#6b5737" d="M 250.5,227.5 C 250.5,227.833 250.5,228.167 250.5,228.5C 247.378,229.561 244.378,230.895 241.5,232.5C 241.5,225.833 241.5,219.167 241.5,212.5C 241.169,205.137 241.503,197.803 242.5,190.5C 245.193,189.153 247.86,187.82 250.5,186.5C 255.807,183.847 261.14,181.18 266.5,178.5C 267.657,181.784 267.824,185.118 267,188.5C 264.579,189.961 262.079,191.294 259.5,192.5C 258.669,199.476 258.169,206.476 258,213.5C 255.667,214.833 253.333,216.167 251,217.5C 250.502,220.817 250.335,224.15 250.5,227.5 Z"/></g>
<g><path style="opacity:1" fill="#6f5b3a" d="M 157.5,171.5 C 157.334,181.839 157.5,192.172 158,202.5C 160.659,200.754 163.492,199.42 166.5,198.5C 166.82,201.898 166.487,205.232 165.5,208.5C 162.921,209.706 160.421,211.039 158,212.5C 157.502,215.817 157.335,219.15 157.5,222.5C 157.5,225.833 157.5,229.167 157.5,232.5C 157.5,249.833 157.5,267.167 157.5,284.5C 154.833,285.833 152.167,287.167 149.5,288.5C 146.833,287.167 144.167,285.833 141.5,284.5C 141.5,281.167 141.5,277.833 141.5,274.5C 143.928,275.212 146.261,276.212 148.5,277.5C 149.666,267.517 149.832,257.517 149,247.5C 146.552,246.027 144.052,244.693 141.5,243.5C 141.5,240.167 141.5,236.833 141.5,233.5C 143.928,234.212 146.261,235.212 148.5,236.5C 149.487,233.232 149.82,229.898 149.5,226.5C 149.5,223.167 149.5,219.833 149.5,216.5C 149.5,213.167 149.5,209.833 149.5,206.5C 149.5,202.833 149.5,199.167 149.5,195.5C 149.5,188.833 149.5,182.167 149.5,175.5C 152.167,174.167 154.833,172.833 157.5,171.5 Z"/></g>
<g><path style="opacity:1" fill="#725930" d="M 115.5,199.5 C 118.378,201.105 121.378,202.439 124.5,203.5C 132.642,208.072 140.975,212.405 149.5,216.5C 149.5,219.833 149.5,223.167 149.5,226.5C 146.833,225.167 144.167,223.833 141.5,222.5C 132.833,218.167 124.167,213.833 115.5,209.5C 115.5,206.167 115.5,202.833 115.5,199.5 Z"/></g>
<g><path style="opacity:1" fill="#463720" d="M 57.5,201.5 C 60.0524,202.693 62.5524,204.027 65,205.5C 65.4983,208.817 65.665,212.15 65.5,215.5C 65.5,218.833 65.5,222.167 65.5,225.5C 62.8333,224.5 60.1667,223.5 57.5,222.5C 57.5,215.5 57.5,208.5 57.5,201.5 Z"/></g>
<g><path style="opacity:1" fill="#534123" d="M 199.5,202.5 C 199.5,205.5 199.5,208.5 199.5,211.5C 199.5,218.833 199.5,226.167 199.5,233.5C 197.072,234.212 194.739,235.212 192.5,236.5C 191.513,233.232 191.18,229.898 191.5,226.5C 191.82,223.102 191.487,219.768 190.5,216.5C 187.807,217.847 185.14,219.18 182.5,220.5C 182.5,217.167 182.5,213.833 182.5,210.5C 188.041,207.563 193.708,204.896 199.5,202.5 Z"/></g>
<g><path style="opacity:1" fill="#2f2412" d="M 99.5,222.5 C 99.5,229.5 99.5,236.5 99.5,243.5C 99.5,250.167 99.5,256.833 99.5,263.5C 96.6223,261.895 93.6223,260.561 90.5,259.5C 85.1667,256.5 79.8333,253.5 74.5,250.5C 74.5,240.167 74.5,229.833 74.5,219.5C 74.1826,216.428 74.5159,213.428 75.5,210.5C 83.5266,214.513 91.5266,218.513 99.5,222.5 Z"/></g>
<g><path style="opacity:1" fill="#584a2a" d="M 182.5,210.5 C 182.5,213.833 182.5,217.167 182.5,220.5C 177.167,223.167 171.833,225.833 166.5,228.5C 163.622,230.105 160.622,231.439 157.5,232.5C 157.5,229.167 157.5,225.833 157.5,222.5C 165.96,218.77 174.293,214.77 182.5,210.5 Z"/></g>
<g><path style="opacity:1" fill="#685435" d="M 233.5,215.5 C 233.823,219.226 233.489,222.893 232.5,226.5C 229.807,227.847 227.14,229.18 224.5,230.5C 216.527,234.487 208.527,238.487 200.5,242.5C 199.516,239.572 199.183,236.572 199.5,233.5C 199.5,226.167 199.5,218.833 199.5,211.5C 207.96,207.77 216.293,203.77 224.5,199.5C 227.14,198.18 229.807,196.847 232.5,195.5C 233.497,202.134 233.83,208.8 233.5,215.5 Z"/></g>
<g><path style="opacity:1" fill="#584a2a" d="M 283.5,211.5 C 283.666,218.175 283.5,224.842 283,231.5C 272.345,237.244 261.511,242.578 250.5,247.5C 250.817,244.428 250.484,241.428 249.5,238.5C 246.807,239.847 244.14,241.18 241.5,242.5C 241.5,239.167 241.5,235.833 241.5,232.5C 244.378,230.895 247.378,229.561 250.5,228.5C 250.183,231.572 250.516,234.572 251.5,237.5C 259.167,233.667 266.833,229.833 274.5,226C 275.456,222.606 275.789,219.106 275.5,215.5C 278.167,214.167 280.833,212.833 283.5,211.5 Z"/></g>
<g><path style="opacity:1" fill="#584a2a" d="M 241.5,212.5 C 241.5,219.167 241.5,225.833 241.5,232.5C 235.959,235.437 230.292,238.104 224.5,240.5C 224.5,237.167 224.5,233.833 224.5,230.5C 227.14,229.18 229.807,227.847 232.5,226.5C 233.489,222.893 233.823,219.226 233.5,215.5C 236.167,214.5 238.833,213.5 241.5,212.5 Z"/></g>
<g><path style="opacity:1" fill="#5d4d2d" d="M 275.5,195.5 C 273.072,196.212 270.739,197.212 268.5,198.5C 267.669,205.476 267.169,212.476 267,219.5C 261.677,222.578 256.177,225.245 250.5,227.5C 250.335,224.15 250.502,220.817 251,217.5C 253.333,216.167 255.667,214.833 258,213.5C 258.169,206.476 258.669,199.476 259.5,192.5C 262.079,191.294 264.579,189.961 267,188.5C 267.824,185.118 267.657,181.784 266.5,178.5C 261.14,181.18 255.807,183.847 250.5,186.5C 250.5,183.167 250.5,179.833 250.5,176.5C 258.473,172.513 266.473,168.513 274.5,164.5C 275.499,174.812 275.832,185.145 275.5,195.5 Z"/></g>
<g><path style="opacity:1" fill="#120e06" d="M 65.5,215.5 C 68.3777,217.105 71.3777,218.439 74.5,219.5C 74.5,229.833 74.5,240.167 74.5,250.5C 71.3777,249.439 68.3777,248.105 65.5,246.5C 65.5,239.5 65.5,232.5 65.5,225.5C 65.5,222.167 65.5,218.833 65.5,215.5 Z"/></g>
<g><path style="opacity:1" fill="#81663b" d="M 15.5,190.5 C 18.1667,191.833 20.8333,193.167 23.5,194.5C 23.5,204.833 23.5,215.167 23.5,225.5C 23.5,228.833 23.5,232.167 23.5,235.5C 20.9476,234.307 18.4476,232.973 16,231.5C 15.5001,217.837 15.3334,204.171 15.5,190.5 Z"/></g>
<g><path style="opacity:1" fill="#1c160c" d="M 57.5,222.5 C 60.1667,223.5 62.8333,224.5 65.5,225.5C 65.5,232.5 65.5,239.5 65.5,246.5C 62.8333,245.167 60.1667,243.833 57.5,242.5C 57.5,235.833 57.5,229.167 57.5,222.5 Z"/></g>
<g><path style="opacity:1" fill="#463720" d="M 99.5,222.5 C 102.052,223.693 104.552,225.027 107,226.5C 107.498,229.817 107.665,233.15 107.5,236.5C 107.5,239.833 107.5,243.167 107.5,246.5C 104.833,245.5 102.167,244.5 99.5,243.5C 99.5,236.5 99.5,229.5 99.5,222.5 Z"/></g>
<g><path style="opacity:1" fill="#5b492d" d="M 141.5,222.5 C 144.167,223.833 146.833,225.167 149.5,226.5C 149.82,229.898 149.487,233.232 148.5,236.5C 146.261,235.212 143.928,234.212 141.5,233.5C 141.5,229.833 141.5,226.167 141.5,222.5 Z"/></g>
<g><path style="opacity:1" fill="#8b7148" d="M 23.5,225.5 C 26.3777,227.105 29.3777,228.439 32.5,229.5C 34.8485,231.341 37.5152,232.674 40.5,233.5C 40.5,233.833 40.5,234.167 40.5,234.5C 40.5,237.5 40.5,240.5 40.5,243.5C 34.7081,241.104 29.0414,238.437 23.5,235.5C 23.5,232.167 23.5,228.833 23.5,225.5 Z"/></g>
<g><path style="opacity:1" fill="#2f2412" d="M 132.5,238.5 C 132.5,238.833 132.5,239.167 132.5,239.5C 132.5,252.833 132.5,266.167 132.5,279.5C 129.833,278.5 127.167,277.5 124.5,276.5C 121.696,274.595 118.696,272.929 115.5,271.5C 115.5,261.167 115.5,250.833 115.5,240.5C 115.335,237.15 115.502,233.817 116,230.5C 121.323,233.578 126.823,236.245 132.5,238.5 Z"/></g>
<g><path style="opacity:1" fill="#534123" d="M 241.5,232.5 C 241.5,235.833 241.5,239.167 241.5,242.5C 233.527,246.487 225.527,250.487 217.5,254.5C 216.167,251.167 216.167,247.833 217.5,244.5C 220.059,243.392 222.392,242.059 224.5,240.5C 230.292,238.104 235.959,235.437 241.5,232.5 Z"/></g>
<g><path style="opacity:1" fill="#977c4f" d="M 40.5,234.5 C 46.2919,236.896 51.9586,239.563 57.5,242.5C 60.1667,243.833 62.8333,245.167 65.5,246.5C 65.5,249.833 65.5,253.167 65.5,256.5C 56.9749,252.405 48.6416,248.072 40.5,243.5C 40.5,240.5 40.5,237.5 40.5,234.5 Z"/></g>
<g><path style="opacity:1" fill="#6b5737" d="M 191.5,226.5 C 188.86,227.82 186.193,229.153 183.5,230.5C 182.669,237.476 182.169,244.476 182,251.5C 179.667,252.833 177.333,254.167 175,255.5C 174.502,258.817 174.335,262.15 174.5,265.5C 172.392,267.059 170.059,268.392 167.5,269.5C 166.501,255.85 166.167,242.183 166.5,228.5C 171.833,225.833 177.167,223.167 182.5,220.5C 185.14,219.18 187.807,217.847 190.5,216.5C 191.487,219.768 191.82,223.102 191.5,226.5 Z"/></g>
<g><path style="opacity:1" fill="#120e06" d="M 107.5,236.5 C 110.167,237.833 112.833,239.167 115.5,240.5C 115.5,250.833 115.5,261.167 115.5,271.5C 112.833,270.167 110.167,268.833 107.5,267.5C 107.5,260.5 107.5,253.5 107.5,246.5C 107.5,243.167 107.5,239.833 107.5,236.5 Z"/></g>
<g><path style="opacity:1" fill="#5f4e2e" d="M 191.5,226.5 C 191.18,229.898 191.513,233.232 192.5,236.5C 194.739,235.212 197.072,234.212 199.5,233.5C 199.183,236.572 199.516,239.572 200.5,242.5C 208.527,238.487 216.527,234.487 224.5,230.5C 224.5,233.833 224.5,237.167 224.5,240.5C 222.392,242.059 220.059,243.392 217.5,244.5C 216.167,247.833 216.167,251.167 217.5,254.5C 225.527,250.487 233.527,246.487 241.5,242.5C 244.14,241.18 246.807,239.847 249.5,238.5C 250.484,241.428 250.817,244.428 250.5,247.5C 217.023,264.739 183.356,281.739 149.5,298.5C 149.5,295.167 149.5,291.833 149.5,288.5C 152.167,287.167 154.833,285.833 157.5,284.5C 171.385,277.641 185.218,270.641 199,263.5C 199.831,256.808 199.664,250.142 198.5,243.5C 196.5,244.5 194.5,245.5 192.5,246.5C 191.803,250.377 191.136,254.21 190.5,258C 185.265,260.785 179.932,263.285 174.5,265.5C 174.335,262.15 174.502,258.817 175,255.5C 177.333,254.167 179.667,252.833 182,251.5C 182.169,244.476 182.669,237.476 183.5,230.5C 186.193,229.153 188.86,227.82 191.5,226.5 Z"/></g>
<g><path style="opacity:1" fill="#1c160c" d="M 132.5,239.5 C 135.622,240.561 138.622,241.895 141.5,243.5C 141.5,253.833 141.5,264.167 141.5,274.5C 141.5,277.833 141.5,281.167 141.5,284.5C 138.622,282.895 135.622,281.561 132.5,280.5C 132.5,280.167 132.5,279.833 132.5,279.5C 132.5,266.167 132.5,252.833 132.5,239.5 Z"/></g>
<g><path style="opacity:1" fill="#1c160c" d="M 99.5,243.5 C 102.167,244.5 104.833,245.5 107.5,246.5C 107.5,253.5 107.5,260.5 107.5,267.5C 104.833,266.167 102.167,264.833 99.5,263.5C 99.5,256.833 99.5,250.167 99.5,243.5 Z"/></g>
<g><path style="opacity:1" fill="#84683b" d="M 141.5,243.5 C 144.052,244.693 146.552,246.027 149,247.5C 149.832,257.517 149.666,267.517 148.5,277.5C 146.261,276.212 143.928,275.212 141.5,274.5C 141.5,264.167 141.5,253.833 141.5,243.5 Z"/></g>
<g><path style="opacity:1" fill="#544124" d="M 166.5,228.5 C 166.167,242.183 166.501,255.85 167.5,269.5C 170.059,268.392 172.392,267.059 174.5,265.5C 179.932,263.285 185.265,260.785 190.5,258C 191.136,254.21 191.803,250.377 192.5,246.5C 194.5,245.5 196.5,244.5 198.5,243.5C 199.664,250.142 199.831,256.808 199,263.5C 185.218,270.641 171.385,277.641 157.5,284.5C 157.5,267.167 157.5,249.833 157.5,232.5C 160.622,231.439 163.622,230.105 166.5,228.5 Z"/></g>
<g><path style="opacity:1" fill="#866a3f" d="M 65.5,246.5 C 68.3777,248.105 71.3777,249.439 74.5,250.5C 79.8333,253.5 85.1667,256.5 90.5,259.5C 90.5,262.5 90.5,265.5 90.5,268.5C 82.0404,264.77 73.707,260.77 65.5,256.5C 65.5,253.167 65.5,249.833 65.5,246.5 Z"/></g>
<g><path style="opacity:1" fill="#8b7148" d="M 90.5,259.5 C 93.6223,260.561 96.6223,261.895 99.5,263.5C 102.167,264.833 104.833,266.167 107.5,267.5C 110.167,268.833 112.833,270.167 115.5,271.5C 118.696,272.929 121.696,274.595 124.5,276.5C 124.5,279.5 124.5,282.5 124.5,285.5C 112.849,280.341 101.516,274.675 90.5,268.5C 90.5,265.5 90.5,262.5 90.5,259.5 Z"/></g>
<g><path style="opacity:1" fill="#725930" d="M 124.5,276.5 C 127.167,277.5 129.833,278.5 132.5,279.5C 132.5,279.833 132.5,280.167 132.5,280.5C 132.5,283.5 132.5,286.5 132.5,289.5C 129.515,288.674 126.849,287.341 124.5,285.5C 124.5,282.5 124.5,279.5 124.5,276.5 Z"/></g>
<g><path style="opacity:1" fill="#84683b" d="M 132.5,280.5 C 135.622,281.561 138.622,282.895 141.5,284.5C 144.167,285.833 146.833,287.167 149.5,288.5C 149.5,291.833 149.5,295.167 149.5,298.5C 143.64,295.738 137.974,292.738 132.5,289.5C 132.5,286.5 132.5,283.5 132.5,280.5 Z"/></g>
</svg>
