<?xml version="1.0" encoding="UTF-8"?>
<!DOCTYPE svg PUBLIC "-//W3C//DTD SVG 1.1//EN" "http://www.w3.org/Graphics/SVG/1.1/DTD/svg11.dtd">
<svg xmlns="http://www.w3.org/2000/svg" version="1.1" width="300px" height="300px" style="shape-rendering:geometricPrecision; text-rendering:geometricPrecision; image-rendering:optimizeQuality; fill-rule:evenodd; clip-rule:evenodd" xmlns:xlink="http://www.w3.org/1999/xlink">
<g><path style="opacity:1" fill="#120e08" d="M 182.5,17.5 C 180.365,19.0709 178.032,20.4043 175.5,21.5C 175.167,21.5 174.833,21.5 174.5,21.5C 171.622,19.8946 168.622,18.5612 165.5,17.5C 160.501,14.3339 155.168,11.6673 149.5,9.5C 143.832,11.6673 138.499,14.3339 133.5,17.5C 130.378,18.5612 127.378,19.8946 124.5,21.5C 124.167,21.5 123.833,21.5 123.5,21.5C 120.968,20.4043 118.635,19.0709 116.5,17.5C 127.356,11.9053 138.356,6.57198 149.5,1.5C 160.644,6.57198 171.644,11.9053 182.5,17.5 Z"/></g>
<g><path style="opacity:1" fill="#b7955f" d="M 165.5,17.5 C 163.365,19.0709 161.032,20.4043 158.5,21.5C 158.167,21.5 157.833,21.5 157.5,21.5C 154.86,20.1799 152.193,18.8466 149.5,17.5C 146.807,18.8466 144.14,20.1799 141.5,21.5C 141.167,21.5 140.833,21.5 140.5,21.5C 137.968,20.4043 135.635,19.0709 133.5,17.5C 138.499,14.3339 143.832,11.6673 149.5,9.5C 155.168,11.6673 160.501,14.3339 165.5,17.5 Z"/></g>
<g><path style="opacity:1" fill="#3f220d" d="M 116.5,17.5 C 118.635,19.0709 120.968,20.4043 123.5,21.5C 121.151,23.341 118.485,24.6743 115.5,25.5C 112.968,24.4043 110.635,23.0709 108.5,21.5C 111.167,20.1667 113.833,18.8333 116.5,17.5 Z"/></g>
<g><path style="opacity:1" fill="#3f220d" d="M 133.5,17.5 C 135.635,19.0709 137.968,20.4043 140.5,21.5C 135.167,26.8333 129.833,26.8333 124.5,21.5C 127.378,19.8946 130.378,18.5612 133.5,17.5 Z"/></g>
<g><path style="opacity:1" fill="#3f220d" d="M 157.5,21.5 C 152.167,26.8333 146.833,26.8333 141.5,21.5C 144.14,20.1799 146.807,18.8466 149.5,17.5C 152.193,18.8466 154.86,20.1799 157.5,21.5 Z"/></g>
<g><path style="opacity:1" fill="#3f220d" d="M 165.5,17.5 C 168.622,18.5612 171.622,19.8946 174.5,21.5C 169.167,26.8333 163.833,26.8333 158.5,21.5C 161.032,20.4043 163.365,19.0709 165.5,17.5 Z"/></g>
<g><path style="opacity:1" fill="#3f220d" d="M 182.5,17.5 C 185.167,18.8333 187.833,20.1667 190.5,21.5C 188.365,23.0709 186.032,24.4043 183.5,25.5C 180.515,24.6743 177.849,23.341 175.5,21.5C 178.032,20.4043 180.365,19.0709 182.5,17.5 Z"/></g>
<g><path style="opacity:1" fill="#70381e" d="M 108.5,21.5 C 110.635,23.0709 112.968,24.4043 115.5,25.5C 99.1509,34.3412 82.4843,42.6745 65.5,50.5C 62.9684,49.4043 60.6351,48.0709 58.5,46.5C 75.1667,38.1667 91.8333,29.8333 108.5,21.5 Z"/></g>
<g><path style="opacity:1" fill="#a96539" d="M 123.5,21.5 C 123.833,21.5 124.167,21.5 124.5,21.5C 129.833,26.8333 135.167,26.8333 140.5,21.5C 140.833,21.5 141.167,21.5 141.5,21.5C 146.833,26.8333 152.167,26.8333 157.5,21.5C 157.833,21.5 158.167,21.5 158.5,21.5C 163.833,26.8333 169.167,26.8333 174.5,21.5C 174.833,21.5 175.167,21.5 175.5,21.5C 177.849,23.341 180.515,24.6743 183.5,25.5C 199.849,34.3412 216.516,42.6745 233.5,50.5C 235.849,52.341 238.515,53.6743 241.5,54.5C 241.5,54.8333 241.5,55.1667 241.5,55.5C 238.738,56.3795 236.071,57.5462 233.5,59C 235.833,60.5 238.167,62 240.5,63.5C 238.167,65 235.833,66.5 233.5,68C 236.071,69.4538 238.738,70.6205 241.5,71.5C 241.5,71.8333 241.5,72.1667 241.5,72.5C 238.738,73.3795 236.071,74.5462 233.5,76C 235.67,77.5862 238.004,78.9196 240.5,80C 238.102,81.5242 235.769,83.0242 233.5,84.5C 216.516,92.3255 199.849,100.659 183.5,109.5C 180.515,110.326 177.849,111.659 175.5,113.5C 174.833,113.5 174.167,113.5 173.5,113.5C 171.392,111.941 169.059,110.608 166.5,109.5C 163.807,110.847 161.14,112.18 158.5,113.5C 158.167,113.5 157.833,113.5 157.5,113.5C 154.968,112.404 152.635,111.071 150.5,109.5C 177.617,95.4411 204.95,81.6078 232.5,68C 229.757,65.9617 226.757,64.4617 223.5,63.5C 212.691,57.5947 201.691,51.9281 190.5,46.5C 176.977,39.5721 163.311,32.9054 149.5,26.5C 132.499,34.3339 115.832,42.6672 99.5,51.5C 93.8489,53.6588 88.5156,56.3255 83.5,59.5C 77.5765,61.7951 71.9099,64.6284 66.5,68C 71.7345,70.7848 77.0679,73.2848 82.5,75.5C 85.3037,77.4046 88.3037,79.0713 91.5,80.5C 110.69,89.928 129.69,99.5947 148.5,109.5C 146.365,111.071 144.032,112.404 141.5,113.5C 141.167,113.5 140.833,113.5 140.5,113.5C 137.86,112.18 135.193,110.847 132.5,109.5C 129.941,110.608 127.608,111.941 125.5,113.5C 124.833,113.5 124.167,113.5 123.5,113.5C 121.151,111.659 118.485,110.326 115.5,109.5C 99.1509,100.659 82.4843,92.3255 65.5,84.5C 63.2314,83.0242 60.8981,81.5242 58.5,80C 60.9962,78.9196 63.3295,77.5862 65.5,76C 62.9289,74.5462 60.2622,73.3795 57.5,72.5C 57.5,72.1667 57.5,71.8333 57.5,71.5C 60.2622,70.6205 62.9289,69.4538 65.5,68C 63.1667,66.5 60.8333,65 58.5,63.5C 60.8333,62 63.1667,60.5 65.5,59C 62.9289,57.5462 60.2622,56.3795 57.5,55.5C 57.5,55.1667 57.5,54.8333 57.5,54.5C 60.4848,53.6743 63.1515,52.341 65.5,50.5C 82.4843,42.6745 99.1509,34.3412 115.5,25.5C 118.485,24.6743 121.151,23.341 123.5,21.5 Z"/></g>
<g><path style="opacity:1" fill="#70381e" d="M 190.5,21.5 C 207.167,29.8333 223.833,38.1667 240.5,46.5C 238.365,48.0709 236.032,49.4043 233.5,50.5C 216.516,42.6745 199.849,34.3412 183.5,25.5C 186.032,24.4043 188.365,23.0709 190.5,21.5 Z"/></g>
<g><path style="opacity:1" fill="#3f220d" d="M 58.5,46.5 C 60.6351,48.0709 62.9684,49.4043 65.5,50.5C 63.1515,52.341 60.4848,53.6743 57.5,54.5C 54.8333,53.5 52.1667,52.5 49.5,51.5C 52.3037,49.5954 55.3037,47.9287 58.5,46.5 Z"/></g>
<g><path style="opacity:1" fill="#482a17" d="M 190.5,46.5 C 201.691,51.9281 212.691,57.5947 223.5,63.5C 221.151,65.341 218.485,66.6743 215.5,67.5C 210.193,64.8466 204.86,62.1799 199.5,59.5C 196.596,61.12 193.596,62.4533 190.5,63.5C 188.365,61.9291 186.032,60.5957 183.5,59.5C 185.769,58.0242 188.102,56.5242 190.5,55C 187.609,53.7258 184.942,52.2258 182.5,50.5C 185.485,49.6743 188.151,48.341 190.5,46.5 Z"/></g>
<g><path style="opacity:1" fill="#3f220d" d="M 240.5,46.5 C 243.696,47.9287 246.696,49.5954 249.5,51.5C 246.833,52.5 244.167,53.5 241.5,54.5C 238.515,53.6743 235.849,52.341 233.5,50.5C 236.032,49.4043 238.365,48.0709 240.5,46.5 Z"/></g>
<g><path style="opacity:1" fill="#aa673a" d="M 123.5,63.5 C 118.693,60.595 113.693,57.9283 108.5,55.5C 113.499,52.3339 118.832,49.6673 124.5,47.5C 129.949,49.724 135.282,52.224 140.5,55C 135.09,58.3716 129.423,61.2049 123.5,63.5 Z"/></g>
<g><path style="opacity:1" fill="#a76338" d="M 182.5,50.5 C 184.942,52.2258 187.609,53.7258 190.5,55C 188.102,56.5242 185.769,58.0242 183.5,59.5C 180.404,60.5467 177.404,61.88 174.5,63.5C 169.008,60.9213 163.675,58.088 158.5,55C 163.718,52.224 169.051,49.724 174.5,47.5C 177.183,48.5103 179.849,49.5103 182.5,50.5 Z"/></g>
<g><path style="opacity:1" fill="#482a17" d="M 99.5,51.5 C 102.622,52.5612 105.622,53.8946 108.5,55.5C 113.693,57.9283 118.693,60.595 123.5,63.5C 121.231,64.9758 118.898,66.4758 116.5,68C 119.554,70.208 122.887,71.208 126.5,71C 128.86,69.8201 131.193,68.6534 133.5,67.5C 138.516,70.6745 143.849,73.3412 149.5,75.5C 147.058,77.2258 144.391,78.7258 141.5,80C 143.898,81.5242 146.231,83.0242 148.5,84.5C 143.693,87.405 138.693,90.0717 133.5,92.5C 130.515,91.6743 127.849,90.341 125.5,88.5C 130.437,85.694 135.437,82.8607 140.5,80C 135.833,77.6667 131.167,75.3333 126.5,73C 119.959,74.1009 113.959,76.6009 108.5,80.5C 105.639,78.9038 102.639,77.5704 99.5,76.5C 96.4982,77.3341 93.8315,78.6675 91.5,80.5C 88.3037,79.0713 85.3037,77.4046 82.5,75.5C 85.4848,74.6743 88.1515,73.341 90.5,71.5C 90.8333,71.5 91.1667,71.5 91.5,71.5C 93.8315,73.3325 96.4982,74.6659 99.5,75.5C 104.949,73.276 110.282,70.776 115.5,68C 112.757,65.9617 109.757,64.4617 106.5,63.5C 104.392,61.9409 102.059,60.6076 99.5,59.5C 96.5963,61.12 93.5963,62.4533 90.5,63.5C 88.3649,61.9291 86.0316,60.5957 83.5,59.5C 88.5156,56.3255 93.8489,53.6588 99.5,51.5 Z"/></g>
<g><path style="opacity:1" fill="#3f220d" d="M 57.5,55.5 C 60.2622,56.3795 62.9289,57.5462 65.5,59C 63.1667,60.5 60.8333,62 58.5,63.5C 60.8333,65 63.1667,66.5 65.5,68C 62.9289,69.4538 60.2622,70.6205 57.5,71.5C 54.7378,70.6205 52.0711,69.4538 49.5,68C 51.8333,66.5 54.1667,65 56.5,63.5C 54.3021,61.9019 51.9687,60.5686 49.5,59.5C 51.8485,57.659 54.5152,56.3257 57.5,55.5 Z"/></g>
<g><path style="opacity:1" fill="#3f220d" d="M 241.5,55.5 C 244.485,56.3257 247.151,57.659 249.5,59.5C 247.031,60.5686 244.698,61.9019 242.5,63.5C 244.833,65 247.167,66.5 249.5,68C 246.929,69.4538 244.262,70.6205 241.5,71.5C 238.738,70.6205 236.071,69.4538 233.5,68C 235.833,66.5 238.167,65 240.5,63.5C 238.167,62 235.833,60.5 233.5,59C 236.071,57.5462 238.738,56.3795 241.5,55.5 Z"/></g>
<g><path style="opacity:1" fill="#b7955f" d="M 49.5,59.5 C 51.9687,60.5686 54.3021,61.9019 56.5,63.5C 54.1667,65 51.8333,66.5 49.5,68C 52.0711,69.4538 54.7378,70.6205 57.5,71.5C 57.5,71.8333 57.5,72.1667 57.5,72.5C 54.8333,73.5 52.1667,74.5 49.5,75.5C 43.9099,73.3716 38.5765,70.7049 33.5,67.5C 38.5765,64.2951 43.9099,61.6284 49.5,59.5 Z"/></g>
<g><path style="opacity:1" fill="#523722" d="M 83.5,59.5 C 86.0316,60.5957 88.3649,61.9291 90.5,63.5C 88.2314,64.9758 85.8981,66.4758 83.5,68C 85.8599,69.1799 88.1932,70.3466 90.5,71.5C 88.1515,73.341 85.4848,74.6743 82.5,75.5C 77.0679,73.2848 71.7345,70.7848 66.5,68C 71.9099,64.6284 77.5765,61.7951 83.5,59.5 Z"/></g>
<g><path style="opacity:1" fill="#9a5730" d="M 106.5,63.5 C 101.693,66.405 96.6935,69.0717 91.5,71.5C 91.1667,71.5 90.8333,71.5 90.5,71.5C 88.1932,70.3466 85.8599,69.1799 83.5,68C 85.8981,66.4758 88.2314,64.9758 90.5,63.5C 93.5963,62.4533 96.5963,61.12 99.5,59.5C 102.059,60.6076 104.392,61.9409 106.5,63.5 Z"/></g>
<g><path style="opacity:1" fill="#aa673a" d="M 149.5,75.5 C 143.849,73.3412 138.516,70.6745 133.5,67.5C 138.807,64.8466 144.14,62.1799 149.5,59.5C 154.992,62.0787 160.325,64.912 165.5,68C 160.265,70.7848 154.932,73.2848 149.5,75.5 Z"/></g>
<g><path style="opacity:1" fill="#a76338" d="M 215.5,67.5 C 210.501,70.6661 205.168,73.3327 199.5,75.5C 194.051,73.276 188.718,70.776 183.5,68C 185.898,66.4758 188.231,64.9758 190.5,63.5C 193.596,62.4533 196.596,61.12 199.5,59.5C 204.86,62.1799 210.193,64.8466 215.5,67.5 Z"/></g>
<g><path style="opacity:1" fill="#b7955f" d="M 249.5,59.5 C 255.09,61.6284 260.423,64.2951 265.5,67.5C 260.423,70.7049 255.09,73.3716 249.5,75.5C 246.833,74.5 244.167,73.5 241.5,72.5C 241.5,72.1667 241.5,71.8333 241.5,71.5C 244.262,70.6205 246.929,69.4538 249.5,68C 247.167,66.5 244.833,65 242.5,63.5C 244.698,61.9019 247.031,60.5686 249.5,59.5 Z"/></g>
<g><path style="opacity:1" fill="#aa673a" d="M 106.5,63.5 C 109.757,64.4617 112.757,65.9617 115.5,68C 110.282,70.776 104.949,73.276 99.5,75.5C 96.4982,74.6659 93.8315,73.3325 91.5,71.5C 96.6935,69.0717 101.693,66.405 106.5,63.5 Z"/></g>
<g><path style="opacity:1" fill="#513521" d="M 190.5,46.5 C 188.151,48.341 185.485,49.6743 182.5,50.5C 179.849,49.5103 177.183,48.5103 174.5,47.5C 169.051,49.724 163.718,52.224 158.5,55C 163.675,58.088 169.008,60.9213 174.5,63.5C 177.404,61.88 180.404,60.5467 183.5,59.5C 186.032,60.5957 188.365,61.9291 190.5,63.5C 188.231,64.9758 185.898,66.4758 183.5,68C 188.718,70.776 194.051,73.276 199.5,75.5C 205.168,73.3327 210.501,70.6661 215.5,67.5C 218.485,66.6743 221.151,65.341 223.5,63.5C 226.757,64.4617 229.757,65.9617 232.5,68C 204.95,81.6078 177.617,95.4411 150.5,109.5C 149.833,109.5 149.167,109.5 148.5,109.5C 129.69,99.5947 110.69,89.928 91.5,80.5C 93.8315,78.6675 96.4982,77.3341 99.5,76.5C 102.639,77.5704 105.639,78.9038 108.5,80.5C 114.041,83.4374 119.708,86.1041 125.5,88.5C 127.849,90.341 130.515,91.6743 133.5,92.5C 138.499,95.6661 143.832,98.3327 149.5,100.5C 154.949,98.276 160.282,95.776 165.5,93C 160.09,89.6284 154.423,86.7951 148.5,84.5C 146.231,83.0242 143.898,81.5242 141.5,80C 144.391,78.7258 147.058,77.2258 149.5,75.5C 154.932,73.2848 160.265,70.7848 165.5,68C 160.325,64.912 154.992,62.0787 149.5,59.5C 144.14,62.1799 138.807,64.8466 133.5,67.5C 131.193,68.6534 128.86,69.8201 126.5,71C 122.887,71.208 119.554,70.208 116.5,68C 118.898,66.4758 121.231,64.9758 123.5,63.5C 129.423,61.2049 135.09,58.3716 140.5,55C 135.282,52.224 129.949,49.724 124.5,47.5C 118.832,49.6673 113.499,52.3339 108.5,55.5C 105.622,53.8946 102.622,52.5612 99.5,51.5C 115.832,42.6672 132.499,34.3339 149.5,26.5C 163.311,32.9054 176.977,39.5721 190.5,46.5 Z"/></g>
<g><path style="opacity:1" fill="#a76339" d="M 148.5,34.5 C 154.423,36.7951 160.09,39.6284 165.5,43C 160.833,45.3333 156.167,47.6667 151.5,50C 150.167,50.6667 148.833,50.6667 147.5,50C 142.833,47.6667 138.167,45.3333 133.5,43C 138.563,40.1393 143.563,37.306 148.5,34.5 Z"/></g>
<g><path style="opacity:1" fill="#14100a" d="M 49.5,51.5 C 52.1667,52.5 54.8333,53.5 57.5,54.5C 57.5,54.8333 57.5,55.1667 57.5,55.5C 54.5152,56.3257 51.8485,57.659 49.5,59.5C 43.9099,61.6284 38.5765,64.2951 33.5,67.5C 38.5765,70.7049 43.9099,73.3716 49.5,75.5C 51.9422,77.2258 54.6089,78.7258 57.5,80C 55.1019,81.5242 52.7686,83.0242 50.5,84.5C 42.0667,80.784 33.7334,76.784 25.5,72.5C 24.5015,82.4778 24.1681,92.4778 24.5,102.5C 24.5,106.167 24.5,109.833 24.5,113.5C 24.5,123.5 24.5,133.5 24.5,143.5C 24.5,147.167 24.5,150.833 24.5,154.5C 24.5,164.5 24.5,174.5 24.5,184.5C 24.5,187.833 24.5,191.167 24.5,194.5C 24.5,204.833 24.5,215.167 24.5,225.5C 24.5,228.833 24.5,232.167 24.5,235.5C 21.8599,234.18 19.1932,232.847 16.5,231.5C 15.1667,176.833 15.1667,122.167 16.5,67.5C 27.3996,61.8831 38.3996,56.5497 49.5,51.5 Z"/></g>
<g><path style="opacity:1" fill="#0f0c07" d="M 249.5,51.5 C 260.6,56.5497 271.6,61.8831 282.5,67.5C 283.833,122.167 283.833,176.833 282.5,231.5C 279.807,232.847 277.14,234.18 274.5,235.5C 274.5,232.167 274.5,228.833 274.5,225.5C 274.5,222.167 274.5,218.833 274.5,215.5C 274.5,208.5 274.5,201.5 274.5,194.5C 274.5,191.167 274.5,187.833 274.5,184.5C 274.5,177.833 274.5,171.167 274.5,164.5C 274.5,161.167 274.5,157.833 274.5,154.5C 274.5,150.833 274.5,147.167 274.5,143.5C 274.5,140.167 274.5,136.833 274.5,133.5C 274.5,126.833 274.5,120.167 274.5,113.5C 274.5,109.833 274.5,106.167 274.5,102.5C 274.832,92.4778 274.499,82.4778 273.5,72.5C 265.267,76.784 256.933,80.784 248.5,84.5C 246.231,83.0242 243.898,81.5242 241.5,80C 244.391,78.7258 247.058,77.2258 249.5,75.5C 255.09,73.3716 260.423,70.7049 265.5,67.5C 260.423,64.2951 255.09,61.6284 249.5,59.5C 247.151,57.659 244.485,56.3257 241.5,55.5C 241.5,55.1667 241.5,54.8333 241.5,54.5C 244.167,53.5 246.833,52.5 249.5,51.5 Z"/></g>
<g><path style="opacity:1" fill="#3f220d" d="M 57.5,72.5 C 60.2622,73.3795 62.9289,74.5462 65.5,76C 63.3295,77.5862 60.9962,78.9196 58.5,80C 60.8981,81.5242 63.2314,83.0242 65.5,84.5C 62.9684,85.5957 60.6351,86.9291 58.5,88.5C 58.1667,88.5 57.8333,88.5 57.5,88.5C 54.9684,87.4043 52.6351,86.0709 50.5,84.5C 52.7686,83.0242 55.1019,81.5242 57.5,80C 54.6089,78.7258 51.9422,77.2258 49.5,75.5C 52.1667,74.5 54.8333,73.5 57.5,72.5 Z"/></g>
<g><path style="opacity:1" fill="#a76338" d="M 125.5,88.5 C 119.708,86.1041 114.041,83.4374 108.5,80.5C 113.959,76.6009 119.959,74.1009 126.5,73C 131.167,75.3333 135.833,77.6667 140.5,80C 135.437,82.8607 130.437,85.694 125.5,88.5 Z"/></g>
<g><path style="opacity:1" fill="#aa673a" d="M 172.5,72.5 C 178.796,74.1437 184.796,76.6437 190.5,80C 185.325,83.088 179.992,85.9213 174.5,88.5C 169.008,85.9213 163.675,83.088 158.5,80C 163.387,77.7258 168.054,75.2258 172.5,72.5 Z"/></g>
<g><path style="opacity:1" fill="#3f220d" d="M 241.5,72.5 C 244.167,73.5 246.833,74.5 249.5,75.5C 247.058,77.2258 244.391,78.7258 241.5,80C 243.898,81.5242 246.231,83.0242 248.5,84.5C 246.365,86.0709 244.032,87.4043 241.5,88.5C 241.167,88.5 240.833,88.5 240.5,88.5C 238.365,86.9291 236.032,85.5957 233.5,84.5C 235.769,83.0242 238.102,81.5242 240.5,80C 238.004,78.9196 235.67,77.5862 233.5,76C 236.071,74.5462 238.738,73.3795 241.5,72.5 Z"/></g>
<g><path style="opacity:1" fill="#92764a" d="M 50.5,84.5 C 52.6351,86.0709 54.9684,87.4043 57.5,88.5C 57.5,91.8333 57.5,95.1667 57.5,98.5C 49.5266,94.5133 41.5266,90.5133 33.5,86.5C 32.343,89.7844 32.1764,93.1177 33,96.5C 43.6552,102.244 54.4885,107.578 65.5,112.5C 68.3037,114.405 71.3037,116.071 74.5,117.5C 74.5,120.833 74.5,124.167 74.5,127.5C 68.9586,124.563 63.2919,121.896 57.5,119.5C 52.0263,116.262 46.3596,113.262 40.5,110.5C 35.1667,107.833 29.8333,105.167 24.5,102.5C 24.1681,92.4778 24.5015,82.4778 25.5,72.5C 33.7334,76.784 42.0667,80.784 50.5,84.5 Z"/></g>
<g><path style="opacity:1" fill="#70381e" d="M 65.5,84.5 C 82.4843,92.3255 99.1509,100.659 115.5,109.5C 112.968,110.596 110.635,111.929 108.5,113.5C 108.167,113.5 107.833,113.5 107.5,113.5C 104.833,112.167 102.167,110.833 99.5,109.5C 96.8333,108.167 94.1667,106.833 91.5,105.5C 85.9586,102.563 80.2919,99.8959 74.5,97.5C 71.6963,95.5954 68.6963,93.9287 65.5,92.5C 62.9684,91.4043 60.6351,90.0709 58.5,88.5C 60.6351,86.9291 62.9684,85.5957 65.5,84.5 Z"/></g>
<g><path style="opacity:1" fill="#a76338" d="M 148.5,84.5 C 154.423,86.7951 160.09,89.6284 165.5,93C 160.282,95.776 154.949,98.276 149.5,100.5C 143.832,98.3327 138.499,95.6661 133.5,92.5C 138.693,90.0717 143.693,87.405 148.5,84.5 Z"/></g>
<g><path style="opacity:1" fill="#70381e" d="M 233.5,84.5 C 236.032,85.5957 238.365,86.9291 240.5,88.5C 238.365,90.0709 236.032,91.4043 233.5,92.5C 230.304,93.9287 227.304,95.5954 224.5,97.5C 218.708,99.8959 213.041,102.563 207.5,105.5C 204.833,106.833 202.167,108.167 199.5,109.5C 196.833,110.833 194.167,112.167 191.5,113.5C 191.167,113.5 190.833,113.5 190.5,113.5C 188.365,111.929 186.032,110.596 183.5,109.5C 199.849,100.659 216.516,92.3255 233.5,84.5 Z"/></g>
<g><path style="opacity:1" fill="#866d40" d="M 57.5,98.5 C 60.1667,99.8333 62.8333,101.167 65.5,102.5C 65.5,105.833 65.5,109.167 65.5,112.5C 54.4885,107.578 43.6552,102.244 33,96.5C 32.1764,93.1177 32.343,89.7844 33.5,86.5C 41.5266,90.5133 49.5266,94.5133 57.5,98.5 Z"/></g>
<g><path style="opacity:1" fill="#6f5a39" d="M 274.5,102.5 C 269.167,105.167 263.833,107.833 258.5,110.5C 258.665,107.15 258.498,103.817 258,100.5C 255.579,101.961 253.079,103.294 250.5,104.5C 249.676,101.215 249.176,97.8818 249,94.5C 246.552,95.9732 244.052,97.3065 241.5,98.5C 241.5,95.1667 241.5,91.8333 241.5,88.5C 244.032,87.4043 246.365,86.0709 248.5,84.5C 256.933,80.784 265.267,76.784 273.5,72.5C 274.499,82.4778 274.832,92.4778 274.5,102.5 Z"/></g>
<g><path style="opacity:1" fill="#2c1a11" d="M 57.5,88.5 C 57.8333,88.5 58.1667,88.5 58.5,88.5C 60.6351,90.0709 62.9684,91.4043 65.5,92.5C 65.5,95.8333 65.5,99.1667 65.5,102.5C 62.8333,101.167 60.1667,99.8333 57.5,98.5C 57.5,95.1667 57.5,91.8333 57.5,88.5 Z"/></g>
<g><path style="opacity:1" fill="#21140c" d="M 240.5,88.5 C 240.833,88.5 241.167,88.5 241.5,88.5C 241.5,91.8333 241.5,95.1667 241.5,98.5C 238.833,99.8333 236.167,101.167 233.5,102.5C 233.5,99.1667 233.5,95.8333 233.5,92.5C 236.032,91.4043 238.365,90.0709 240.5,88.5 Z"/></g>
<g><path style="opacity:1" fill="#5b2e19" d="M 65.5,92.5 C 68.6963,93.9287 71.6963,95.5954 74.5,97.5C 74.5,100.5 74.5,103.5 74.5,106.5C 71.3777,105.439 68.3777,104.105 65.5,102.5C 65.5,99.1667 65.5,95.8333 65.5,92.5 Z"/></g>
<g><path style="opacity:1" fill="#452312" d="M 233.5,92.5 C 233.5,95.8333 233.5,99.1667 233.5,102.5C 230.622,104.105 227.622,105.439 224.5,106.5C 224.5,103.5 224.5,100.5 224.5,97.5C 227.304,95.5954 230.304,93.9287 233.5,92.5 Z"/></g>
<g><path style="opacity:1" fill="#675532" d="M 258.5,110.5 C 247.167,116.167 235.833,121.833 224.5,127.5C 224.5,124.167 224.5,120.833 224.5,117.5C 227.14,116.18 229.807,114.847 232.5,113.5C 233.489,109.893 233.823,106.226 233.5,102.5C 236.167,101.167 238.833,99.8333 241.5,98.5C 244.052,97.3065 246.552,95.9732 249,94.5C 249.176,97.8818 249.676,101.215 250.5,104.5C 253.079,103.294 255.579,101.961 258,100.5C 258.498,103.817 258.665,107.15 258.5,110.5 Z"/></g>
<g><path style="opacity:1" fill="#3b2212" d="M 74.5,97.5 C 80.2919,99.8959 85.9586,102.563 91.5,105.5C 91.5,108.833 91.5,112.167 91.5,115.5C 91.8204,118.898 91.487,122.232 90.5,125.5C 85.1401,122.82 79.8068,120.153 74.5,117.5C 74.5,113.833 74.5,110.167 74.5,106.5C 74.5,103.5 74.5,100.5 74.5,97.5 Z"/></g>
<g><path style="opacity:1" fill="#2d1a0e" d="M 224.5,97.5 C 224.5,100.5 224.5,103.5 224.5,106.5C 224.5,110.167 224.5,113.833 224.5,117.5C 219.193,120.153 213.86,122.82 208.5,125.5C 207.513,122.232 207.18,118.898 207.5,115.5C 207.5,112.167 207.5,108.833 207.5,105.5C 213.041,102.563 218.708,99.8959 224.5,97.5 Z"/></g>
<g><path style="opacity:1" fill="#644e2b" d="M 24.5,102.5 C 29.8333,105.167 35.1667,107.833 40.5,110.5C 40.8204,113.898 40.487,117.232 39.5,120.5C 37.2612,119.212 34.9279,118.212 32.5,117.5C 30.1515,115.659 27.4848,114.326 24.5,113.5C 24.5,109.833 24.5,106.167 24.5,102.5 Z"/></g>
<g><path style="opacity:1" fill="#2c1a11" d="M 65.5,102.5 C 68.3777,104.105 71.3777,105.439 74.5,106.5C 74.5,110.167 74.5,113.833 74.5,117.5C 71.3037,116.071 68.3037,114.405 65.5,112.5C 65.5,109.167 65.5,105.833 65.5,102.5 Z"/></g>
<g><path style="opacity:1" fill="#21140c" d="M 233.5,102.5 C 233.823,106.226 233.489,109.893 232.5,113.5C 229.807,114.847 227.14,116.18 224.5,117.5C 224.5,113.833 224.5,110.167 224.5,106.5C 227.622,105.439 230.622,104.105 233.5,102.5 Z"/></g>
<g><path style="opacity:1" fill="#5b2e19" d="M 91.5,105.5 C 94.1667,106.833 96.8333,108.167 99.5,109.5C 99.5,112.833 99.5,116.167 99.5,119.5C 96.8333,118.167 94.1667,116.833 91.5,115.5C 91.5,112.167 91.5,108.833 91.5,105.5 Z"/></g>
<g><path style="opacity:1" fill="#452312" d="M 207.5,105.5 C 207.5,108.833 207.5,112.167 207.5,115.5C 204.833,116.833 202.167,118.167 199.5,119.5C 199.5,116.167 199.5,112.833 199.5,109.5C 202.167,108.167 204.833,106.833 207.5,105.5 Z"/></g>
<g><path style="opacity:1" fill="#44351d" d="M 274.5,102.5 C 274.5,106.167 274.5,109.833 274.5,113.5C 257.833,121.5 241.167,129.5 224.5,137.5C 224.5,134.167 224.5,130.833 224.5,127.5C 235.833,121.833 247.167,116.167 258.5,110.5C 263.833,107.833 269.167,105.167 274.5,102.5 Z"/></g>
<g><path style="opacity:1" fill="#2c1a11" d="M 99.5,109.5 C 102.167,110.833 104.833,112.167 107.5,113.5C 107.5,116.833 107.5,120.167 107.5,123.5C 104.833,122.167 102.167,120.833 99.5,119.5C 99.5,116.167 99.5,112.833 99.5,109.5 Z"/></g>
<g><path style="opacity:1" fill="#3f220d" d="M 115.5,109.5 C 118.485,110.326 121.151,111.659 123.5,113.5C 121.365,115.071 119.032,116.404 116.5,117.5C 113.515,116.674 110.849,115.341 108.5,113.5C 110.635,111.929 112.968,110.596 115.5,109.5 Z"/></g>
<g><path style="opacity:1" fill="#3f220d" d="M 140.5,113.5 C 138.365,115.071 136.032,116.404 133.5,117.5C 130.515,116.674 127.849,115.341 125.5,113.5C 127.608,111.941 129.941,110.608 132.5,109.5C 135.193,110.847 137.86,112.18 140.5,113.5 Z"/></g>
<g><path style="opacity:1" fill="#3f220d" d="M 148.5,109.5 C 149.167,109.5 149.833,109.5 150.5,109.5C 152.635,111.071 154.968,112.404 157.5,113.5C 152.167,118.833 146.833,118.833 141.5,113.5C 144.032,112.404 146.365,111.071 148.5,109.5 Z"/></g>
<g><path style="opacity:1" fill="#3f220d" d="M 173.5,113.5 C 171.151,115.341 168.485,116.674 165.5,117.5C 162.968,116.404 160.635,115.071 158.5,113.5C 161.14,112.18 163.807,110.847 166.5,109.5C 169.059,110.608 171.392,111.941 173.5,113.5 Z"/></g>
<g><path style="opacity:1" fill="#3f220d" d="M 183.5,109.5 C 186.032,110.596 188.365,111.929 190.5,113.5C 188.151,115.341 185.485,116.674 182.5,117.5C 179.968,116.404 177.635,115.071 175.5,113.5C 177.849,111.659 180.515,110.326 183.5,109.5 Z"/></g>
<g><path style="opacity:1" fill="#21140c" d="M 199.5,109.5 C 199.5,112.833 199.5,116.167 199.5,119.5C 196.833,120.833 194.167,122.167 191.5,123.5C 191.5,120.167 191.5,116.833 191.5,113.5C 194.167,112.167 196.833,110.833 199.5,109.5 Z"/></g>
<g><path style="opacity:1" fill="#796036" d="M 40.5,110.5 C 46.3596,113.262 52.0263,116.262 57.5,119.5C 57.5,122.833 57.5,126.167 57.5,129.5C 52.1932,126.847 46.8599,124.18 41.5,121.5C 40.5159,124.428 40.1826,127.428 40.5,130.5C 33.4408,129.143 30.7741,124.809 32.5,117.5C 34.9279,118.212 37.2612,119.212 39.5,120.5C 40.487,117.232 40.8204,113.898 40.5,110.5 Z"/></g>
<g><path style="opacity:1" fill="#9a7e4d" d="M 107.5,113.5 C 107.833,113.5 108.167,113.5 108.5,113.5C 110.849,115.341 113.515,116.674 116.5,117.5C 121.833,120.5 127.167,123.5 132.5,126.5C 132.817,129.572 132.484,132.572 131.5,135.5C 126.599,132.882 121.599,130.548 116.5,128.5C 113.696,126.595 110.696,124.929 107.5,123.5C 107.5,120.167 107.5,116.833 107.5,113.5 Z"/></g>
<g><path style="opacity:1" fill="#2c1a11" d="M 91.5,115.5 C 94.1667,116.833 96.8333,118.167 99.5,119.5C 99.8204,122.898 99.487,126.232 98.5,129.5C 96.5,128.5 94.5,127.5 92.5,126.5C 91.5159,129.428 91.1826,132.428 91.5,135.5C 85.7081,133.104 80.0414,130.437 74.5,127.5C 74.5,124.167 74.5,120.833 74.5,117.5C 79.8068,120.153 85.1401,122.82 90.5,125.5C 91.487,122.232 91.8204,118.898 91.5,115.5 Z"/></g>
<g><path style="opacity:1" fill="#1a130b" d="M 207.5,115.5 C 207.18,118.898 207.513,122.232 208.5,125.5C 213.86,122.82 219.193,120.153 224.5,117.5C 224.5,120.833 224.5,124.167 224.5,127.5C 218.959,130.437 213.292,133.104 207.5,135.5C 207.817,132.428 207.484,129.428 206.5,126.5C 204.5,127.5 202.5,128.5 200.5,129.5C 199.513,126.232 199.18,122.898 199.5,119.5C 202.167,118.167 204.833,116.833 207.5,115.5 Z"/></g>
<g><path style="opacity:1" fill="#887042" d="M 99.5,119.5 C 102.167,120.833 104.833,122.167 107.5,123.5C 110.696,124.929 113.696,126.595 116.5,128.5C 116.335,131.85 116.502,135.183 117,138.5C 119.333,139.833 121.667,141.167 124,142.5C 124.498,145.817 124.665,149.15 124.5,152.5C 118.959,149.563 113.292,146.896 107.5,144.5C 102.484,141.326 97.1511,138.659 91.5,136.5C 91.5,136.167 91.5,135.833 91.5,135.5C 91.1826,132.428 91.5159,129.428 92.5,126.5C 94.5,127.5 96.5,128.5 98.5,129.5C 99.487,126.232 99.8204,122.898 99.5,119.5 Z"/></g>
<g><path style="opacity:1" fill="#9a7e4d" d="M 57.5,129.5 C 63.0414,132.437 68.7081,135.104 74.5,137.5C 74.5,137.833 74.5,138.167 74.5,138.5C 74.5,141.5 74.5,144.5 74.5,147.5C 66.0404,143.77 57.707,139.77 49.5,135.5C 46.6223,133.895 43.6223,132.561 40.5,131.5C 40.5,131.167 40.5,130.833 40.5,130.5C 40.1826,127.428 40.5159,124.428 41.5,121.5C 46.8599,124.18 52.1932,126.847 57.5,129.5 Z"/></g>
<g><path style="opacity:1" fill="#917549" d="M 24.5,113.5 C 27.4848,114.326 30.1515,115.659 32.5,117.5C 30.7741,124.809 33.4408,129.143 40.5,130.5C 40.5,130.833 40.5,131.167 40.5,131.5C 40.5,134.833 40.5,138.167 40.5,141.5C 40.5,144.833 40.5,148.167 40.5,151.5C 35.1667,148.833 29.8333,146.167 24.5,143.5C 24.5,133.5 24.5,123.5 24.5,113.5 Z"/></g>
<g><path style="opacity:1" fill="#584425" d="M 57.5,119.5 C 63.2919,121.896 68.9586,124.563 74.5,127.5C 74.5,130.833 74.5,134.167 74.5,137.5C 68.7081,135.104 63.0414,132.437 57.5,129.5C 57.5,126.167 57.5,122.833 57.5,119.5 Z"/></g>
<g><path style="opacity:1" fill="#6f5938" d="M 274.5,113.5 C 274.5,120.167 274.5,126.833 274.5,133.5C 263.86,138.82 253.193,144.153 242.5,149.5C 241.676,146.215 241.176,142.882 241,139.5C 235.677,142.578 230.177,145.245 224.5,147.5C 224.5,144.5 224.5,141.5 224.5,138.5C 224.5,138.167 224.5,137.833 224.5,137.5C 241.167,129.5 257.833,121.5 274.5,113.5 Z"/></g>
<g><path style="opacity:1" fill="#92764b" d="M 132.5,126.5 C 135.508,127.42 138.341,128.754 141,130.5C 141.498,133.817 141.665,137.15 141.5,140.5C 138.86,139.18 136.193,137.847 133.5,136.5C 132.343,139.784 132.176,143.118 133,146.5C 135.659,148.246 138.492,149.58 141.5,150.5C 141.5,153.833 141.5,157.167 141.5,160.5C 138.378,159.439 135.378,158.105 132.5,156.5C 129.833,155.167 127.167,153.833 124.5,152.5C 124.665,149.15 124.498,145.817 124,142.5C 121.667,141.167 119.333,139.833 117,138.5C 116.502,135.183 116.335,131.85 116.5,128.5C 121.599,130.548 126.599,132.882 131.5,135.5C 132.484,132.572 132.817,129.572 132.5,126.5 Z"/></g>
<g><path style="opacity:1" fill="#151209" d="M 74.5,127.5 C 80.0414,130.437 85.7081,133.104 91.5,135.5C 91.5,135.833 91.5,136.167 91.5,136.5C 91.5,139.833 91.5,143.167 91.5,146.5C 85.9586,143.563 80.2919,140.896 74.5,138.5C 74.5,138.167 74.5,137.833 74.5,137.5C 74.5,134.167 74.5,130.833 74.5,127.5 Z"/></g>
<g><path style="opacity:1" fill="#0f0d07" d="M 224.5,127.5 C 224.5,130.833 224.5,134.167 224.5,137.5C 224.5,137.833 224.5,138.167 224.5,138.5C 218.708,140.896 213.041,143.563 207.5,146.5C 207.5,143.167 207.5,139.833 207.5,136.5C 207.5,136.167 207.5,135.833 207.5,135.5C 213.292,133.104 218.959,130.437 224.5,127.5 Z"/></g>
<g><path style="opacity:1" fill="#14100a" d="M 123.5,113.5 C 124.167,113.5 124.833,113.5 125.5,113.5C 127.849,115.341 130.515,116.674 133.5,117.5C 138.499,120.666 143.832,123.333 149.5,125.5C 155.168,123.333 160.501,120.666 165.5,117.5C 168.485,116.674 171.151,115.341 173.5,113.5C 174.167,113.5 174.833,113.5 175.5,113.5C 177.635,115.071 179.968,116.404 182.5,117.5C 174.358,122.072 166.025,126.405 157.5,130.5C 154.948,131.693 152.448,133.027 150,134.5C 149.5,188.832 149.333,243.166 149.5,297.5C 146.515,296.674 143.849,295.341 141.5,293.5C 141.5,290.167 141.5,286.833 141.5,283.5C 141.5,280.167 141.5,276.833 141.5,273.5C 141.5,266.5 141.5,259.5 141.5,252.5C 141.5,249.167 141.5,245.833 141.5,242.5C 141.5,232.5 141.5,222.5 141.5,212.5C 141.5,208.833 141.5,205.167 141.5,201.5C 141.5,191.5 141.5,181.5 141.5,171.5C 141.5,167.833 141.5,164.167 141.5,160.5C 141.5,157.167 141.5,153.833 141.5,150.5C 141.5,147.167 141.5,143.833 141.5,140.5C 141.665,137.15 141.498,133.817 141,130.5C 138.341,128.754 135.508,127.42 132.5,126.5C 127.167,123.5 121.833,120.5 116.5,117.5C 119.032,116.404 121.365,115.071 123.5,113.5 Z"/></g>
<g><path style="opacity:1" fill="#b7955f" d="M 140.5,113.5 C 140.833,113.5 141.167,113.5 141.5,113.5C 146.833,118.833 152.167,118.833 157.5,113.5C 157.833,113.5 158.167,113.5 158.5,113.5C 160.635,115.071 162.968,116.404 165.5,117.5C 160.501,120.666 155.168,123.333 149.5,125.5C 143.832,123.333 138.499,120.666 133.5,117.5C 136.032,116.404 138.365,115.071 140.5,113.5 Z"/></g>
<g><path style="opacity:1" fill="#0f0c07" d="M 157.5,130.5 C 157.5,140.5 157.5,150.5 157.5,160.5C 157.5,164.167 157.5,167.833 157.5,171.5C 157.5,181.5 157.5,191.5 157.5,201.5C 157.5,205.167 157.5,208.833 157.5,212.5C 157.5,222.5 157.5,232.5 157.5,242.5C 157.5,245.833 157.5,249.167 157.5,252.5C 157.5,259.5 157.5,266.5 157.5,273.5C 157.5,276.833 157.5,280.167 157.5,283.5C 157.5,286.833 157.5,290.167 157.5,293.5C 155.151,295.341 152.485,296.674 149.5,297.5C 149.333,243.166 149.5,188.832 150,134.5C 152.448,133.027 154.948,131.693 157.5,130.5 Z"/></g>
<g><path style="opacity:1" fill="#331c0a" d="M 40.5,131.5 C 43.6223,132.561 46.6223,133.895 49.5,135.5C 49.5,138.833 49.5,142.167 49.5,145.5C 46.3777,144.439 43.3777,143.105 40.5,141.5C 40.5,138.167 40.5,134.833 40.5,131.5 Z"/></g>
<g><path style="opacity:1" fill="#7e6a3d" d="M 141.5,140.5 C 141.5,143.833 141.5,147.167 141.5,150.5C 138.492,149.58 135.659,148.246 133,146.5C 132.176,143.118 132.343,139.784 133.5,136.5C 136.193,137.847 138.86,139.18 141.5,140.5 Z"/></g>
<g><path style="opacity:1" fill="#6e5937" d="M 190.5,113.5 C 190.833,113.5 191.167,113.5 191.5,113.5C 191.5,116.833 191.5,120.167 191.5,123.5C 194.167,122.167 196.833,120.833 199.5,119.5C 199.18,122.898 199.513,126.232 200.5,129.5C 202.5,128.5 204.5,127.5 206.5,126.5C 207.484,129.428 207.817,132.428 207.5,135.5C 207.5,135.833 207.5,136.167 207.5,136.5C 201.849,138.659 196.516,141.326 191.5,144.5C 185.708,146.896 180.041,149.563 174.5,152.5C 168.959,155.437 163.292,158.104 157.5,160.5C 157.5,150.5 157.5,140.5 157.5,130.5C 166.025,126.405 174.358,122.072 182.5,117.5C 185.485,116.674 188.151,115.341 190.5,113.5 Z"/></g>
<g><path style="opacity:1" fill="#5a4626" d="M 191.5,123.5 C 191.823,127.226 191.489,130.893 190.5,134.5C 187.921,135.706 185.421,137.039 183,138.5C 182.175,134.789 182.341,131.122 183.5,127.5C 186.193,126.153 188.86,124.82 191.5,123.5 Z"/></g>
<g><path style="opacity:1" fill="#3b2212" d="M 74.5,138.5 C 80.2919,140.896 85.9586,143.563 91.5,146.5C 91.5,149.833 91.5,153.167 91.5,156.5C 85.9586,153.563 80.2919,150.896 74.5,148.5C 74.5,148.167 74.5,147.833 74.5,147.5C 74.5,144.5 74.5,141.5 74.5,138.5 Z"/></g>
<g><path style="opacity:1" fill="#2d1a0e" d="M 224.5,138.5 C 224.5,141.5 224.5,144.5 224.5,147.5C 224.5,147.833 224.5,148.167 224.5,148.5C 218.708,150.896 213.041,153.563 207.5,156.5C 207.5,153.167 207.5,149.833 207.5,146.5C 213.041,143.563 218.708,140.896 224.5,138.5 Z"/></g>
<g><path style="opacity:1" fill="#886f42" d="M 49.5,135.5 C 57.707,139.77 66.0404,143.77 74.5,147.5C 74.5,147.833 74.5,148.167 74.5,148.5C 74.5,155.167 74.5,161.833 74.5,168.5C 71.6223,166.895 68.6223,165.561 65.5,164.5C 60.4844,161.326 55.1511,158.659 49.5,156.5C 49.5,152.833 49.5,149.167 49.5,145.5C 49.5,142.167 49.5,138.833 49.5,135.5 Z"/></g>
<g><path style="opacity:1" fill="#695634" d="M 274.5,133.5 C 274.5,136.833 274.5,140.167 274.5,143.5C 260.643,150.261 246.976,157.261 233.5,164.5C 230.378,165.561 227.378,166.895 224.5,168.5C 224.5,161.833 224.5,155.167 224.5,148.5C 224.5,148.167 224.5,147.833 224.5,147.5C 230.177,145.245 235.677,142.578 241,139.5C 241.176,142.882 241.676,146.215 242.5,149.5C 253.193,144.153 263.86,138.82 274.5,133.5 Z"/></g>
<g><path style="opacity:1" fill="#584425" d="M 91.5,136.5 C 97.1511,138.659 102.484,141.326 107.5,144.5C 107.5,147.833 107.5,151.167 107.5,154.5C 102.167,151.833 96.8333,149.167 91.5,146.5C 91.5,143.167 91.5,139.833 91.5,136.5 Z"/></g>
<g><path style="opacity:1" fill="#48381e" d="M 207.5,136.5 C 207.5,139.833 207.5,143.167 207.5,146.5C 202.167,149.167 196.833,151.833 191.5,154.5C 191.5,151.167 191.5,147.833 191.5,144.5C 196.516,141.326 201.849,138.659 207.5,136.5 Z"/></g>
<g><path style="opacity:1" fill="#1f1808" d="M 40.5,141.5 C 43.3777,143.105 46.3777,144.439 49.5,145.5C 49.5,149.167 49.5,152.833 49.5,156.5C 49.5,159.833 49.5,163.167 49.5,166.5C 49.5,169.833 49.5,173.167 49.5,176.5C 46.3037,175.071 43.3037,173.405 40.5,171.5C 40.5,168.167 40.5,164.833 40.5,161.5C 40.5,158.167 40.5,154.833 40.5,151.5C 40.5,148.167 40.5,144.833 40.5,141.5 Z"/></g>
<g><path style="opacity:1" fill="#331c0a" d="M 107.5,144.5 C 113.292,146.896 118.959,149.563 124.5,152.5C 127.167,153.833 129.833,155.167 132.5,156.5C 132.5,159.833 132.5,163.167 132.5,166.5C 129.833,165.5 127.167,164.5 124.5,163.5C 122.151,161.659 119.485,160.326 116.5,159.5C 113.696,157.595 110.696,155.929 107.5,154.5C 107.5,151.167 107.5,147.833 107.5,144.5 Z"/></g>
<g><path style="opacity:1" fill="#5a4626" d="M 191.5,144.5 C 191.5,147.833 191.5,151.167 191.5,154.5C 185.959,157.437 180.292,160.104 174.5,162.5C 174.5,159.167 174.5,155.833 174.5,152.5C 180.041,149.563 185.708,146.896 191.5,144.5 Z"/></g>
<g><path style="opacity:1" fill="#5e4928" d="M 24.5,143.5 C 29.8333,146.167 35.1667,148.833 40.5,151.5C 40.5,154.833 40.5,158.167 40.5,161.5C 35.1667,159.167 29.8333,156.833 24.5,154.5C 24.5,150.833 24.5,147.167 24.5,143.5 Z"/></g>
<g><path style="opacity:1" fill="#2c1a11" d="M 74.5,148.5 C 80.2919,150.896 85.9586,153.563 91.5,156.5C 91.5,163.167 91.5,169.833 91.5,176.5C 85.7081,174.104 80.0414,171.437 74.5,168.5C 74.5,161.833 74.5,155.167 74.5,148.5 Z"/></g>
<g><path style="opacity:1" fill="#21140c" d="M 224.5,148.5 C 224.5,155.167 224.5,161.833 224.5,168.5C 218.959,171.437 213.292,174.104 207.5,176.5C 207.5,169.833 207.5,163.167 207.5,156.5C 213.041,153.563 218.708,150.896 224.5,148.5 Z"/></g>
<g><path style="opacity:1" fill="#4f3d22" d="M 274.5,143.5 C 274.5,147.167 274.5,150.833 274.5,154.5C 260.706,160.897 247.04,167.564 233.5,174.5C 233.5,171.167 233.5,167.833 233.5,164.5C 246.976,157.261 260.643,150.261 274.5,143.5 Z"/></g>
<g><path style="opacity:1" fill="#4c3c20" d="M 174.5,152.5 C 174.5,155.833 174.5,159.167 174.5,162.5C 169.026,165.738 163.36,168.738 157.5,171.5C 157.5,167.833 157.5,164.167 157.5,160.5C 163.292,158.104 168.959,155.437 174.5,152.5 Z"/></g>
<g><path style="opacity:1" fill="#1f1808" d="M 107.5,154.5 C 110.696,155.929 113.696,157.595 116.5,159.5C 114.984,166.15 117.317,170.484 123.5,172.5C 124.484,169.572 124.817,166.572 124.5,163.5C 127.167,164.5 129.833,165.5 132.5,166.5C 132.5,166.833 132.5,167.167 132.5,167.5C 132.5,174.167 132.5,180.833 132.5,187.5C 124.293,183.23 115.96,179.23 107.5,175.5C 107.5,168.5 107.5,161.5 107.5,154.5 Z"/></g>
<g><path style="opacity:1" fill="#917548" d="M 91.5,146.5 C 96.8333,149.167 102.167,151.833 107.5,154.5C 107.5,161.5 107.5,168.5 107.5,175.5C 107.5,178.5 107.5,181.5 107.5,184.5C 102.167,182.167 96.8333,179.833 91.5,177.5C 91.5,177.167 91.5,176.833 91.5,176.5C 91.5,169.833 91.5,163.167 91.5,156.5C 91.5,153.167 91.5,149.833 91.5,146.5 Z"/></g>
<g><path style="opacity:1" fill="#644e2b" d="M 132.5,156.5 C 135.378,158.105 138.378,159.439 141.5,160.5C 141.5,164.167 141.5,167.833 141.5,171.5C 138.622,169.895 135.622,168.561 132.5,167.5C 132.5,167.167 132.5,166.833 132.5,166.5C 132.5,163.167 132.5,159.833 132.5,156.5 Z"/></g>
<g><path style="opacity:1" fill="#755e3b" d="M 274.5,154.5 C 274.5,157.833 274.5,161.167 274.5,164.5C 257.833,172.5 241.167,180.5 224.5,188.5C 224.5,185.5 224.5,182.5 224.5,179.5C 224.5,179.167 224.5,178.833 224.5,178.5C 227.622,177.439 230.622,176.105 233.5,174.5C 247.04,167.564 260.706,160.897 274.5,154.5 Z"/></g>
<g><path style="opacity:1" fill="#8b7243" d="M 116.5,159.5 C 119.485,160.326 122.151,161.659 124.5,163.5C 124.817,166.572 124.484,169.572 123.5,172.5C 117.317,170.484 114.984,166.15 116.5,159.5 Z"/></g>
<g><path style="opacity:1" fill="#6b522e" d="M 49.5,156.5 C 55.1511,158.659 60.4844,161.326 65.5,164.5C 65.5,167.833 65.5,171.167 65.5,174.5C 60.1667,171.833 54.8333,169.167 49.5,166.5C 49.5,163.167 49.5,159.833 49.5,156.5 Z"/></g>
<g><path style="opacity:1" fill="#514022" d="M 65.5,164.5 C 68.6223,165.561 71.6223,166.895 74.5,168.5C 74.5,171.833 74.5,175.167 74.5,178.5C 71.3777,177.439 68.3777,176.105 65.5,174.5C 65.5,171.167 65.5,167.833 65.5,164.5 Z"/></g>
<g><path style="opacity:1" fill="#635230" d="M 191.5,164.5 C 191.5,167.833 191.5,171.167 191.5,174.5C 191.5,177.833 191.5,181.167 191.5,184.5C 191.5,184.833 191.5,185.167 191.5,185.5C 188.378,186.561 185.378,187.895 182.5,189.5C 182.5,186.167 182.5,182.833 182.5,179.5C 182.5,176.167 182.5,172.833 182.5,169.5C 185.304,167.595 188.304,165.929 191.5,164.5 Z"/></g>
<g><path style="opacity:1" fill="#3e311a" d="M 233.5,164.5 C 233.5,167.833 233.5,171.167 233.5,174.5C 230.622,176.105 227.622,177.439 224.5,178.5C 224.5,175.167 224.5,171.833 224.5,168.5C 227.378,166.895 230.378,165.561 233.5,164.5 Z"/></g>
<g><path style="opacity:1" fill="#acadac" d="M 40.5,171.5 C 43.3037,173.405 46.3037,175.071 49.5,176.5C 52.0524,177.693 54.5524,179.027 57,180.5C 57.4983,183.817 57.665,187.15 57.5,190.5C 55.0721,189.788 52.7388,188.788 50.5,187.5C 49.5159,190.428 49.1826,193.428 49.5,196.5C 46.3777,195.439 43.3777,194.105 40.5,192.5C 40.665,189.15 40.4983,185.817 40,182.5C 37.5524,181.027 35.0524,179.693 32.5,178.5C 32.1796,175.102 32.513,171.768 33.5,168.5C 35.7388,169.788 38.0721,170.788 40.5,171.5 Z"/></g>
<g><path style="opacity:1" fill="#151209" d="M 74.5,168.5 C 80.0414,171.437 85.7081,174.104 91.5,176.5C 91.5,176.833 91.5,177.167 91.5,177.5C 91.5,180.833 91.5,184.167 91.5,187.5C 85.9586,184.563 80.2919,181.896 74.5,179.5C 74.5,179.167 74.5,178.833 74.5,178.5C 74.5,175.167 74.5,171.833 74.5,168.5 Z"/></g>
<g><path style="opacity:1" fill="#0f0d07" d="M 224.5,168.5 C 224.5,171.833 224.5,175.167 224.5,178.5C 224.5,178.833 224.5,179.167 224.5,179.5C 218.708,181.896 213.041,184.563 207.5,187.5C 207.5,184.167 207.5,180.833 207.5,177.5C 207.5,177.167 207.5,176.833 207.5,176.5C 213.292,174.104 218.959,171.437 224.5,168.5 Z"/></g>
<g><path style="opacity:1" fill="#261508" d="M 182.5,169.5 C 182.5,172.833 182.5,176.167 182.5,179.5C 179.833,180.833 177.167,182.167 174.5,183.5C 172.658,175.898 175.325,171.231 182.5,169.5 Z"/></g>
<g><path style="opacity:1" fill="#171206" d="M 199.5,171.5 C 199.5,174.5 199.5,177.5 199.5,180.5C 197.151,182.341 194.485,183.674 191.5,184.5C 191.5,181.167 191.5,177.833 191.5,174.5C 194.167,173.5 196.833,172.5 199.5,171.5 Z"/></g>
<g><path style="opacity:1" fill="#6d5937" d="M 207.5,146.5 C 207.5,149.833 207.5,153.167 207.5,156.5C 207.5,163.167 207.5,169.833 207.5,176.5C 207.5,176.833 207.5,177.167 207.5,177.5C 204.833,178.5 202.167,179.5 199.5,180.5C 199.5,177.5 199.5,174.5 199.5,171.5C 199.665,167.818 199.499,164.152 199,160.5C 196.552,161.973 194.052,163.307 191.5,164.5C 188.304,165.929 185.304,167.595 182.5,169.5C 175.325,171.231 172.658,175.898 174.5,183.5C 174.5,186.833 174.5,190.167 174.5,193.5C 171.833,194.833 169.167,196.167 166.5,197.5C 163.622,199.105 160.622,200.439 157.5,201.5C 157.5,191.5 157.5,181.5 157.5,171.5C 163.36,168.738 169.026,165.738 174.5,162.5C 180.292,160.104 185.959,157.437 191.5,154.5C 196.833,151.833 202.167,149.167 207.5,146.5 Z"/></g>
<g><path style="opacity:1" fill="#261508" d="M 199.5,171.5 C 196.833,172.5 194.167,173.5 191.5,174.5C 191.5,171.167 191.5,167.833 191.5,164.5C 194.052,163.307 196.552,161.973 199,160.5C 199.499,164.152 199.665,167.818 199.5,171.5 Z"/></g>
<g><path style="opacity:1" fill="#94774a" d="M 24.5,154.5 C 29.8333,156.833 35.1667,159.167 40.5,161.5C 40.5,164.833 40.5,168.167 40.5,171.5C 38.0721,170.788 35.7388,169.788 33.5,168.5C 32.513,171.768 32.1796,175.102 32.5,178.5C 32.5,181.833 32.5,185.167 32.5,188.5C 29.8333,187.167 27.1667,185.833 24.5,184.5C 24.5,174.5 24.5,164.5 24.5,154.5 Z"/></g>
<g><path style="opacity:1" fill="#909190" d="M 107.5,175.5 C 115.96,179.23 124.293,183.23 132.5,187.5C 132.5,190.833 132.5,194.167 132.5,197.5C 127.167,194.833 121.833,192.167 116.5,189.5C 113.622,187.895 110.622,186.561 107.5,185.5C 107.5,185.167 107.5,184.833 107.5,184.5C 107.5,181.5 107.5,178.5 107.5,175.5 Z"/></g>
<g><path style="opacity:1" fill="#897045" d="M 132.5,167.5 C 135.622,168.561 138.622,169.895 141.5,171.5C 141.5,181.5 141.5,191.5 141.5,201.5C 138.378,200.439 135.378,199.105 132.5,197.5C 132.5,194.167 132.5,190.833 132.5,187.5C 132.5,180.833 132.5,174.167 132.5,167.5 Z"/></g>
<g><path style="opacity:1" fill="#909190" d="M 32.5,178.5 C 35.0524,179.693 37.5524,181.027 40,182.5C 40.4983,185.817 40.665,189.15 40.5,192.5C 37.8333,191.167 35.1667,189.833 32.5,188.5C 32.5,185.167 32.5,181.833 32.5,178.5 Z"/></g>
<g><path style="opacity:1" fill="#3b2212" d="M 74.5,179.5 C 80.2919,181.896 85.9586,184.563 91.5,187.5C 91.5,190.833 91.5,194.167 91.5,197.5C 85.9586,194.563 80.2919,191.896 74.5,189.5C 74.5,186.167 74.5,182.833 74.5,179.5 Z"/></g>
<g><path style="opacity:1" fill="#171206" d="M 182.5,179.5 C 182.5,182.833 182.5,186.167 182.5,189.5C 179.833,190.833 177.167,192.167 174.5,193.5C 174.5,190.167 174.5,186.833 174.5,183.5C 177.167,182.167 179.833,180.833 182.5,179.5 Z"/></g>
<g><path style="opacity:1" fill="#2d1a0e" d="M 224.5,179.5 C 224.5,182.5 224.5,185.5 224.5,188.5C 224.5,188.833 224.5,189.167 224.5,189.5C 218.708,191.896 213.041,194.563 207.5,197.5C 207.5,194.167 207.5,190.833 207.5,187.5C 213.041,184.563 218.708,181.896 224.5,179.5 Z"/></g>
<g><path style="opacity:1" fill="#665432" d="M 274.5,164.5 C 274.5,171.167 274.5,177.833 274.5,184.5C 269.167,187.167 263.833,189.833 258.5,192.5C 252.64,195.262 246.974,198.262 241.5,201.5C 235.708,203.896 230.041,206.563 224.5,209.5C 224.5,202.833 224.5,196.167 224.5,189.5C 224.5,189.167 224.5,188.833 224.5,188.5C 241.167,180.5 257.833,172.5 274.5,164.5 Z"/></g>
<g><path style="opacity:1" fill="#5e4928" d="M 91.5,177.5 C 96.8333,179.833 102.167,182.167 107.5,184.5C 107.5,184.833 107.5,185.167 107.5,185.5C 107.5,188.833 107.5,192.167 107.5,195.5C 102.167,192.833 96.8333,190.167 91.5,187.5C 91.5,184.167 91.5,180.833 91.5,177.5 Z"/></g>
<g><path style="opacity:1" fill="#48381e" d="M 207.5,177.5 C 207.5,180.833 207.5,184.167 207.5,187.5C 204.833,188.833 202.167,190.167 199.5,191.5C 196.833,192.833 194.167,194.167 191.5,195.5C 191.5,192.167 191.5,188.833 191.5,185.5C 191.5,185.167 191.5,184.833 191.5,184.5C 194.485,183.674 197.151,182.341 199.5,180.5C 202.167,179.5 204.833,178.5 207.5,177.5 Z"/></g>
<g><path style="opacity:1" fill="#8c7245" d="M 49.5,166.5 C 54.8333,169.167 60.1667,171.833 65.5,174.5C 68.3777,176.105 71.3777,177.439 74.5,178.5C 74.5,178.833 74.5,179.167 74.5,179.5C 74.5,182.833 74.5,186.167 74.5,189.5C 74.5,196.167 74.5,202.833 74.5,209.5C 68.9586,206.563 63.2919,203.896 57.5,201.5C 57.5,201.167 57.5,200.833 57.5,200.5C 57.5,197.167 57.5,193.833 57.5,190.5C 57.665,187.15 57.4983,183.817 57,180.5C 54.5524,179.027 52.0524,177.693 49.5,176.5C 49.5,173.167 49.5,169.833 49.5,166.5 Z"/></g>
<g><path style="opacity:1" fill="#3e311a" d="M 274.5,184.5 C 274.5,187.833 274.5,191.167 274.5,194.5C 269.167,197.167 263.833,199.833 258.5,202.5C 258.5,199.167 258.5,195.833 258.5,192.5C 263.833,189.833 269.167,187.167 274.5,184.5 Z"/></g>
<g><path style="opacity:1" fill="#cbcccb" d="M 107.5,185.5 C 110.622,186.561 113.622,187.895 116.5,189.5C 116.5,196.167 116.5,202.833 116.5,209.5C 113.378,208.439 110.378,207.105 107.5,205.5C 107.5,202.167 107.5,198.833 107.5,195.5C 107.5,192.167 107.5,188.833 107.5,185.5 Z"/></g>
<g><path style="opacity:1" fill="#828382" d="M 191.5,185.5 C 191.5,188.833 191.5,192.167 191.5,195.5C 188.622,197.105 185.622,198.439 182.5,199.5C 182.5,196.167 182.5,192.833 182.5,189.5C 185.378,187.895 188.378,186.561 191.5,185.5 Z"/></g>
<g><path style="opacity:1" fill="#cbcccb" d="M 57.5,190.5 C 57.5,193.833 57.5,197.167 57.5,200.5C 54.5152,199.674 51.8485,198.341 49.5,196.5C 49.1826,193.428 49.5159,190.428 50.5,187.5C 52.7388,188.788 55.0721,189.788 57.5,190.5 Z"/></g>
<g><path style="opacity:1" fill="#9a7e4d" d="M 91.5,187.5 C 96.8333,190.167 102.167,192.833 107.5,195.5C 107.5,198.833 107.5,202.167 107.5,205.5C 102.167,202.833 96.8333,200.167 91.5,197.5C 91.5,194.167 91.5,190.833 91.5,187.5 Z"/></g>
<g><path style="opacity:1" fill="#5e4928" d="M 24.5,184.5 C 27.1667,185.833 29.8333,187.167 32.5,188.5C 35.1667,189.833 37.8333,191.167 40.5,192.5C 40.5,195.833 40.5,199.167 40.5,202.5C 35.1667,199.833 29.8333,197.167 24.5,194.5C 24.5,191.167 24.5,187.833 24.5,184.5 Z"/></g>
<g><path style="opacity:1" fill="#2c1a11" d="M 74.5,189.5 C 80.2919,191.896 85.9586,194.563 91.5,197.5C 91.5,204.167 91.5,210.833 91.5,217.5C 85.7081,215.104 80.0414,212.437 74.5,209.5C 74.5,202.833 74.5,196.167 74.5,189.5 Z"/></g>
<g><path style="opacity:1" fill="#acadac" d="M 116.5,189.5 C 121.833,192.167 127.167,194.833 132.5,197.5C 132.5,201.167 132.5,204.833 132.5,208.5C 132.5,218.5 132.5,228.5 132.5,238.5C 132.5,241.833 132.5,245.167 132.5,248.5C 129.833,247.167 127.167,245.833 124.5,244.5C 124.5,241.167 124.5,237.833 124.5,234.5C 124.665,231.15 124.498,227.817 124,224.5C 121.552,223.027 119.052,221.693 116.5,220.5C 116.5,216.833 116.5,213.167 116.5,209.5C 116.5,202.833 116.5,196.167 116.5,189.5 Z"/></g>
<g><path style="opacity:1" fill="#4c3c20" d="M 182.5,189.5 C 182.5,192.833 182.5,196.167 182.5,199.5C 182.5,199.833 182.5,200.167 182.5,200.5C 179.515,201.326 176.849,202.659 174.5,204.5C 171.833,205.5 169.167,206.5 166.5,207.5C 166.5,204.167 166.5,200.833 166.5,197.5C 169.167,196.167 171.833,194.833 174.5,193.5C 177.167,192.167 179.833,190.833 182.5,189.5 Z"/></g>
<g><path style="opacity:1" fill="#21140c" d="M 224.5,189.5 C 224.5,196.167 224.5,202.833 224.5,209.5C 218.959,212.437 213.292,215.104 207.5,217.5C 207.5,210.833 207.5,204.167 207.5,197.5C 213.041,194.563 218.708,191.896 224.5,189.5 Z"/></g>
<g><path style="opacity:1" fill="#828382" d="M 199.5,191.5 C 199.5,194.833 199.5,198.167 199.5,201.5C 196.833,202.833 194.167,204.167 191.5,205.5C 191.5,202.167 191.5,198.833 191.5,195.5C 194.167,194.167 196.833,192.833 199.5,191.5 Z"/></g>
<g><path style="opacity:1" fill="#775d33" d="M 40.5,192.5 C 43.3777,194.105 46.3777,195.439 49.5,196.5C 51.8485,198.341 54.5152,199.674 57.5,200.5C 57.5,200.833 57.5,201.167 57.5,201.5C 57.5,204.5 57.5,207.5 57.5,210.5C 51.7081,208.104 46.0414,205.437 40.5,202.5C 40.5,199.167 40.5,195.833 40.5,192.5 Z"/></g>
<g><path style="opacity:1" fill="#4c3c20" d="M 258.5,192.5 C 258.5,195.833 258.5,199.167 258.5,202.5C 255.304,203.929 252.304,205.595 249.5,207.5C 247.072,208.212 244.739,209.212 242.5,210.5C 241.516,207.572 241.183,204.572 241.5,201.5C 246.974,198.262 252.64,195.262 258.5,192.5 Z"/></g>
<g><path style="opacity:1" fill="#644e2b" d="M 132.5,197.5 C 135.378,199.105 138.378,200.439 141.5,201.5C 141.5,205.167 141.5,208.833 141.5,212.5C 138.622,210.895 135.622,209.561 132.5,208.5C 132.5,204.833 132.5,201.167 132.5,197.5 Z"/></g>
<g><path style="opacity:1" fill="#3e311a" d="M 166.5,197.5 C 166.5,200.833 166.5,204.167 166.5,207.5C 163.696,209.405 160.696,211.071 157.5,212.5C 157.5,208.833 157.5,205.167 157.5,201.5C 160.622,200.439 163.622,199.105 166.5,197.5 Z"/></g>
<g><path style="opacity:1" fill="#828382" d="M 182.5,200.5 C 182.5,203.833 182.5,207.167 182.5,210.5C 179.833,211.5 177.167,212.5 174.5,213.5C 174.5,210.5 174.5,207.5 174.5,204.5C 176.849,202.659 179.515,201.326 182.5,200.5 Z"/></g>
<g><path style="opacity:1" fill="#886f42" d="M 91.5,197.5 C 96.8333,200.167 102.167,202.833 107.5,205.5C 110.378,207.105 113.378,208.439 116.5,209.5C 116.5,213.167 116.5,216.833 116.5,220.5C 116.5,223.833 116.5,227.167 116.5,230.5C 108.293,226.23 99.9596,222.23 91.5,218.5C 91.5,218.167 91.5,217.833 91.5,217.5C 91.5,210.833 91.5,204.167 91.5,197.5 Z"/></g>
<g><path style="opacity:1" fill="#9a7e4d" d="M 40.5,202.5 C 46.0414,205.437 51.7081,208.104 57.5,210.5C 57.5,210.833 57.5,211.167 57.5,211.5C 57.665,214.85 57.4983,218.183 57,221.5C 51.9117,218.706 46.7451,216.039 41.5,213.5C 40.5108,209.893 40.1774,206.226 40.5,202.5 Z"/></g>
<g><path style="opacity:1" fill="#584425" d="M 57.5,201.5 C 63.2919,203.896 68.9586,206.563 74.5,209.5C 74.5,212.833 74.5,216.167 74.5,219.5C 68.9586,216.563 63.2919,213.896 57.5,211.5C 57.5,211.167 57.5,210.833 57.5,210.5C 57.5,207.5 57.5,204.5 57.5,201.5 Z"/></g>
<g><path style="opacity:1" fill="#5a4829" d="M 241.5,201.5 C 241.183,204.572 241.516,207.572 242.5,210.5C 244.739,209.212 247.072,208.212 249.5,207.5C 249.665,210.85 249.498,214.183 249,217.5C 246.667,218.833 244.333,220.167 242,221.5C 241.824,218.118 241.324,214.785 240.5,211.5C 235.14,214.18 229.807,216.847 224.5,219.5C 224.5,216.167 224.5,212.833 224.5,209.5C 230.041,206.563 235.708,203.896 241.5,201.5 Z"/></g>
<g><path style="opacity:1" fill="#0d0b05" d="M 74.5,209.5 C 80.0414,212.437 85.7081,215.104 91.5,217.5C 91.5,217.833 91.5,218.167 91.5,218.5C 91.5,221.5 91.5,224.5 91.5,227.5C 85.7081,225.104 80.0414,222.437 74.5,219.5C 74.5,216.167 74.5,212.833 74.5,209.5 Z"/></g>
<g><path style="opacity:1" fill="#090904" d="M 224.5,209.5 C 224.5,212.833 224.5,216.167 224.5,219.5C 218.959,222.437 213.292,225.104 207.5,227.5C 207.5,224.5 207.5,221.5 207.5,218.5C 207.5,218.167 207.5,217.833 207.5,217.5C 213.292,215.104 218.959,212.437 224.5,209.5 Z"/></g>
<g><path style="opacity:1" fill="#60502e" d="M 274.5,215.5 C 274.5,218.833 274.5,222.167 274.5,225.5C 263.627,231.103 252.627,236.437 241.5,241.5C 241.211,237.894 241.544,234.394 242.5,231C 253.066,225.55 263.733,220.383 274.5,215.5 Z"/></g>
<g><path style="opacity:1" fill="#886f44" d="M 132.5,208.5 C 135.622,209.561 138.622,210.895 141.5,212.5C 141.5,222.5 141.5,232.5 141.5,242.5C 138.378,241.439 135.378,240.105 132.5,238.5C 132.5,228.5 132.5,218.5 132.5,208.5 Z"/></g>
<g><path style="opacity:1" fill="#3b2212" d="M 74.5,219.5 C 80.0414,222.437 85.7081,225.104 91.5,227.5C 91.5,227.833 91.5,228.167 91.5,228.5C 91.5,231.833 91.5,235.167 91.5,238.5C 85.9586,235.563 80.2919,232.896 74.5,230.5C 74.5,226.833 74.5,223.167 74.5,219.5 Z"/></g>
<g><path style="opacity:1" fill="#2d1a0e" d="M 224.5,219.5 C 224.5,223.167 224.5,226.833 224.5,230.5C 218.708,232.896 213.041,235.563 207.5,238.5C 207.5,235.167 207.5,231.833 207.5,228.5C 207.5,228.167 207.5,227.833 207.5,227.5C 213.292,225.104 218.959,222.437 224.5,219.5 Z"/></g>
<g><path style="opacity:1" fill="#cbcccb" d="M 116.5,220.5 C 119.052,221.693 121.552,223.027 124,224.5C 124.498,227.817 124.665,231.15 124.5,234.5C 121.833,233.167 119.167,231.833 116.5,230.5C 116.5,227.167 116.5,223.833 116.5,220.5 Z"/></g>
<g><path style="opacity:1" fill="#6b5735" d="M 207.5,187.5 C 207.5,190.833 207.5,194.167 207.5,197.5C 207.5,204.167 207.5,210.833 207.5,217.5C 207.5,217.833 207.5,218.167 207.5,218.5C 201.849,220.659 196.516,223.326 191.5,226.5C 183.04,230.23 174.707,234.23 166.5,238.5C 163.622,240.105 160.622,241.439 157.5,242.5C 157.5,232.5 157.5,222.5 157.5,212.5C 160.696,211.071 163.696,209.405 166.5,207.5C 169.167,206.5 171.833,205.5 174.5,204.5C 174.5,207.5 174.5,210.5 174.5,213.5C 174.335,217.182 174.501,220.848 175,224.5C 177.333,223.167 179.667,221.833 182,220.5C 182.498,217.183 182.665,213.85 182.5,210.5C 182.5,207.167 182.5,203.833 182.5,200.5C 182.5,200.167 182.5,199.833 182.5,199.5C 185.622,198.439 188.622,197.105 191.5,195.5C 191.5,198.833 191.5,202.167 191.5,205.5C 191.18,208.898 191.513,212.232 192.5,215.5C 194.5,214.5 196.5,213.5 198.5,212.5C 199.489,208.893 199.823,205.226 199.5,201.5C 199.5,198.167 199.5,194.833 199.5,191.5C 202.167,190.167 204.833,188.833 207.5,187.5 Z"/></g>
<g><path style="opacity:1" fill="#6d6e6d" d="M 182.5,210.5 C 182.665,213.85 182.498,217.183 182,220.5C 179.667,221.833 177.333,223.167 175,224.5C 174.501,220.848 174.335,217.182 174.5,213.5C 177.167,212.5 179.833,211.5 182.5,210.5 Z"/></g>
<g><path style="opacity:1" fill="#6d6e6d" d="M 199.5,201.5 C 199.823,205.226 199.489,208.893 198.5,212.5C 196.5,213.5 194.5,214.5 192.5,215.5C 191.513,212.232 191.18,208.898 191.5,205.5C 194.167,204.167 196.833,202.833 199.5,201.5 Z"/></g>
<g><path style="opacity:1" fill="#6f5a38" d="M 274.5,194.5 C 274.5,201.5 274.5,208.5 274.5,215.5C 263.733,220.383 253.066,225.55 242.5,231C 241.544,234.394 241.211,237.894 241.5,241.5C 236.026,244.738 230.36,247.738 224.5,250.5C 224.5,243.833 224.5,237.167 224.5,230.5C 224.5,226.833 224.5,223.167 224.5,219.5C 229.807,216.847 235.14,214.18 240.5,211.5C 241.324,214.785 241.824,218.118 242,221.5C 244.333,220.167 246.667,218.833 249,217.5C 249.498,214.183 249.665,210.85 249.5,207.5C 252.304,205.595 255.304,203.929 258.5,202.5C 263.833,199.833 269.167,197.167 274.5,194.5 Z"/></g>
<g><path style="opacity:1" fill="#48381e" d="M 207.5,218.5 C 207.5,221.5 207.5,224.5 207.5,227.5C 207.5,227.833 207.5,228.167 207.5,228.5C 202.167,230.833 196.833,233.167 191.5,235.5C 191.5,232.5 191.5,229.5 191.5,226.5C 196.516,223.326 201.849,220.659 207.5,218.5 Z"/></g>
<g><path style="opacity:1" fill="#43341c" d="M 274.5,225.5 C 274.5,228.833 274.5,232.167 274.5,235.5C 257.833,243.833 241.167,252.167 224.5,260.5C 224.5,257.167 224.5,253.833 224.5,250.5C 230.36,247.738 236.026,244.738 241.5,241.5C 252.627,236.437 263.627,231.103 274.5,225.5 Z"/></g>
<g><path style="opacity:1" fill="#69512d" d="M 91.5,218.5 C 99.9596,222.23 108.293,226.23 116.5,230.5C 119.167,231.833 121.833,233.167 124.5,234.5C 124.5,237.833 124.5,241.167 124.5,244.5C 121.833,243.167 119.167,241.833 116.5,240.5C 113.622,238.895 110.622,237.561 107.5,236.5C 102.484,233.326 97.1511,230.659 91.5,228.5C 91.5,228.167 91.5,227.833 91.5,227.5C 91.5,224.5 91.5,221.5 91.5,218.5 Z"/></g>
<g><path style="opacity:1" fill="#574325" d="M 191.5,226.5 C 191.5,229.5 191.5,232.5 191.5,235.5C 183.358,240.072 175.025,244.405 166.5,248.5C 166.5,245.167 166.5,241.833 166.5,238.5C 174.707,234.23 183.04,230.23 191.5,226.5 Z"/></g>
<g><path style="opacity:1" fill="#2c1a11" d="M 74.5,230.5 C 80.2919,232.896 85.9586,235.563 91.5,238.5C 91.5,245.167 91.5,251.833 91.5,258.5C 85.7081,256.104 80.0414,253.437 74.5,250.5C 74.5,246.833 74.5,243.167 74.5,239.5C 74.5,236.5 74.5,233.5 74.5,230.5 Z"/></g>
<g><path style="opacity:1" fill="#21140c" d="M 224.5,230.5 C 224.5,237.167 224.5,243.833 224.5,250.5C 218.959,253.437 213.292,256.104 207.5,258.5C 207.5,255.167 207.5,251.833 207.5,248.5C 207.5,245.167 207.5,241.833 207.5,238.5C 213.041,235.563 218.708,232.896 224.5,230.5 Z"/></g>
<g><path style="opacity:1" fill="#8a7145" d="M 24.5,194.5 C 29.8333,197.167 35.1667,199.833 40.5,202.5C 40.1774,206.226 40.5108,209.893 41.5,213.5C 46.7451,216.039 51.9117,218.706 57,221.5C 57.4983,218.183 57.665,214.85 57.5,211.5C 63.2919,213.896 68.9586,216.563 74.5,219.5C 74.5,223.167 74.5,226.833 74.5,230.5C 74.5,233.5 74.5,236.5 74.5,239.5C 71.492,238.58 68.6587,237.246 66,235.5C 65.5017,238.817 65.335,242.15 65.5,245.5C 51.7062,239.103 38.0395,232.436 24.5,225.5C 24.5,215.167 24.5,204.833 24.5,194.5 Z"/></g>
<g><path style="opacity:1" fill="#5a4627" d="M 24.5,225.5 C 38.0395,232.436 51.7062,239.103 65.5,245.5C 65.5,248.833 65.5,252.167 65.5,255.5C 51.7062,249.103 38.0395,242.436 24.5,235.5C 24.5,232.167 24.5,228.833 24.5,225.5 Z"/></g>
<g><path style="opacity:1" fill="#7c653a" d="M 74.5,239.5 C 74.5,243.167 74.5,246.833 74.5,250.5C 74.5,253.833 74.5,257.167 74.5,260.5C 71.3037,259.071 68.3037,257.405 65.5,255.5C 65.5,252.167 65.5,248.833 65.5,245.5C 65.335,242.15 65.5017,238.817 66,235.5C 68.6587,237.246 71.492,238.58 74.5,239.5 Z"/></g>
<g><path style="opacity:1" fill="#7e6a3d" d="M 107.5,236.5 C 110.622,237.561 113.622,238.895 116.5,240.5C 116.82,243.898 116.487,247.232 115.5,250.5C 112.921,249.294 110.421,247.961 108,246.5C 107.502,243.183 107.335,239.85 107.5,236.5 Z"/></g>
<g><path style="opacity:1" fill="#927649" d="M 91.5,228.5 C 97.1511,230.659 102.484,233.326 107.5,236.5C 107.335,239.85 107.502,243.183 108,246.5C 110.421,247.961 112.921,249.294 115.5,250.5C 116.487,247.232 116.82,243.898 116.5,240.5C 119.167,241.833 121.833,243.167 124.5,244.5C 124.177,248.226 124.511,251.893 125.5,255.5C 127.5,256.5 129.5,257.5 131.5,258.5C 132.487,255.232 132.82,251.898 132.5,248.5C 135.378,250.105 138.378,251.439 141.5,252.5C 141.5,259.5 141.5,266.5 141.5,273.5C 130.282,267.974 119.115,262.308 108,256.5C 107.502,259.817 107.335,263.15 107.5,266.5C 102.167,264.167 96.8333,261.833 91.5,259.5C 91.5,259.167 91.5,258.833 91.5,258.5C 91.5,251.833 91.5,245.167 91.5,238.5C 91.5,235.167 91.5,231.833 91.5,228.5 Z"/></g>
<g><path style="opacity:1" fill="#514022" d="M 132.5,238.5 C 135.378,240.105 138.378,241.439 141.5,242.5C 141.5,245.833 141.5,249.167 141.5,252.5C 138.378,251.439 135.378,250.105 132.5,248.5C 132.5,245.167 132.5,241.833 132.5,238.5 Z"/></g>
<g><path style="opacity:1" fill="#3e311a" d="M 166.5,238.5 C 166.5,241.833 166.5,245.167 166.5,248.5C 163.622,250.105 160.622,251.439 157.5,252.5C 157.5,249.167 157.5,245.833 157.5,242.5C 160.622,241.439 163.622,240.105 166.5,238.5 Z"/></g>
<g><path style="opacity:1" fill="#cbcccb" d="M 124.5,244.5 C 127.167,245.833 129.833,247.167 132.5,248.5C 132.82,251.898 132.487,255.232 131.5,258.5C 129.5,257.5 127.5,256.5 125.5,255.5C 124.511,251.893 124.177,248.226 124.5,244.5 Z"/></g>
<g><path style="opacity:1" fill="#6e5938" d="M 207.5,228.5 C 207.5,231.833 207.5,235.167 207.5,238.5C 207.5,241.833 207.5,245.167 207.5,248.5C 204.948,249.693 202.448,251.027 200,252.5C 199.667,249.167 199.333,245.833 199,242.5C 193.912,245.294 188.745,247.961 183.5,250.5C 180.652,260.649 183.152,262.649 191,256.5C 191.498,259.817 191.665,263.15 191.5,266.5C 191.5,266.833 191.5,267.167 191.5,267.5C 185.708,269.896 180.041,272.563 174.5,275.5C 174.82,272.102 174.487,268.768 173.5,265.5C 168.14,268.18 162.807,270.847 157.5,273.5C 157.5,266.5 157.5,259.5 157.5,252.5C 160.622,251.439 163.622,250.105 166.5,248.5C 175.025,244.405 183.358,240.072 191.5,235.5C 196.833,233.167 202.167,230.833 207.5,228.5 Z"/></g>
<g><path style="opacity:1" fill="#151109" d="M 74.5,250.5 C 80.0414,253.437 85.7081,256.104 91.5,258.5C 91.5,258.833 91.5,259.167 91.5,259.5C 91.5,262.5 91.5,265.5 91.5,268.5C 85.7081,266.104 80.0414,263.437 74.5,260.5C 74.5,257.167 74.5,253.833 74.5,250.5 Z"/></g>
<g><path style="opacity:1" fill="#645331" d="M 207.5,248.5 C 207.5,251.833 207.5,255.167 207.5,258.5C 207.5,258.833 207.5,259.167 207.5,259.5C 202.167,261.833 196.833,264.167 191.5,266.5C 191.665,263.15 191.498,259.817 191,256.5C 183.152,262.649 180.652,260.649 183.5,250.5C 188.745,247.961 193.912,245.294 199,242.5C 199.333,245.833 199.667,249.167 200,252.5C 202.448,251.027 204.948,249.693 207.5,248.5 Z"/></g>
<g><path style="opacity:1" fill="#0f0c07" d="M 224.5,250.5 C 224.5,253.833 224.5,257.167 224.5,260.5C 218.959,263.437 213.292,266.104 207.5,268.5C 207.5,265.5 207.5,262.5 207.5,259.5C 207.5,259.167 207.5,258.833 207.5,258.5C 213.292,256.104 218.959,253.437 224.5,250.5 Z"/></g>
<g><path style="opacity:1" fill="#7e6a3d" d="M 141.5,273.5 C 141.5,276.833 141.5,280.167 141.5,283.5C 129.849,278.341 118.516,272.675 107.5,266.5C 107.335,263.15 107.502,259.817 108,256.5C 119.115,262.308 130.282,267.974 141.5,273.5 Z"/></g>
<g><path style="opacity:1" fill="#513f22" d="M 207.5,259.5 C 207.5,262.5 207.5,265.5 207.5,268.5C 202.484,271.674 197.151,274.341 191.5,276.5C 191.5,273.5 191.5,270.5 191.5,267.5C 191.5,267.167 191.5,266.833 191.5,266.5C 196.833,264.167 202.167,261.833 207.5,259.5 Z"/></g>
<g><path style="opacity:1" fill="#60502e" d="M 174.5,275.5 C 168.959,278.437 163.292,281.104 157.5,283.5C 157.5,280.167 157.5,276.833 157.5,273.5C 162.807,270.847 168.14,268.18 173.5,265.5C 174.487,268.768 174.82,272.102 174.5,275.5 Z"/></g>
<g><path style="opacity:1" fill="#3e311a" d="M 191.5,267.5 C 191.5,270.5 191.5,273.5 191.5,276.5C 186.026,279.738 180.36,282.738 174.5,285.5C 174.5,282.167 174.5,278.833 174.5,275.5C 180.041,272.563 185.708,269.896 191.5,267.5 Z"/></g>
<g><path style="opacity:1" fill="#554224" d="M 91.5,259.5 C 96.8333,261.833 102.167,264.167 107.5,266.5C 118.516,272.675 129.849,278.341 141.5,283.5C 141.5,286.833 141.5,290.167 141.5,293.5C 124.516,285.675 107.849,277.341 91.5,268.5C 91.5,265.5 91.5,262.5 91.5,259.5 Z"/></g>
<g><path style="opacity:1" fill="#4c3c20" d="M 174.5,275.5 C 174.5,278.833 174.5,282.167 174.5,285.5C 168.959,288.437 163.292,291.104 157.5,293.5C 157.5,290.167 157.5,286.833 157.5,283.5C 163.292,281.104 168.959,278.437 174.5,275.5 Z"/></g>
</svg>
