<?xml version="1.0" encoding="UTF-8"?>
<!DOCTYPE svg PUBLIC "-//W3C//DTD SVG 1.1//EN" "http://www.w3.org/Graphics/SVG/1.1/DTD/svg11.dtd">
<svg xmlns="http://www.w3.org/2000/svg" version="1.1" width="160px" height="160px" style="shape-rendering:geometricPrecision; text-rendering:geometricPrecision; image-rendering:optimizeQuality; fill-rule:evenodd; clip-rule:evenodd" xmlns:xlink="http://www.w3.org/1999/xlink">
<g><path style="opacity:1" fill="#202120" d="M 99.5,39.5 C 82.8333,39.5 66.1667,39.5 49.5,39.5C 49.5,36.1667 49.5,32.8333 49.5,29.5C 66.1667,29.5 82.8333,29.5 99.5,29.5C 99.5,32.8333 99.5,36.1667 99.5,39.5 Z"/></g>
<g><path style="opacity:1" fill="#202120" d="M 49.5,39.5 C 49.5,42.8333 49.5,46.1667 49.5,49.5C 39.5,49.5 29.5,49.5 19.5,49.5C 19.5,46.1667 19.5,42.8333 19.5,39.5C 29.5,39.5 39.5,39.5 49.5,39.5 Z"/></g>
<g><path style="opacity:1" fill="#414141" d="M 49.5,39.5 C 66.1667,39.5 82.8333,39.5 99.5,39.5C 99.5,42.8333 99.5,46.1667 99.5,49.5C 92.8333,49.5 86.1667,49.5 79.5,49.5C 79.5,52.8333 79.5,56.1667 79.5,59.5C 72.8333,59.5 66.1667,59.5 59.5,59.5C 59.5,62.8333 59.5,66.1667 59.5,69.5C 56.1667,69.5 52.8333,69.5 49.5,69.5C 49.5,72.8333 49.5,76.1667 49.5,79.5C 52.8333,79.5 56.1667,79.5 59.5,79.5C 59.5,82.8333 59.5,86.1667 59.5,89.5C 56.1667,89.5 52.8333,89.5 49.5,89.5C 49.5,92.8333 49.5,96.1667 49.5,99.5C 39.5,99.5 29.5,99.5 19.5,99.5C 19.5,96.1667 19.5,92.8333 19.5,89.5C 16.1667,89.5 12.8333,89.5 9.5,89.5C 9.5,79.5 9.5,69.5 9.5,59.5C 12.8333,59.5 16.1667,59.5 19.5,59.5C 19.5,56.1667 19.5,52.8333 19.5,49.5C 29.5,49.5 39.5,49.5 49.5,49.5C 49.5,46.1667 49.5,42.8333 49.5,39.5 Z"/></g>
<g><path style="opacity:1" fill="#202120" d="M 99.5,39.5 C 109.5,39.5 119.5,39.5 129.5,39.5C 129.5,42.8333 129.5,46.1667 129.5,49.5C 119.5,49.5 109.5,49.5 99.5,49.5C 99.5,46.1667 99.5,42.8333 99.5,39.5 Z"/></g>
<g><path style="opacity:1" fill="#202120" d="M 19.5,49.5 C 19.5,52.8333 19.5,56.1667 19.5,59.5C 16.1667,59.5 12.8333,59.5 9.5,59.5C 9.5,56.1667 9.5,52.8333 9.5,49.5C 12.8333,49.5 16.1667,49.5 19.5,49.5 Z"/></g>
<g><path style="opacity:1" fill="#505150" d="M 99.5,49.5 C 99.5,52.8333 99.5,56.1667 99.5,59.5C 96.1667,59.5 92.8333,59.5 89.5,59.5C 86.1667,59.5 82.8333,59.5 79.5,59.5C 79.5,56.1667 79.5,52.8333 79.5,49.5C 86.1667,49.5 92.8333,49.5 99.5,49.5 Z"/></g>
<g><path style="opacity:1" fill="#414141" d="M 99.5,49.5 C 109.5,49.5 119.5,49.5 129.5,49.5C 129.5,52.8333 129.5,56.1667 129.5,59.5C 132.833,59.5 136.167,59.5 139.5,59.5C 139.5,69.5 139.5,79.5 139.5,89.5C 136.167,89.5 132.833,89.5 129.5,89.5C 129.5,92.8333 129.5,96.1667 129.5,99.5C 119.5,99.5 109.5,99.5 99.5,99.5C 99.5,102.833 99.5,106.167 99.5,109.5C 82.8333,109.5 66.1667,109.5 49.5,109.5C 49.5,106.167 49.5,102.833 49.5,99.5C 56.1667,99.5 62.8333,99.5 69.5,99.5C 69.5,96.1667 69.5,92.8333 69.5,89.5C 76.1667,89.5 82.8333,89.5 89.5,89.5C 89.5,86.1667 89.5,82.8333 89.5,79.5C 92.8333,79.5 96.1667,79.5 99.5,79.5C 99.5,76.1667 99.5,72.8333 99.5,69.5C 96.1667,69.5 92.8333,69.5 89.5,69.5C 89.5,66.1667 89.5,62.8333 89.5,59.5C 92.8333,59.5 96.1667,59.5 99.5,59.5C 99.5,56.1667 99.5,52.8333 99.5,49.5 Z"/></g>
<g><path style="opacity:1" fill="#202120" d="M 129.5,49.5 C 132.833,49.5 136.167,49.5 139.5,49.5C 139.5,52.8333 139.5,56.1667 139.5,59.5C 139.5,56.1667 139.5,52.8333 139.5,49.5C 136.167,49.5 132.833,49.5 129.5,49.5 Z"/></g>
<g><path style="opacity:1" fill="#212121" d="M -0.5,59.5 C 2.83333,59.5 6.16667,59.5 9.5,59.5C 9.5,69.5 9.5,79.5 9.5,89.5C 12.8333,89.5 16.1667,89.5 19.5,89.5C 19.5,92.8333 19.5,96.1667 19.5,99.5C 29.5,99.5 39.5,99.5 49.5,99.5C 49.5,102.833 49.5,106.167 49.5,109.5C 39.5,109.5 29.5,109.5 19.5,109.5C 16.1667,109.5 12.8333,109.5 9.5,109.5C 9.5,106.167 9.5,102.833 9.5,99.5C 6.16667,99.5 2.83333,99.5 -0.5,99.5C -0.5,86.1667 -0.5,72.8333 -0.5,59.5 Z"/></g>
<g><path style="opacity:1" fill="#505150" d="M 49.5,69.5 C 42.8333,69.5 36.1667,69.5 29.5,69.5C 29.5,66.1667 29.5,62.8333 29.5,59.5C 36.1667,59.5 42.8333,59.5 49.5,59.5C 49.5,62.8333 49.5,66.1667 49.5,69.5 Z"/></g>
<g><path style="opacity:1" fill="#fed800" d="M 79.5,59.5 C 82.8333,59.5 86.1667,59.5 89.5,59.5C 89.5,62.8333 89.5,66.1667 89.5,69.5C 86.1667,69.5 82.8333,69.5 79.5,69.5C 76.1667,69.5 72.8333,69.5 69.5,69.5C 69.5,72.8333 69.5,76.1667 69.5,79.5C 66.1667,79.5 62.8333,79.5 59.5,79.5C 56.1667,79.5 52.8333,79.5 49.5,79.5C 49.5,76.1667 49.5,72.8333 49.5,69.5C 52.8333,69.5 56.1667,69.5 59.5,69.5C 59.5,66.1667 59.5,62.8333 59.5,59.5C 66.1667,59.5 72.8333,59.5 79.5,59.5 Z"/></g>
<g><path style="opacity:1" fill="#212121" d="M 139.5,59.5 C 142.833,59.5 146.167,59.5 149.5,59.5C 149.5,72.8333 149.5,86.1667 149.5,99.5C 146.167,99.5 142.833,99.5 139.5,99.5C 139.5,102.833 139.5,106.167 139.5,109.5C 136.167,109.5 132.833,109.5 129.5,109.5C 119.5,109.5 109.5,109.5 99.5,109.5C 99.5,106.167 99.5,102.833 99.5,99.5C 109.5,99.5 119.5,99.5 129.5,99.5C 129.5,96.1667 129.5,92.8333 129.5,89.5C 132.833,89.5 136.167,89.5 139.5,89.5C 139.5,79.5 139.5,69.5 139.5,59.5 Z"/></g>
<g><path style="opacity:1" fill="#252625" d="M 79.5,69.5 C 79.5,72.8333 79.5,76.1667 79.5,79.5C 76.1667,79.5 72.8333,79.5 69.5,79.5C 69.5,76.1667 69.5,72.8333 69.5,69.5C 72.8333,69.5 76.1667,69.5 79.5,69.5 Z"/></g>
<g><path style="opacity:1" fill="#fefffe" d="M 79.5,69.5 C 82.8333,69.5 86.1667,69.5 89.5,69.5C 92.8333,69.5 96.1667,69.5 99.5,69.5C 99.5,72.8333 99.5,76.1667 99.5,79.5C 96.1667,79.5 92.8333,79.5 89.5,79.5C 89.5,82.8333 89.5,86.1667 89.5,89.5C 82.8333,89.5 76.1667,89.5 69.5,89.5C 66.1667,89.5 62.8333,89.5 59.5,89.5C 59.5,86.1667 59.5,82.8333 59.5,79.5C 62.8333,79.5 66.1667,79.5 69.5,79.5C 72.8333,79.5 76.1667,79.5 79.5,79.5C 79.5,76.1667 79.5,72.8333 79.5,69.5 Z"/></g>
<g><path style="opacity:1" fill="#505150" d="M 99.5,79.5 C 106.167,79.5 112.833,79.5 119.5,79.5C 119.5,82.8333 119.5,86.1667 119.5,89.5C 112.833,89.5 106.167,89.5 99.5,89.5C 99.5,86.1667 99.5,82.8333 99.5,79.5 Z"/></g>
<g><path style="opacity:1" fill="#505150" d="M 59.5,89.5 C 62.8333,89.5 66.1667,89.5 69.5,89.5C 69.5,92.8333 69.5,96.1667 69.5,99.5C 62.8333,99.5 56.1667,99.5 49.5,99.5C 49.5,96.1667 49.5,92.8333 49.5,89.5C 52.8333,89.5 56.1667,89.5 59.5,89.5 Z"/></g>
<g><path style="opacity:1" fill="#101110" d="M 19.5,109.5 C 29.5,109.5 39.5,109.5 49.5,109.5C 49.5,112.833 49.5,116.167 49.5,119.5C 39.5,119.5 29.5,119.5 19.5,119.5C 19.5,116.167 19.5,112.833 19.5,109.5 Z"/></g>
<g><path style="opacity:1" fill="#252625" d="M 49.5,109.5 C 66.1667,109.5 82.8333,109.5 99.5,109.5C 99.5,112.833 99.5,116.167 99.5,119.5C 82.8333,119.5 66.1667,119.5 49.5,119.5C 49.5,116.167 49.5,112.833 49.5,109.5 Z"/></g>
<g><path style="opacity:1" fill="#101110" d="M 99.5,109.5 C 109.5,109.5 119.5,109.5 129.5,109.5C 129.5,112.833 129.5,116.167 129.5,119.5C 119.5,119.5 109.5,119.5 99.5,119.5C 99.5,116.167 99.5,112.833 99.5,109.5 Z"/></g>
<g><path style="opacity:1" fill="#101110" d="M 49.5,119.5 C 66.1667,119.5 82.8333,119.5 99.5,119.5C 99.5,122.833 99.5,126.167 99.5,129.5C 82.8333,129.5 66.1667,129.5 49.5,129.5C 49.5,126.167 49.5,122.833 49.5,119.5 Z"/></g>
</svg>
