<svg xmlns="http://www.w3.org/2000/svg" width="800" height="132" shape-rendering="geometricPrecision" text-rendering="geometricPrecision" image-rendering="optimizeQuality" fill-rule="evenodd" clip-rule="evenodd"><path fill="#070707" d="M30.5-.5h41a491.79 491.79 0 0015.5 22 24.36 24.36 0 002.5-5.5 52.204 52.204 0 0010-1.5 51.486 51.486 0 004-15h84c.333 1.333.667 1.333 1 0h42c1.548 6.081 3.881 11.748 7 17a176.164 176.164 0 003-17h466c.333 1.333.667 1.333 1 0h85a433.37 433.37 0 004.5 16c.608 1.566 1.442 2.9 2.5 4v5a143.055 143.055 0 00-16 18.5 4336.558 4336.558 0 0016 49.5v9a637.21 637.21 0 00-30 30h-42a1411.75 1411.75 0 00-14.5-59A269.943 269.943 0 01696.5 95a60.94 60.94 0 01-11 .5c.202 2.49-.298 4.823-1.5 7a7079.415 7079.415 0 01-20.5 29h-84c-.333-1.333-.667-1.333-1 0h-337a173.663 173.663 0 00-7.5-16c-1.961 5.139-2.794 10.472-2.5 16h-127a147.382 147.382 0 00-13-16 305.716 305.716 0 01-13.5-4 130.944 130.944 0 00-5.5 20h-41a687.567 687.567 0 00-32-30v-8a2755.003 2755.003 0 0031-94zm381 61h38v11h-38v-11z" opacity=".963"/><path fill="#464544" d="M193.5 5.5c10.153-.994 20.486-1.328 31-1 .295 2.235-.039 4.235-1 6v-5h-30z"/><path fill="#4a4949" d="M246.5 5.5c10.153-.994 20.486-1.328 31-1 .295 2.235-.039 4.235-1 6v-5h-30z"/><path fill="#868585" d="M471.5 4.5c20.174-.33 40.174.003 60 1h-59v5c-.961-1.765-1.295-3.765-1-6z"/><path fill="#a29f9f" d="M701.5 5.5c-11.052-.643-21.719.024-32 2-.904-.709-1.237-1.709-1-3 11.179-.328 22.179.005 33 1z"/><path fill="#d1d1d1" d="M769.5 4.5v2a404.986 404.986 0 00-28-1c-9.359.002-18.359.668-27 2-.904-.709-1.237-1.709-1-3h56z"/><path fill="#d2d3d3" d="M181.5 6.5h-30c.237 1.291-.096 2.291-1 3v-4c10.514-.328 20.847.006 31 1z"/><path fill="#fdfdfd" d="M361.5 12.5c-.973 2.448-1.306 5.115-1 8a441.612 441.612 0 00-42 1c-.973 2.448-1.306 5.115-1 8v2c-.79 1.108-1.29 2.442-1.5 4a8.43 8.43 0 01-.5-4c-8.683-1.465-18.016-2.132-28-2v-9a89.416 89.416 0 011-15h73v7z"/><path fill="#fcfcfc" d="M373.5 5.5h73v16h-42c-.973 2.448-1.306 5.115-1 8a18.489 18.489 0 00-3.5 2c-8.096-.193-16.763-.193-26 0-.5-8.66-.666-17.327-.5-26z"/><path fill="#fbfbfb" d="M469.5 5.5l2 19c-.005 2.197-.338 4.197-1 6h-11v-25h10z"/><path fill="#fcfcfc" d="M531.5 5.5v3l1 16a24.935 24.935 0 01-.5 7c-7.544-.826-15.377-1.16-23.5-1-2.192.257-3.859 1.257-5 3 .172-.992-.162-1.658-1-2v-10h-12c-.821 3.141-1.321 6.475-1.5 10-3.823-.806-7.49-1.14-11-1-1.393 2.625-2.559 2.625-3.5 0a143.047 143.047 0 01-2-20v-5h59z"/><path fill="#f5f5f5" d="M619.5 24.5a24.935 24.935 0 01-.5 7c-4.086-.274-8.586-.44-13.5-.5a19.588 19.588 0 00-2-3.5 41.541 41.541 0 00-1-8h-14v11h-11a72.033 72.033 0 01-1-11h-14v12c-3.96-.15-7.96-.15-12 0l-4-2c-1.651-8.115-2.651-16.449-3-25h73a180.877 180.877 0 013 20z"/><path fill="#f8f8f8" d="M677.5 16.5v4h-15c-.284 1.915.049 3.581 1 5v2a8.43 8.43 0 01-.5 4c-6.322-.22-12.988-.22-20 0-3.401.169-6.568-.498-9.5-2a321.85 321.85 0 01-5-25c12.684-.332 25.351 0 38 1a28.04 28.04 0 011.5 5c3.186 2.07 6.352 4.07 9.5 6z"/><path fill="#fbfbfb" d="M701.5 5.5c1.031 2.46 1.698 5.127 2 8a51.56 51.56 0 001 7h-23c-.867-5.699-4.2-8.866-10-9.5-1.323-.816-1.989-1.983-2-3.5 10.281-1.976 20.948-2.643 32-2z"/><path fill="#fafafa" d="M769.5 6.5c2.916 5.098 3.249 10.265 1 15.5.07.765.403 1.265 1 1.5v2c-.09 2.652.576 4.985 2 7 .734 1.208 1.067 2.541 1 4v3c-3.937.294-7.77-.04-11.5-1-6.574 2.162-13.074 1.828-19.5-1a35.151 35.151 0 01-2-8c-.095-2.286-.762-4.286-2-6a13.485 13.485 0 00-2.5-6 8.43 8.43 0 00-.5 4h-19a130.44 130.44 0 01-3-14c8.641-1.332 17.641-1.998 27-2 9.408.013 18.741.346 28 1z"/><path fill="#f0f0f0" d="M771.5 4.5h16a165.355 165.355 0 014 17 64.873 64.873 0 01-16-1 5.575 5.575 0 01-1-3 184.127 184.127 0 00-3-13z"/><path fill="#f4f4f4" d="M35.5 5.5a225.874 225.874 0 0130 1 73.134 73.134 0 00-4 13 135.224 135.224 0 01-30 0 56.136 56.136 0 014-14z"/><path fill="#f7f7f7" d="M133.5 34.5c-.904.709-1.237 1.709-1 3-4.599.3-9.099-.033-13.5-1a147.819 147.819 0 00-1.5-16c-3.462-.982-7.129-1.315-11-1v-3l2-11h31a775.46 775.46 0 00-6 29z"/><path fill="#f8f8f8" d="M181.5 6.5a198.375 198.375 0 01-3 17c-5.102-.373-8.769-.04-11 1l10 2a68.314 68.314 0 01-3 14 208.52 208.52 0 00-28-1.5c-1.624-3.206-.958-5.872 2-8-.923-2.04-1.256-4.207-1-6.5v-2c1.424-2.015 2.09-4.348 2-7-.175-2.12.159-4.12 1-6 .904-.709 1.237-1.709 1-3h30z"/><path fill="#f9f9f9" d="M246.5 5.5h30v5a29.23 29.23 0 00-1 9c-.904.709-1.237 1.709-1 3h-11a130.867 130.867 0 00-19-3c.45-4.702 1.117-9.368 2-14z"/><path fill="#353434" d="M769.5 4.5h2a184.127 184.127 0 013 13l-3 6c-.597-.235-.93-.735-1-1.5 2.249-5.235 1.916-10.402-1-15.5v-2z"/><path fill="#969595" d="M531.5 8.5c1.457 5.098 2.124 10.431 2 16h-1l-1-16z"/><path fill="#acabab" d="M106.5 16.5v3c3.871-.315 7.538.018 11 1h-12c-.268-1.599.066-2.932 1-4z"/><path fill="#c4c4c4" d="M361.5 12.5v9h-43a441.612 441.612 0 0142-1c-.306-2.885.027-5.552 1-8z"/><path fill="#0c0d0d" d="M603.5 27.5v3h-13v6h7c-.237 1.291.096 2.291 1 3a76.324 76.324 0 012 14h-8v-6h-12v6h-8a83.394 83.394 0 00-2-18h6v-4h-13c.284-1.915-.049-3.581-1-5v-7h14a72.033 72.033 0 001 11h11v-11h14a41.541 41.541 0 011 8z"/><path fill="#bebdbd" d="M677.5 16.5c.951 1.419 1.284 3.085 1 5h-15v4c-.951-1.419-1.284-3.085-1-5h15v-4z"/><path fill="#c1c1c0" d="M703.5 13.5c1.54 2.338 2.206 5.005 2 8-8.184.326-16.184-.008-24-1h23a51.56 51.56 0 01-1-7z"/><path fill="#595958" d="M30.5 22.5a420.863 420.863 0 0141-1c.206 2.995-.46 5.662-2 8a51.639 51.639 0 011-7h-40z"/><path fill="#8e8d8d" d="M149.5 15.5c.09 2.652-.576 4.985-2 7-.09-2.652.576-4.985 2-7z"/><path fill="#787777" d="M222.5 19.5c-3.141.821-6.475 1.321-10 1.5 3.195.18 6.195.68 9 1.5a50.442 50.442 0 01-10-.5 3.647 3.647 0 01-1-1.5 36.872 36.872 0 0112-1z"/><path fill="#272727" d="M318.5 21.5h43a462.834 462.834 0 01-43 1c.302 2.56-.032 4.893-1 7-.306-2.885.027-5.552 1-8z"/><path fill="#2a2a2a" d="M404.5 21.5h35c-11.154.995-22.488 1.328-34 1 .321 5.526-.012 10.86-1 16v-17z"/><path fill="#070808" d="M490.5 21.5h12v18h-11c.31-3.213-.023-6.213-1-9v-9z"/><path fill="#7b7b7a" d="M275.5 19.5v4a8.435 8.435 0 00-4 .5c1.237.232 2.237.732 3 1.5a120.443 120.443 0 01-14-2c1.291.237 2.291-.096 3-1h11c-.237-1.291.096-2.291 1-3z"/><path fill="#7e7e7e" d="M167.5 24.5a31.12 31.12 0 0111 1c-.124.607-.457.94-1 1l-10-2z"/><path fill="#232323" d="M469.5 4.5h2c-.295 2.235.039 4.235 1 6 .198 6.718.865 13.385 2 20-.203 1.89.463 3.39 2 4.5 3.569.39 6.903 1.39 10 3-4 .667-8 .667-12 0a13.923 13.923 0 01-3-4 40.939 40.939 0 00-9-.5l1-2c2.559.302 4.893-.032 7-1 .662-1.803.995-3.803 1-6l-2-19v-1z"/><path fill="#70706f" d="M739.5 23.5c1.238 1.714 1.905 3.714 2 6-1.574-1.602-2.241-3.602-2-6z"/><path fill="#9c9c9c" d="M771.5 25.5c1.424 2.015 2.09 4.348 2 7-1.424-2.015-2.09-4.348-2-7z"/><path fill="#5a5958" d="M286.5 30.5a64.873 64.873 0 0116 1c-.124.607-.457.94-1 1l-15-2z"/><path fill="#acabab" d="M404.5 21.5v17c-1.599.268-2.932-.066-4-1h3v-8c-.306-2.885.027-5.552 1-8z"/><path fill="#989897" d="M469.5 4.5v1h-10v25h11c-2.107.968-4.441 1.302-7 1h-5v-27h11z"/><path fill="#9f9e9e" d="M28.5 28.5c.154 3.216-.846 5.883-3 8 .629-2.897 1.629-5.564 3-8z"/><path fill="#f0efef" d="M104.5 22.5c3.937-.294 7.77.04 11.5 1 2.745 11.921-1.921 16.588-14 14-4.229-.01-8.062-.677-11.5-2a183.647 183.647 0 003-13h11z"/><path fill="#5c5c5b" d="M274.5 29.5c-.114 7.26-1.114 14.26-3 21v-4a170.68 170.68 0 013-17z"/><path fill="#4e4e4d" d="M395.5 37.5v1a50.022 50.022 0 01-16-3.5c5.595-.244 10.928.59 16 2.5z"/><path fill="#1e1e1d" d="M105.5 20.5h12a147.819 147.819 0 011.5 16c4.401.967 8.901 1.3 13.5 1-.237-1.291.096-2.291 1-3v4c-1.599-.268-2.932.066-4 1h-40c-.268-1.599.066-2.932 1-4 3.438 1.323 7.271 1.99 11.5 2 12.079 2.588 16.745-2.079 14-14-3.73-.96-7.563-1.294-11.5-1l1-2z"/><path fill="#f3f3f3" d="M193.5 5.5h30v5c-.903 2.892-1.236 5.892-1 9a36.872 36.872 0 00-12 1 3.647 3.647 0 001 1.5c3.317.498 6.65.665 10 .5h10a124.797 124.797 0 01-2 18h12a247.844 247.844 0 002-18c5.681.135 11.348.468 17 1 4.495.922 9.162 1.589 14 2v4a170.68 170.68 0 00-3 17c-5.591 1.287-11.425 1.954-17.5 2a762.242 762.242 0 00-64.5-.5c-1.791-2.106-2.458-4.606-2-7.5a432.868 432.868 0 016-35z"/><path fill="#898887" d="M534.5 38.5c-3.619.381-6.952 1.381-10 3-.904-.709-1.237-1.709-1-3h11z"/><path fill="#efefef" d="M663.5 27.5c1.418 3.787 2.418 7.787 3 12a148.48 148.48 0 0123 3v1c.285 1.788-.048 3.455-1 5-14.058-.256-28.058-.59-42-1-3.321.76-6.654 1.426-10 2a209.721 209.721 0 01-3-20c2.932 1.502 6.099 2.169 9.5 2 7.012-.22 13.678-.22 20 0a8.43 8.43 0 00.5-4z"/><path fill="#e8e8e8" d="M743.5 37.5c6.426 2.828 12.926 3.162 19.5 1 3.73.96 7.563 1.294 11.5 1a43.363 43.363 0 003 7c.223 3.662 1.223 6.995 3 10 .958 1.802 1.625 3.802 2 6a51.56 51.56 0 001 7h-24a41.58 41.58 0 00-8-1 652.04 652.04 0 00-8-31z"/><path fill="#ededed" d="M30.5 22.5h40a51.639 51.639 0 00-1 7 34.532 34.532 0 00-3 11c7.852.325 15.518-.008 23-1h40c.876-.13 1.543.203 2 1-1.175 6.252-2.842 12.252-5 18-10.614-2.336-21.447-2.669-32.5-1-.945-.405-1.612-1.072-2-2-2.51.147-5.177.813-8 2a174.744 174.744 0 00-32.5 0c-10.107-1.305-20.107-1.639-30-1 .204-3.018.537-6.018 1-9a71.89 71.89 0 013-11c2.154-2.117 3.154-4.784 3-8 .095-2.286.762-4.286 2-6z"/><path fill="#eaeaea" d="M147.5 24.5c-.256 2.293.077 4.46 1 6.5-2.958 2.128-3.624 4.794-2 8a208.52 208.52 0 0128 1.5c-.398 4.912-1.398 9.578-3 14-4.92 1.28-10.087 1.947-15.5 2-5.012 0-9.845-.334-14.5-1v-4c1.242-9.288 3.242-18.288 6-27z"/><path fill="#a4a4a4" d="M666.5 39.5h23v3a148.48 148.48 0 00-23-3z"/><path fill="#a5a5a5" d="M691.5 40.5v-1c6.755-.623 13.088.044 19 2a96.254 96.254 0 00-19-1z"/><path fill="#9b9b9a" d="M774.5 36.5c1.777 3.005 2.777 6.338 3 10a43.363 43.363 0 01-3-7v-3z"/><path fill="#e7e7e7" d="M619.5 24.5c2.822 11.057 4.822 22.39 6 34v8c-24.575-.328-49.075.006-73.5 1-.278-.916-.778-1.582-1.5-2a331.619 331.619 0 01-4-36l4 2c4.04-.15 8.04-.15 12 0v-5c.951 1.419 1.284 3.085 1 5h13v4h-6a83.394 83.394 0 012 18h8v-6h12v6h8a76.324 76.324 0 00-2-14c-.904-.709-1.237-1.709-1-3h-7v-6h13v-3a19.588 19.588 0 012 3.5c4.914.06 9.414.226 13.5.5.497-2.31.663-4.643.5-7z"/><path fill="#4d4d4c" d="M603.5 30.5c-3.798.983-7.798 1.317-12 1v4h7v0h-7v-4c4.202.317 8.202-.017 12-1z"/><path fill="#e9e9e9" d="M287.5 20.5v9c9.984-.132 19.317.535 28 2a8.43 8.43 0 00.5 4c.21-1.558.71-2.892 1.5-4v9h20a98.433 98.433 0 00.5 14c1.437-4.472 1.937-9.139 1.5-14h20v17c-24.115.27-47.948-.397-71.5-2l-3 2a50.464 50.464 0 01-.5-10 68.206 68.206 0 011-14c5.395.233 10.728-.1 16-1 .543-.06.876-.393 1-1a64.873 64.873 0 00-16-1c-.313-3.542.021-6.875 1-10z"/><path fill="#ebebeb" d="M490.5 21.5v19h13v-7c1.141-1.743 2.808-2.743 5-3 8.123-.16 15.956.174 23.5 1 .497-2.31.663-4.643.5-7h1c.169 4.681.502 9.348 1 14h-11c-.237 1.291.096 2.291 1 3v4a60.94 60.94 0 00-11 .5 77.629 77.629 0 0112 3.5c3.125.98 6.458 1.313 10 1a24.935 24.935 0 01-.5 7 931.036 931.036 0 01-71.5-1.5c-1.397-1.31-2.397-2.81-3-4.5a114.266 114.266 0 01-1-18h3a40.939 40.939 0 019 .5 13.923 13.923 0 003 4c4 .667 8 .667 12 0-3.097-1.61-6.431-2.61-10-3-1.537-1.11-2.203-2.61-2-4.5.941 2.625 2.107 2.625 3.5 0 3.51-.14 7.177.194 11 1 .179-3.525.679-6.859 1.5-10z"/><path fill="#494847" d="M490.5 30.5c.977 2.787 1.31 5.787 1 9h11v-8c.838.342 1.172 1.008 1 2v7h-13v-10z"/><path fill="#e5e5e5" d="M691.5 40.5a96.254 96.254 0 0119 1c2.079 5.373 3.412 11.04 4 17h-20a214.21 214.21 0 01-3-18z"/><path fill="#929191" d="M777.5 46.5c1.777 3.005 2.777 6.338 3 10-1.777-3.005-2.777-6.338-3-10z"/><path fill="#3b3b3a" d="M372.5 39.5v13c7.801.206 7.801.872 0 2h-1c-.321-5.195.013-10.195 1-15z"/><path fill="#e1e1e1" d="M187.5 40.5c-.458 2.894.209 5.394 2 7.5a762.242 762.242 0 0164.5.5c6.075-.046 11.909-.713 17.5-2v4a61.26 61.26 0 00-1 13c-1.389 4.769-2.056 9.769-2 15l-1 6c-2.658-.654-5.491-.654-8.5 0 .427-5.16.26-10.16-.5-15-1.599-2.229-3.599-2.562-6-1h-15c-3.125-.98-6.458-1.313-10-1v-6a59.505 59.505 0 012-13 36.872 36.872 0 00-12 1 80.124 80.124 0 00-3 20h-4a283.89 283.89 0 00-24-1.5c-1.937-.122-3.27-.955-4-2.5 1.03-8.592 2.696-16.925 5-25z"/><path fill="#e2e1e1" d="M689.5 43.5h1c.175 4.04.342 8.04.5 12-1.31 1.397-2.81 2.397-4.5 3a64.873 64.873 0 00-16 1 9.107 9.107 0 011 5c.095 3.725.262 7.391.5 11-8.631-.766-17.464-.766-26.5 0-1.66-.672-2.993-1.672-4-3a362.971 362.971 0 01-5-23c3.346-.574 6.679-1.24 10-2 13.942.41 27.942.744 42 1 .952-1.545 1.285-3.212 1-5z"/><path fill="#dedede" d="M22.5 47.5a104.613 104.613 0 00-1 9c9.893-.639 19.893-.305 30 1a174.744 174.744 0 0132.5 0c2.823-1.187 5.49-1.853 8-2 .388.928 1.055 1.595 2 2 11.053-1.669 21.886-1.336 32.5 1-.049 3.578-.715 6.912-2 10-9.74-1.936-19.74-2.603-30-2 .758-2.852.758-5.519 0-8h-12a430.91 430.91 0 01-4 18c-7.008.166-14.008 0-21-.5 1.367-2.302 2.034-4.802 2-7.5a81.912 81.912 0 012-10h-12c-1.33 5.66-2.664 11.327-4 17-5.676.166-11.343 0-17-.5-.766-3.418-.766-6.918 0-10.5a49.391 49.391 0 01-11-1c.89-5.666 2.557-11 5-16z"/><path fill="#e2e2e2" d="M373.5 5.5c-.166 8.673 0 17.34.5 26 9.237-.193 17.904-.193 26 0a18.489 18.489 0 013.5-2v8h-8c-5.072-1.91-10.405-2.744-16-2.5a50.022 50.022 0 0016 3.5c3.149-.085 5.816.915 8 3v23c-.823 3.477-1.323 7.144-1.5 11-9.372-1.051-18.872-1.051-28.5 0a111.15 111.15 0 01-1-21c7.801-1.128 7.801-1.794 0-2v-13c-.328-11.512.005-22.846 1-34z"/><path fill="#dfdfdf" d="M525.5 49.5h11c.61 6.315.943 12.649 1 19a32.462 32.462 0 01-.5 8l-1-2c-2.699-.201-5.532.132-8.5 1a11.392 11.392 0 01-2-2.5c-6.325-.5-12.658-.666-19-.5.237-1.291-.096-2.291-1-3v-11h-13v8a237.166 237.166 0 00-30.5 1c-.179-3.525-.679-6.859-1.5-10v-6c.603 1.69 1.603 3.19 3 4.5a931.036 931.036 0 0071.5 1.5c.497-2.31.663-4.643.5-7-3.542.313-6.875-.02-10-1z"/><path fill="#868585" d="M141.5 51.5v4l-2 3c-.09-2.652.576-4.986 2-7z"/><path fill="#2e2e2e" d="M691.5 39.5v1a214.21 214.21 0 003 18h-8c1.69-.603 3.19-1.603 4.5-3-.158-3.96-.325-7.96-.5-12-.268-1.599.066-2.932 1-4z"/><path fill="#0d0e0e" d="M94.5 58.5c-3 12.672-6 25.338-9 38-.824-3.812-1.324-7.812-1.5-12a336.627 336.627 0 00-5.5-7v-1a430.91 430.91 0 004-18h12z"/><path fill="#ddd" d="M171.5 54.5a187.453 187.453 0 01-4 23 44.293 44.293 0 01-2-3c-9.12.099-17.953.432-26.5 1-1.319-1.75-1.819-3.75-1.5-6a63.32 63.32 0 012-11l2-3c4.655.666 9.488 1 14.5 1 5.413-.053 10.58-.72 15.5-2z"/><path fill="#d9d9d9" d="M284.5 47.5c-.165 3.35.002 6.683.5 10l3-2c23.552 1.603 47.385 2.27 71.5 2a506.865 506.865 0 01-45 1v12c-.951 1.419-1.284 3.085-1 5-9.414-.724-20.081-.724-32 0v-2c1.531-4.75 2.198-9.75 2-15-.315-3.871.018-7.538 1-11z"/><path fill="#ccc" d="M460.5 57.5c.821 3.141 1.321 6.475 1.5 10a237.166 237.166 0 0130.5-1 217.114 217.114 0 01-21 1.5l-1.5 1.5-1 18c-1.366 3.796-3.2 7.13-5.5 10-1.919-12.961-2.919-26.295-3-40z"/><path fill="#616060" d="M227.5 61.5v6c3.542-.313 6.875.02 10 1h-11c-.302-2.56.032-4.893 1-7z"/><path fill="#515151" d="M182.5 65.5c.73 1.545 2.063 2.378 4 2.5 8.177.17 16.177.67 24 1.5-4.202-.317-8.202.017-12 1h-17c-.284-1.915.049-3.581 1-5z"/><path fill="#1f1f1f" d="M258.5 69.5a237.942 237.942 0 01-2 20c-.961-1.765-1.295-3.765-1-6 .811-4.506.811-8.84 0-13l-3-2c2.401-1.562 4.401-1.229 6 1z"/><path fill="#696969" d="M243.5 68.5h9l3 2h-15l3-2z"/><path fill="#5a5958" d="M782.5 62.5c1.54 2.338 2.206 5.005 2 8-8.517.326-16.85-.007-25-1h24a51.56 51.56 0 01-1-7z"/><path fill="#979695" d="M283.5 58.5c.198 5.25-.469 10.25-2 15-.056-5.231.611-10.231 2-15z"/><path fill="#cfcfcf" d="M671.5 64.5a1080.063 1080.063 0 017 31c-.247 1.213-.914 1.88-2 2h-30c-1.149-.291-1.816-1.124-2-2.5a433.162 433.162 0 01-3-22.5c1.007 1.328 2.34 2.328 4 3 9.036-.766 17.869-.766 26.5 0a272.886 272.886 0 01-.5-11z"/><path fill="#d1d1d1" d="M94.5 58.5c.758 2.481.758 5.148 0 8 10.26-.603 20.26.064 30 2a307.14 307.14 0 01-7 29 119.774 119.774 0 01-30 0h-2v-1c3-12.662 6-25.328 9-38z"/><path fill="#cfcfcf" d="M137.5 69.5c-.319 2.25.181 4.25 1.5 6 8.547-.568 17.38-.901 26.5-1a44.293 44.293 0 002 3 212.755 212.755 0 00-3 18c-1.034 1.187-2.367 2.02-4 2.5-4.694.564-9.36.397-14-.5.256-4.362.423-8.695.5-13-2.174 4.046-3.007 8.38-2.5 13h-13c.941-9.677 2.941-19.01 6-28z"/><path fill="#d0cfcf" d="M371.5 54.5h1a111.15 111.15 0 001 21c9.628-1.051 19.128-1.051 28.5 0 .177-3.856.677-7.523 1.5-11v14h45c.323 6.522-.01 12.855-1 19h-13a50.748 50.748 0 00-2-14 155.955 155.955 0 01-1 14h-31c.17-1.322-.163-2.489-1-3.5-3.858-.81-7.524-.643-11 .5-1.495-.085-2.495.582-3 2a49.874 49.874 0 01-14 1c-.241-14.15-.241-28.484 0-43z"/><path fill="#d6d6d6" d="M472.5 81.5c-1.282-3.436-1.282-6.77 0-10a113.233 113.233 0 0120-1v13c-5.73-.26-11.23-.592-16.5-1-1.733 2.458-2.9 2.125-3.5-1z"/><path fill="#cecece" d="M537.5 68.5a588.83 588.83 0 013 24c-.007 1.87-.34 3.536-1 5h-19c-.333-4-.667-4-1 0h-11c-1.116-7.146-1.783-14.48-2-22a81.87 81.87 0 0018-1 91.123 91.123 0 00-19-1v-4c.904.709 1.237 1.709 1 3 6.342-.166 12.675 0 19 .5a11.392 11.392 0 002 2.5c2.968-.868 5.801-1.201 8.5-1l1 2c.497-2.646.664-5.313.5-8z"/><path fill="#d4d4d4" d="M625.5 58.5c1.575 5.774 2.575 11.774 3 18a964.725 964.725 0 00-33-2c.256-2.293-.077-4.46-1-6.5a72.442 72.442 0 00-12-.5 312.07 312.07 0 004 26.5c-.108 1.681-.775 2.848-2 3.5h-13c-.333-4-.667-4-1 0h-16c-1.675-3.007-2.341-6.34-2-10 .056-5.231-.611-10.231-2-15v-7c.722.418 1.222 1.084 1.5 2a1360.562 1360.562 0 0173.5-1v-8z"/><path fill="#a4a3a3" d="M59.5 68.5c.034 2.698-.633 5.198-2 7.5 6.992.5 13.992.666 21 .5v1h-21c-.597-.235-.93-.735-1-1.5.733-2.72 1.733-5.22 3-7.5z"/><path fill="#949393" d="M27.5 78.5c5.513-1.316 11.18-1.316 17 0-.124.607-.457.94-1 1-5.14-.988-10.474-1.321-16-1z"/><path fill="#505050" d="M270.5 63.5c.056 5.231-.611 10.231-2 15-.056-5.231.611-10.231 2-15z"/><path fill="#3a3a3a" d="M314.5 70.5v7c11.845-.328 23.512.005 35 1h-36v-3c-.284-1.915.049-3.581 1-5z"/><path fill="#3b3b3b" d="M403.5 41.5c.995 11.822 1.328 23.822 1 36 14.843-.33 29.51.004 44 1h-45v-14-23z"/><path fill="#c6c5c5" d="M27.5 78.5c5.526-.321 10.86.012 16 1l-2 8c-5.344.166-10.677 0-16-.5-2.876-3.663-2.21-6.496 2-8.5z"/><path fill="#272628" d="M57.5 77.5h21a336.627 336.627 0 015.5 7c.176 4.188.676 8.188 1.5 12v1c-.543.06-.876.393-1 1 1.893 2.452 3.226 5.119 4 8-2.49.202-4.823-.298-7-1.5a194.535 194.535 0 00-11-12.5 20.216 20.216 0 016-1.5 42.707 42.707 0 01-9-1.5 83.387 83.387 0 01-10-12z"/><path fill="#545353" d="M550.5 72.5c1.389 4.769 2.056 9.769 2 15-1.389-4.769-2.056-9.769-2-15z"/><path fill="#c5c5c5" d="M39.5 94.5c-.904.709-1.237 1.709-1 3a163.306 163.306 0 01-29 .5c-1.237-.232-2.237-.732-3-1.5a822.922 822.922 0 009-31c3.277-.284 6.443.05 9.5 1-.54 6.477-2.04 12.81-4.5 19a4.938 4.938 0 001 2.5c6.325.5 12.658.666 19 .5a19.242 19.242 0 01-1 6z"/><path fill="#cdcdcd" d="M181.5 70.5h17a72.442 72.442 0 0112 .5c.916.374 1.75.874 2.5 1.5-.608 8.565-2.108 16.898-4.5 25h-16c.242-3.181.242-6.181 0-9-1.764 2.715-2.764 5.715-3 9h-11c-1.149-.291-1.816-1.124-2-2.5a432.377 432.377 0 015-24.5z"/><path fill="#cfcfcf" d="M240.5 70.5h15c.811 4.16.811 8.494 0 13-1.604 4.4-2.271 9.066-2 14h-19a89.416 89.416 0 001-15 33.725 33.725 0 011.5-11c1.011-.837 2.178-1.17 3.5-1z"/><path fill="#c4c4c4" d="M258.5 69.5c.76 4.84.927 9.84.5 15 3.009-.654 5.842-.654 8.5 0 .062 4.576-.605 8.91-2 13h-9v-8a237.942 237.942 0 002-20z"/><path fill="#cacaca" d="M293.5 97.5h-13c-1.05-6.174-1.05-12.507 0-19a60.94 60.94 0 0111 .5l1.5 1.5a145.05 145.05 0 01.5 17z"/><path fill="#cfcece" d="M313.5 75.5v3h36c-.061 2.092-1.061 3.592-3 4.5l-11 1c-.752.67-1.086 1.504-1 2.5-.982 3.462-1.315 7.129-1 11h-37a177.568 177.568 0 01-1.5-19l-1.5-1.5c-4.188-.176-8.188-.676-12-1.5 11.919-.724 22.586-.724 32 0z"/><path fill="#c8c8c8" d="M356.5 97.5h-20v-10c.111-.617.444-1.117 1-1.5l11-1c2.419-1.509 3.419-3.675 3-6.5h7c.623 6.755-.044 13.088-2 19z"/><path fill="#cdcdcd" d="M630.5 97.5h-30c-.667 0-1-.333-1-1-.601-5.862-1.601-11.529-3-17v-3a306.918 306.918 0 0133 3l3 16c-.247 1.213-.914 1.88-2 2z"/><path fill="#ccc" d="M790.5 97.5h-30a180.523 180.523 0 01-7-25 183.924 183.924 0 0132-.5l7 23c-.184 1.376-.851 2.209-2 2.5z"/><path fill="#3a3a3a" d="M596.5 79.5c1.399 5.471 2.399 11.138 3 17-.722-.418-1.222-1.084-1.5-2a91.734 91.734 0 01-1.5-15z"/><path fill="#4e4d4d" d="M255.5 83.5c-.295 2.235.039 4.235 1 6v8c-.814-2.131-1.314-4.464-1.5-7-.186 2.536-.686 4.869-1.5 7-.271-4.934.396-9.6 2-14z"/><path fill="#959494" d="M235.5 82.5a89.416 89.416 0 01-1 15c-.652-.949-.986-2.115-1-3.5.392-4.022 1.058-7.856 2-11.5z"/><path fill="#c8c8c8" d="M493.5 69.5c.981 9.497.981 18.83 0 28h-26c.28-3.227 1.613-5.893 4-8a16.874 16.874 0 001-8c.6 3.125 1.767 3.458 3.5 1 5.27.408 10.77.74 16.5 1v-13a113.233 113.233 0 00-20 1c.111-.617.444-1.117 1-1.5 6.658-.5 13.325-.666 20-.5z"/><path fill="#101010" d="M400.5 97.5c.117 1.984-.55 3.65-2 5l-8-2.5c-1.361-1.584-2.028-3.418-2-5.5 3.476-1.143 7.142-1.31 11-.5.837 1.011 1.17 2.178 1 3.5z"/><path fill="#29282a" d="M388.5 94.5c-.028 2.082.639 3.916 2 5.5l8 2.5c1.45-1.35 2.117-3.016 2-5h31a179.733 179.733 0 01-3 28c-18.012.333-36.012 0-54-1-2.02-2.099-2.354-4.433-1-7 9.393-2.404 9.06-3.404-1-3a124.865 124.865 0 01-1-17c4.714.327 9.38-.007 14-1 .505-1.418 1.505-2.085 3-2z"/><path fill="#282729" d="M492.5 61.5c.973 2.448 1.306 5.115 1 8-6.675-.166-13.342 0-20 .5-.556.383-.889.883-1 1.5-1.282 3.23-1.282 6.564 0 10a16.874 16.874 0 01-1 8c-2.387 2.107-3.72 4.773-4 8h26a55.876 55.876 0 01-4 19 199.75 199.75 0 01-30 0c.176-6.633 1.51-12.966 4-19 2.3-2.87 4.134-6.204 5.5-10l1-18 1.5-1.5a217.114 217.114 0 0021-1.5v-5zM539.5 97.5a28.789 28.789 0 01-2 10c-10.584-.841-11.25.492-2 4l-4 11-3 2.5c-8.333.667-16.667.667-25 0-.5-9.512 1.166-18.678 5-27.5h11c.333-4 .667-4 1 0h19zM584.5 97.5a58.353 58.353 0 01-4 14c-11.531-.164-12.198 1.003-2 3.5-1.607 3.896-3.941 7.229-7 10-8.667.667-17.333.667-26 0-1.054-1.388-1.22-2.888-.5-4.5a138.103 138.103 0 019.5-23h16c.333-4 .667-4 1 0h13zM760.5 97.5h30c-7.029 8.537-14.696 16.704-23 24.5l-6 3c-7.993.5-15.993.666-24 .5-.009-1.808.491-3.475 1.5-5a46.607 46.607 0 005.5-6 166.033 166.033 0 0118-2.5 131.28 131.28 0 01-12-3.5c2.674-4.337 6.007-8.004 10-11z"/><path fill="#272628" d="M39.5 94.5c-.16 1.7.007 3.366.5 5l9.5 9.5a43.088 43.088 0 00-9 2 98.2 98.2 0 0013 2.5 108.018 108.018 0 008.5 9c.483.948.65 1.948.5 3-9.006.166-18.006 0-27-.5-10.617-9.458-20.284-18.958-29-28.5.763.768 1.763 1.268 3 1.5 9.69.693 19.356.527 29-.5-.237-1.291.096-2.291 1-3zM87.5 97.5a119.774 119.774 0 0030 0 3391.91 3391.91 0 0117 22 46.081 46.081 0 01-14 2.5 469.344 469.344 0 0016 3l-13.5.5a65.046 65.046 0 01-15.5-1.5L88 100.5a4.932 4.932 0 01-.5-3zM164.5 95.5c-.16 1.7.006 3.366.5 5a112.448 112.448 0 0114.5 25 147.951 147.951 0 01-29-1.5 413.964 413.964 0 01-19-26.5h13c-.507-4.62.326-8.954 2.5-13a319.343 319.343 0 01-.5 13 45.013 45.013 0 0014 .5c1.633-.48 2.966-1.313 4-2.5z"/><path fill="#282729" d="M208.5 97.5c5.074 7.81 9.407 16.143 13 25a4.933 4.933 0 01-1 2.5l-12.5.5a57.344 57.344 0 01-14.5-1.5c-6.457-8.088-11.457-16.921-15-26.5h11c.236-3.285 1.236-6.285 3-9 .242 2.819.242 5.819 0 9h16z"/><path fill="#272628" d="M256.5 97.5h9c4.093 7.929 7.426 16.262 10 25a4.933 4.933 0 01-1 2.5c-9 .667-18 .667-27 0-4.29-3.807-3.623-6.473 2-8a34.041 34.041 0 01-7.5-1.5c-3.075-5.729-5.242-11.729-6.5-18h18c.814-2.131 1.314-4.464 1.5-7 .186 2.536.686 4.869 1.5 7z"/><path fill="#29282a" d="M334.5 86.5a84.9 84.9 0 00.5 13c.176-4.188.676-8.188 1.5-12v10h20c1.634 3.77 2.634 7.77 3 12-17.009 1.641-16.675 2.974 1 4a50.464 50.464 0 01-.5 10l-1.5 1.5a1121.94 1121.94 0 01-67 0 9.454 9.454 0 01-2.5-1.5 96.996 96.996 0 01-8.5-26h13a82.933 82.933 0 005 17l1-1.5a77.733 77.733 0 01-3-15.5h37c-.315-3.871.018-7.538 1-11zM434.5 97.5h13c.506 8.317.006 16.651-1.5 25l-2.5 2.5a72.367 72.367 0 01-12 .5 364.79 364.79 0 013-28z"/><path fill="#282729" d="M600.5 97.5h30a8.43 8.43 0 01-.5 4 368.683 368.683 0 01-13.5 22l-3 1.5c-8.333.667-16.667.667-25 0a4.933 4.933 0 01-1-2.5c3.578-8.827 7.912-17.16 13-25z"/><path fill="#292829" d="M646.5 97.5h30a4.934 4.934 0 01-.5 3 137.896 137.896 0 00-9 13 82.404 82.404 0 01-10.5 11.5c-8.667.667-17.333.667-26 0a3.647 3.647 0 01-1-1.5c1.8-3.629 3.8-7.129 6-10.5-2.023-3.183-2.523-6.683-1.5-10.5 2.003 3 2.836 6.333 2.5 10 5.676.166 11.343-.001 17-.5a156.825 156.825 0 01-15-3.5c1.954-4.266 4.621-7.933 8-11z"/><path fill="#29282a" d="M459.5 118.5l30 1c.048 2.792-1.285 4.625-4 5.5-8.333.667-16.667.667-25 0-.923-2.041-1.256-4.208-1-6.5z"/></svg>