<?xml version="1.0" encoding="UTF-8"?>
<!DOCTYPE svg PUBLIC "-//W3C//DTD SVG 1.1//EN" "http://www.w3.org/Graphics/SVG/1.1/DTD/svg11.dtd">
<svg xmlns="http://www.w3.org/2000/svg" version="1.1" width="800px" height="132px" style="shape-rendering:geometricPrecision; text-rendering:geometricPrecision; image-rendering:optimizeQuality; fill-rule:evenodd; clip-rule:evenodd" xmlns:xlink="http://www.w3.org/1999/xlink">
<g><path style="opacity:0.963" fill="#070707" d="M 30.5,-0.5 C 44.1667,-0.5 57.8333,-0.5 71.5,-0.5C 76.4555,6.95988 81.6222,14.2932 87,21.5C 88.0569,19.7806 88.8903,17.9472 89.5,16C 92.8818,15.8236 96.2152,15.3236 99.5,14.5C 101.594,9.69332 102.927,4.69332 103.5,-0.5C 131.5,-0.5 159.5,-0.5 187.5,-0.5C 187.833,0.833333 188.167,0.833333 188.5,-0.5C 202.5,-0.5 216.5,-0.5 230.5,-0.5C 232.048,5.58149 234.381,11.2482 237.5,16.5C 238.779,10.8756 239.779,5.20898 240.5,-0.5C 395.833,-0.5 551.167,-0.5 706.5,-0.5C 706.833,0.833333 707.167,0.833333 707.5,-0.5C 735.833,-0.5 764.167,-0.5 792.5,-0.5C 793.897,4.85953 795.397,10.1929 797,15.5C 797.608,17.0664 798.442,18.3998 799.5,19.5C 799.5,21.1667 799.5,22.8333 799.5,24.5C 793.687,30.1537 788.354,36.3203 783.5,43C 788.757,59.6015 794.09,76.1015 799.5,92.5C 799.5,95.5 799.5,98.5 799.5,101.5C 789.167,111.167 779.167,121.167 769.5,131.5C 755.5,131.5 741.5,131.5 727.5,131.5C 723.096,111.753 718.262,92.0859 713,72.5C 707.895,80.2747 702.395,87.7747 696.5,95C 692.848,95.4986 689.182,95.6653 685.5,95.5C 685.702,97.9892 685.202,100.323 684,102.5C 677.135,112.263 670.302,121.929 663.5,131.5C 635.5,131.5 607.5,131.5 579.5,131.5C 579.167,130.167 578.833,130.167 578.5,131.5C 466.167,131.5 353.833,131.5 241.5,131.5C 239.285,126.068 236.785,120.735 234,115.5C 232.039,120.639 231.206,125.972 231.5,131.5C 189.167,131.5 146.833,131.5 104.5,131.5C 100.562,125.89 96.2287,120.557 91.5,115.5C 86.9317,114.259 82.4317,112.926 78,111.5C 75.6347,118.033 73.8013,124.699 72.5,131.5C 58.8333,131.5 45.1667,131.5 31.5,131.5C 21.2135,121.217 10.5469,111.217 -0.5,101.5C -0.5,98.8333 -0.5,96.1667 -0.5,93.5C 10.3856,62.3845 20.719,31.0511 30.5,-0.5 Z M 411.5,60.5 C 424.167,60.5 436.833,60.5 449.5,60.5C 449.5,64.1667 449.5,67.8333 449.5,71.5C 436.833,71.5 424.167,71.5 411.5,71.5C 411.5,67.8333 411.5,64.1667 411.5,60.5 Z"/></g>
<g><path style="opacity:1" fill="#464544" d="M 193.5,5.5 C 203.653,4.50577 213.986,4.17244 224.5,4.5C 224.795,6.73535 224.461,8.73535 223.5,10.5C 223.5,8.83333 223.5,7.16667 223.5,5.5C 213.5,5.5 203.5,5.5 193.5,5.5 Z"/></g>
<g><path style="opacity:1" fill="#4a4949" d="M 246.5,5.5 C 256.653,4.50577 266.986,4.17244 277.5,4.5C 277.795,6.73535 277.461,8.73535 276.5,10.5C 276.5,8.83333 276.5,7.16667 276.5,5.5C 266.5,5.5 256.5,5.5 246.5,5.5 Z"/></g>
<g><path style="opacity:1" fill="#868585" d="M 471.5,4.5 C 491.674,4.16955 511.674,4.50288 531.5,5.5C 511.833,5.5 492.167,5.5 472.5,5.5C 472.5,7.16667 472.5,8.83333 472.5,10.5C 471.539,8.73535 471.205,6.73535 471.5,4.5 Z"/></g>
<g><path style="opacity:1" fill="#a29f9f" d="M 701.5,5.5 C 690.448,4.85718 679.781,5.52385 669.5,7.5C 668.596,6.79105 668.263,5.79105 668.5,4.5C 679.679,4.17207 690.679,4.5054 701.5,5.5 Z"/></g>
<g><path style="opacity:1" fill="#d1d1d1" d="M 769.5,4.5 C 769.5,5.16667 769.5,5.83333 769.5,6.5C 760.241,5.84597 750.908,5.51264 741.5,5.5C 732.141,5.50172 723.141,6.16839 714.5,7.5C 713.596,6.79105 713.263,5.79105 713.5,4.5C 732.167,4.5 750.833,4.5 769.5,4.5 Z"/></g>
<g><path style="opacity:1" fill="#d2d3d3" d="M 181.5,6.5 C 171.5,6.5 161.5,6.5 151.5,6.5C 151.737,7.79105 151.404,8.79105 150.5,9.5C 150.5,8.16667 150.5,6.83333 150.5,5.5C 161.014,5.17244 171.347,5.50577 181.5,6.5 Z"/></g>
<g><path style="opacity:1" fill="#fdfdfd" d="M 361.5,12.5 C 360.527,14.9479 360.194,17.6146 360.5,20.5C 346.323,20.1709 332.323,20.5042 318.5,21.5C 317.527,23.9479 317.194,26.6146 317.5,29.5C 317.5,30.1667 317.5,30.8333 317.5,31.5C 316.71,32.6085 316.21,33.9419 316,35.5C 315.51,34.2068 315.343,32.8734 315.5,31.5C 306.817,30.0346 297.484,29.3679 287.5,29.5C 287.5,26.5 287.5,23.5 287.5,20.5C 287.413,15.4635 287.746,10.4635 288.5,5.5C 312.833,5.5 337.167,5.5 361.5,5.5C 361.5,7.83333 361.5,10.1667 361.5,12.5 Z"/></g>
<g><path style="opacity:1" fill="#fcfcfc" d="M 373.5,5.5 C 397.833,5.5 422.167,5.5 446.5,5.5C 446.5,10.8333 446.5,16.1667 446.5,21.5C 444.167,21.5 441.833,21.5 439.5,21.5C 427.833,21.5 416.167,21.5 404.5,21.5C 403.527,23.9479 403.194,26.6146 403.5,29.5C 402.279,30.0283 401.113,30.695 400,31.5C 391.904,31.307 383.237,31.307 374,31.5C 373.5,22.8397 373.334,14.1731 373.5,5.5 Z"/></g>
<g><path style="opacity:1" fill="#fbfbfb" d="M 469.5,5.5 C 470.165,11.8266 470.832,18.1599 471.5,24.5C 471.495,26.6965 471.162,28.6965 470.5,30.5C 466.833,30.5 463.167,30.5 459.5,30.5C 459.5,22.1667 459.5,13.8333 459.5,5.5C 462.833,5.5 466.167,5.5 469.5,5.5 Z"/></g>
<g><path style="opacity:1" fill="#fcfcfc" d="M 531.5,5.5 C 531.5,6.5 531.5,7.5 531.5,8.5C 531.833,13.8333 532.167,19.1667 532.5,24.5C 532.663,26.8568 532.497,29.1902 532,31.5C 524.456,30.6735 516.623,30.3402 508.5,30.5C 506.308,30.7573 504.641,31.7573 503.5,33.5C 503.672,32.5084 503.338,31.8417 502.5,31.5C 502.5,28.1667 502.5,24.8333 502.5,21.5C 498.5,21.5 494.5,21.5 490.5,21.5C 489.679,24.6414 489.179,27.9748 489,31.5C 485.177,30.6941 481.51,30.3608 478,30.5C 476.607,33.1251 475.441,33.1251 474.5,30.5C 473.365,23.8847 472.698,17.2181 472.5,10.5C 472.5,8.83333 472.5,7.16667 472.5,5.5C 492.167,5.5 511.833,5.5 531.5,5.5 Z"/></g>
<g><path style="opacity:1" fill="#f5f5f5" d="M 619.5,24.5 C 619.663,26.8568 619.497,29.1902 619,31.5C 614.914,31.2263 610.414,31.0597 605.5,31C 604.915,29.6976 604.249,28.531 603.5,27.5C 603.425,24.7938 603.092,22.1272 602.5,19.5C 597.833,19.5 593.167,19.5 588.5,19.5C 588.5,23.1667 588.5,26.8333 588.5,30.5C 584.833,30.5 581.167,30.5 577.5,30.5C 576.886,26.8648 576.552,23.1981 576.5,19.5C 571.833,19.5 567.167,19.5 562.5,19.5C 562.5,21.8333 562.5,24.1667 562.5,26.5C 562.5,28.1667 562.5,29.8333 562.5,31.5C 558.54,31.3508 554.54,31.3508 550.5,31.5C 549.14,30.8201 547.807,30.1534 546.5,29.5C 544.849,21.3847 543.849,13.0514 543.5,4.5C 567.833,4.5 592.167,4.5 616.5,4.5C 617.872,11.1041 618.872,17.7708 619.5,24.5 Z"/></g>
<g><path style="opacity:1" fill="#f8f8f8" d="M 677.5,16.5 C 677.5,17.8333 677.5,19.1667 677.5,20.5C 672.5,20.5 667.5,20.5 662.5,20.5C 662.216,22.4147 662.549,24.0813 663.5,25.5C 663.5,26.1667 663.5,26.8333 663.5,27.5C 663.657,28.8734 663.49,30.2068 663,31.5C 656.678,31.2802 650.012,31.2802 643,31.5C 639.599,31.6688 636.432,31.0021 633.5,29.5C 631.527,21.3511 629.86,13.0177 628.5,4.5C 641.184,4.16759 653.851,4.50092 666.5,5.5C 667.154,7.11511 667.654,8.78178 668,10.5C 671.186,12.5707 674.352,14.5707 677.5,16.5 Z"/></g>
<g><path style="opacity:1" fill="#fbfbfb" d="M 701.5,5.5 C 702.531,7.96082 703.198,10.6275 703.5,13.5C 703.674,15.861 704.007,18.1944 704.5,20.5C 696.833,20.5 689.167,20.5 681.5,20.5C 680.633,14.8012 677.3,11.6345 671.5,11C 670.177,10.1841 669.511,9.01739 669.5,7.5C 679.781,5.52385 690.448,4.85718 701.5,5.5 Z"/></g>
<g><path style="opacity:1" fill="#fafafa" d="M 769.5,6.5 C 772.416,11.5985 772.749,16.7651 770.5,22C 770.57,22.7648 770.903,23.2648 771.5,23.5C 771.5,24.1667 771.5,24.8333 771.5,25.5C 771.41,28.1522 772.076,30.4855 773.5,32.5C 774.234,33.7079 774.567,35.0413 774.5,36.5C 774.5,37.5 774.5,38.5 774.5,39.5C 770.563,39.7935 766.73,39.4601 763,38.5C 756.426,40.6617 749.926,40.3284 743.5,37.5C 742.525,34.9333 741.858,32.2666 741.5,29.5C 741.405,27.2143 740.738,25.2143 739.5,23.5C 739.152,21.2872 738.319,19.2872 737,17.5C 736.51,18.7932 736.343,20.1266 736.5,21.5C 730.167,21.5 723.833,21.5 717.5,21.5C 716.245,16.8944 715.245,12.2277 714.5,7.5C 723.141,6.16839 732.141,5.50172 741.5,5.5C 750.908,5.51264 760.241,5.84597 769.5,6.5 Z"/></g>
<g><path style="opacity:1" fill="#f0f0f0" d="M 771.5,4.5 C 776.833,4.5 782.167,4.5 787.5,4.5C 789.133,10.0985 790.467,15.7652 791.5,21.5C 786.125,21.8282 780.792,21.4948 775.5,20.5C 774.873,19.5832 774.539,18.5832 774.5,17.5C 773.656,13.1259 772.656,8.79255 771.5,4.5 Z"/></g>
<g><path style="opacity:1" fill="#f4f4f4" d="M 35.5,5.5 C 45.5222,5.16814 55.5222,5.50148 65.5,6.5C 63.7578,10.7254 62.4245,15.0587 61.5,19.5C 51.5119,20.6127 41.5119,20.6127 31.5,19.5C 32.2286,14.6491 33.5619,9.98245 35.5,5.5 Z"/></g>
<g><path style="opacity:1" fill="#f7f7f7" d="M 133.5,34.5 C 132.596,35.209 132.263,36.209 132.5,37.5C 127.901,37.8 123.401,37.4667 119,36.5C 118.785,31.0849 118.285,25.7516 117.5,20.5C 114.038,19.5184 110.371,19.185 106.5,19.5C 106.5,18.5 106.5,17.5 106.5,16.5C 107.167,12.8333 107.833,9.16667 108.5,5.5C 118.833,5.5 129.167,5.5 139.5,5.5C 137.315,15.1304 135.315,24.7971 133.5,34.5 Z"/></g>
<g><path style="opacity:1" fill="#f8f8f8" d="M 181.5,6.5 C 180.743,12.231 179.743,17.8977 178.5,23.5C 173.398,23.1269 169.731,23.4603 167.5,24.5C 170.833,25.1667 174.167,25.8333 177.5,26.5C 176.986,31.2922 175.986,35.9589 174.5,40.5C 165.098,39.3663 155.765,38.8663 146.5,39C 144.876,35.7944 145.542,33.1277 148.5,31C 147.577,28.9592 147.244,26.7925 147.5,24.5C 147.5,23.8333 147.5,23.1667 147.5,22.5C 148.924,20.4855 149.59,18.1522 149.5,15.5C 149.325,13.3792 149.659,11.3792 150.5,9.5C 151.404,8.79105 151.737,7.79105 151.5,6.5C 161.5,6.5 171.5,6.5 181.5,6.5 Z"/></g>
<g><path style="opacity:1" fill="#f9f9f9" d="M 246.5,5.5 C 256.5,5.5 266.5,5.5 276.5,5.5C 276.5,7.16667 276.5,8.83333 276.5,10.5C 275.701,13.4299 275.368,16.4299 275.5,19.5C 274.596,20.209 274.263,21.209 274.5,22.5C 270.833,22.5 267.167,22.5 263.5,22.5C 257.252,21.0358 250.919,20.0358 244.5,19.5C 244.95,14.7984 245.617,10.1317 246.5,5.5 Z"/></g>
<g><path style="opacity:1" fill="#353434" d="M 769.5,4.5 C 770.167,4.5 770.833,4.5 771.5,4.5C 772.656,8.79255 773.656,13.1259 774.5,17.5C 773.522,19.4561 772.522,21.4561 771.5,23.5C 770.903,23.2648 770.57,22.7648 770.5,22C 772.749,16.7651 772.416,11.5985 769.5,6.5C 769.5,5.83333 769.5,5.16667 769.5,4.5 Z"/></g>
<g><path style="opacity:1" fill="#969595" d="M 531.5,8.5 C 532.957,13.598 533.624,18.9313 533.5,24.5C 533.167,24.5 532.833,24.5 532.5,24.5C 532.167,19.1667 531.833,13.8333 531.5,8.5 Z"/></g>
<g><path style="opacity:1" fill="#acabab" d="M 106.5,16.5 C 106.5,17.5 106.5,18.5 106.5,19.5C 110.371,19.185 114.038,19.5184 117.5,20.5C 113.5,20.5 109.5,20.5 105.5,20.5C 105.232,18.901 105.566,17.5676 106.5,16.5 Z"/></g>
<g><path style="opacity:1" fill="#c4c4c4" d="M 361.5,12.5 C 361.5,15.5 361.5,18.5 361.5,21.5C 347.167,21.5 332.833,21.5 318.5,21.5C 332.323,20.5042 346.323,20.1709 360.5,20.5C 360.194,17.6146 360.527,14.9479 361.5,12.5 Z"/></g>
<g><path style="opacity:1" fill="#0c0d0d" d="M 603.5,27.5 C 603.5,28.5 603.5,29.5 603.5,30.5C 599.167,30.5 594.833,30.5 590.5,30.5C 590.5,32.5 590.5,34.5 590.5,36.5C 592.833,36.5 595.167,36.5 597.5,36.5C 597.263,37.791 597.596,38.791 598.5,39.5C 599.598,44.0923 600.265,48.759 600.5,53.5C 597.833,53.5 595.167,53.5 592.5,53.5C 592.5,51.5 592.5,49.5 592.5,47.5C 588.5,47.5 584.5,47.5 580.5,47.5C 580.5,49.5 580.5,51.5 580.5,53.5C 577.833,53.5 575.167,53.5 572.5,53.5C 572.486,47.4189 571.819,41.4189 570.5,35.5C 572.5,35.5 574.5,35.5 576.5,35.5C 576.5,34.1667 576.5,32.8333 576.5,31.5C 572.167,31.5 567.833,31.5 563.5,31.5C 563.784,29.5853 563.451,27.9187 562.5,26.5C 562.5,24.1667 562.5,21.8333 562.5,19.5C 567.167,19.5 571.833,19.5 576.5,19.5C 576.552,23.1981 576.886,26.8648 577.5,30.5C 581.167,30.5 584.833,30.5 588.5,30.5C 588.5,26.8333 588.5,23.1667 588.5,19.5C 593.167,19.5 597.833,19.5 602.5,19.5C 603.092,22.1272 603.425,24.7938 603.5,27.5 Z"/></g>
<g><path style="opacity:1" fill="#bebdbd" d="M 677.5,16.5 C 678.451,17.9187 678.784,19.5853 678.5,21.5C 673.5,21.5 668.5,21.5 663.5,21.5C 663.5,22.8333 663.5,24.1667 663.5,25.5C 662.549,24.0813 662.216,22.4147 662.5,20.5C 667.5,20.5 672.5,20.5 677.5,20.5C 677.5,19.1667 677.5,17.8333 677.5,16.5 Z"/></g>
<g><path style="opacity:1" fill="#c1c1c0" d="M 703.5,13.5 C 705.04,15.8383 705.706,18.5049 705.5,21.5C 697.316,21.8257 689.316,21.4924 681.5,20.5C 689.167,20.5 696.833,20.5 704.5,20.5C 704.007,18.1944 703.674,15.861 703.5,13.5 Z"/></g>
<g><path style="opacity:1" fill="#595958" d="M 30.5,22.5 C 43.9898,21.5043 57.6565,21.171 71.5,21.5C 71.7062,24.4951 71.0395,27.1617 69.5,29.5C 69.6741,27.139 70.0074,24.8056 70.5,22.5C 57.1667,22.5 43.8333,22.5 30.5,22.5 Z"/></g>
<g><path style="opacity:1" fill="#8e8d8d" d="M 149.5,15.5 C 149.59,18.1522 148.924,20.4855 147.5,22.5C 147.41,19.8478 148.076,17.5145 149.5,15.5 Z"/></g>
<g><path style="opacity:1" fill="#787777" d="M 222.5,19.5 C 219.359,20.3213 216.025,20.8213 212.5,21C 215.695,21.1805 218.695,21.6805 221.5,22.5C 218.15,22.665 214.817,22.4983 211.5,22C 211.043,21.586 210.709,21.086 210.5,20.5C 214.445,19.5091 218.445,19.1758 222.5,19.5 Z"/></g>
<g><path style="opacity:1" fill="#272727" d="M 318.5,21.5 C 332.833,21.5 347.167,21.5 361.5,21.5C 347.343,22.4959 333.01,22.8293 318.5,22.5C 318.802,25.0593 318.468,27.3926 317.5,29.5C 317.194,26.6146 317.527,23.9479 318.5,21.5 Z"/></g>
<g><path style="opacity:1" fill="#2a2a2a" d="M 404.5,21.5 C 416.167,21.5 427.833,21.5 439.5,21.5C 428.346,22.4948 417.012,22.8281 405.5,22.5C 405.821,28.0262 405.488,33.3595 404.5,38.5C 404.5,32.8333 404.5,27.1667 404.5,21.5 Z"/></g>
<g><path style="opacity:1" fill="#070808" d="M 490.5,21.5 C 494.5,21.5 498.5,21.5 502.5,21.5C 502.5,24.8333 502.5,28.1667 502.5,31.5C 502.5,34.1667 502.5,36.8333 502.5,39.5C 498.833,39.5 495.167,39.5 491.5,39.5C 491.81,36.2869 491.477,33.2869 490.5,30.5C 490.5,27.5 490.5,24.5 490.5,21.5 Z"/></g>
<g><path style="opacity:1" fill="#7b7b7a" d="M 275.5,19.5 C 275.5,20.8333 275.5,22.1667 275.5,23.5C 274.127,23.3433 272.793,23.51 271.5,24C 272.737,24.2321 273.737,24.7321 274.5,25.5C 269.662,25.0886 264.995,24.4219 260.5,23.5C 261.791,23.7373 262.791,23.404 263.5,22.5C 267.167,22.5 270.833,22.5 274.5,22.5C 274.263,21.209 274.596,20.209 275.5,19.5 Z"/></g>
<g><path style="opacity:1" fill="#7e7e7e" d="M 167.5,24.5 C 171.226,24.1774 174.893,24.5108 178.5,25.5C 178.376,26.1067 178.043,26.44 177.5,26.5C 174.167,25.8333 170.833,25.1667 167.5,24.5 Z"/></g>
<g><path style="opacity:1" fill="#232323" d="M 469.5,4.5 C 470.167,4.5 470.833,4.5 471.5,4.5C 471.205,6.73535 471.539,8.73535 472.5,10.5C 472.698,17.2181 473.365,23.8847 474.5,30.5C 474.297,32.3904 474.963,33.8904 476.5,35C 480.069,35.3899 483.403,36.3899 486.5,38C 482.5,38.6667 478.5,38.6667 474.5,38C 473.257,36.8455 472.257,35.5122 471.5,34C 468.518,33.502 465.518,33.3354 462.5,33.5C 462.833,32.8333 463.167,32.1667 463.5,31.5C 466.059,31.8016 468.393,31.4682 470.5,30.5C 471.162,28.6965 471.495,26.6965 471.5,24.5C 470.832,18.1599 470.165,11.8266 469.5,5.5C 469.5,5.16667 469.5,4.83333 469.5,4.5 Z"/></g>
<g><path style="opacity:1" fill="#70706f" d="M 739.5,23.5 C 740.738,25.2143 741.405,27.2143 741.5,29.5C 739.926,27.8984 739.259,25.8984 739.5,23.5 Z"/></g>
<g><path style="opacity:1" fill="#9c9c9c" d="M 771.5,25.5 C 772.924,27.5145 773.59,29.8478 773.5,32.5C 772.076,30.4855 771.41,28.1522 771.5,25.5 Z"/></g>
<g><path style="opacity:1" fill="#5a5958" d="M 286.5,30.5 C 291.875,30.1718 297.208,30.5052 302.5,31.5C 302.376,32.1067 302.043,32.44 301.5,32.5C 296.5,31.8333 291.5,31.1667 286.5,30.5 Z"/></g>
<g><path style="opacity:1" fill="#acabab" d="M 404.5,21.5 C 404.5,27.1667 404.5,32.8333 404.5,38.5C 402.901,38.7678 401.568,38.4345 400.5,37.5C 401.5,37.5 402.5,37.5 403.5,37.5C 403.5,34.8333 403.5,32.1667 403.5,29.5C 403.194,26.6146 403.527,23.9479 404.5,21.5 Z"/></g>
<g><path style="opacity:1" fill="#989897" d="M 469.5,4.5 C 469.5,4.83333 469.5,5.16667 469.5,5.5C 466.167,5.5 462.833,5.5 459.5,5.5C 459.5,13.8333 459.5,22.1667 459.5,30.5C 463.167,30.5 466.833,30.5 470.5,30.5C 468.393,31.4682 466.059,31.8016 463.5,31.5C 461.833,31.5 460.167,31.5 458.5,31.5C 458.5,22.5 458.5,13.5 458.5,4.5C 462.167,4.5 465.833,4.5 469.5,4.5 Z"/></g>
<g><path style="opacity:1" fill="#9f9e9e" d="M 28.5,28.5 C 28.6545,31.716 27.6545,34.3826 25.5,36.5C 26.129,33.6027 27.129,30.936 28.5,28.5 Z"/></g>
<g><path style="opacity:1" fill="#f0efef" d="M 104.5,22.5 C 108.437,22.2065 112.27,22.5399 116,23.5C 118.745,35.4214 114.079,40.0881 102,37.5C 97.771,37.4898 93.9377,36.8232 90.5,35.5C 91.6566,31.2067 92.6566,26.8734 93.5,22.5C 97.1667,22.5 100.833,22.5 104.5,22.5 Z"/></g>
<g><path style="opacity:1" fill="#5c5c5b" d="M 274.5,29.5 C 274.386,36.7608 273.386,43.7608 271.5,50.5C 271.5,49.1667 271.5,47.8333 271.5,46.5C 272.235,40.6597 273.235,34.993 274.5,29.5 Z"/></g>
<g><path style="opacity:1" fill="#4e4e4d" d="M 395.5,37.5 C 395.5,37.8333 395.5,38.1667 395.5,38.5C 389.963,38.2098 384.629,37.0432 379.5,35C 385.095,34.7561 390.428,35.5894 395.5,37.5 Z"/></g>
<g><path style="opacity:1" fill="#1e1e1d" d="M 105.5,20.5 C 109.5,20.5 113.5,20.5 117.5,20.5C 118.285,25.7516 118.785,31.0849 119,36.5C 123.401,37.4667 127.901,37.8 132.5,37.5C 132.263,36.209 132.596,35.209 133.5,34.5C 133.5,35.8333 133.5,37.1667 133.5,38.5C 131.901,38.2322 130.568,38.5655 129.5,39.5C 116.167,39.5 102.833,39.5 89.5,39.5C 89.2322,37.901 89.5655,36.5676 90.5,35.5C 93.9377,36.8232 97.771,37.4898 102,37.5C 114.079,40.0881 118.745,35.4214 116,23.5C 112.27,22.5399 108.437,22.2065 104.5,22.5C 104.833,21.8333 105.167,21.1667 105.5,20.5 Z"/></g>
<g><path style="opacity:1" fill="#f3f3f3" d="M 193.5,5.5 C 203.5,5.5 213.5,5.5 223.5,5.5C 223.5,7.16667 223.5,8.83333 223.5,10.5C 222.597,13.3915 222.264,16.3915 222.5,19.5C 218.445,19.1758 214.445,19.5091 210.5,20.5C 210.709,21.086 211.043,21.586 211.5,22C 214.817,22.4983 218.15,22.665 221.5,22.5C 224.833,22.5 228.167,22.5 231.5,22.5C 231.269,28.5524 230.602,34.5524 229.5,40.5C 233.5,40.5 237.5,40.5 241.5,40.5C 242.385,34.5315 243.052,28.5315 243.5,22.5C 249.181,22.6349 254.848,22.9682 260.5,23.5C 264.995,24.4219 269.662,25.0886 274.5,25.5C 274.5,26.8333 274.5,28.1667 274.5,29.5C 273.235,34.993 272.235,40.6597 271.5,46.5C 265.909,47.7874 260.075,48.4541 254,48.5C 232.486,47.4231 210.986,47.2564 189.5,48C 187.709,45.8938 187.042,43.3938 187.5,40.5C 189.022,28.7469 191.022,17.0803 193.5,5.5 Z"/></g>
<g><path style="opacity:1" fill="#898887" d="M 534.5,38.5 C 530.881,38.8813 527.548,39.8813 524.5,41.5C 523.596,40.791 523.263,39.791 523.5,38.5C 527.167,38.5 530.833,38.5 534.5,38.5 Z"/></g>
<g><path style="opacity:1" fill="#efefef" d="M 663.5,27.5 C 664.918,31.2873 665.918,35.2873 666.5,39.5C 674.255,39.9016 681.922,40.9016 689.5,42.5C 689.5,42.8333 689.5,43.1667 689.5,43.5C 689.785,45.288 689.452,46.9547 688.5,48.5C 674.442,48.2441 660.442,47.9108 646.5,47.5C 643.179,48.2598 639.846,48.9264 636.5,49.5C 635.178,42.8791 634.178,36.2124 633.5,29.5C 636.432,31.0021 639.599,31.6688 643,31.5C 650.012,31.2802 656.678,31.2802 663,31.5C 663.49,30.2068 663.657,28.8734 663.5,27.5 Z"/></g>
<g><path style="opacity:1" fill="#e8e8e8" d="M 743.5,37.5 C 749.926,40.3284 756.426,40.6617 763,38.5C 766.73,39.4601 770.563,39.7935 774.5,39.5C 775.323,41.9872 776.323,44.3206 777.5,46.5C 777.723,50.1621 778.723,53.4954 780.5,56.5C 781.458,58.3024 782.125,60.3024 782.5,62.5C 782.674,64.861 783.007,67.1944 783.5,69.5C 775.5,69.5 767.5,69.5 759.5,69.5C 756.873,68.9084 754.206,68.5751 751.5,68.5C 749.087,58.1003 746.42,47.767 743.5,37.5 Z"/></g>
<g><path style="opacity:1" fill="#ededed" d="M 30.5,22.5 C 43.8333,22.5 57.1667,22.5 70.5,22.5C 70.0074,24.8056 69.6741,27.139 69.5,29.5C 67.8944,32.9861 66.8944,36.6528 66.5,40.5C 74.3516,40.8254 82.0182,40.492 89.5,39.5C 102.833,39.5 116.167,39.5 129.5,39.5C 130.376,39.3691 131.043,39.7025 131.5,40.5C 130.325,46.7519 128.658,52.7519 126.5,58.5C 115.886,56.1645 105.053,55.8312 94,57.5C 93.0546,57.0946 92.3879,56.428 92,55.5C 89.4898,55.6467 86.8231,56.3134 84,57.5C 73.0954,56.4904 62.2621,56.4904 51.5,57.5C 41.3933,56.1947 31.3933,55.8613 21.5,56.5C 21.7038,53.4824 22.0371,50.4824 22.5,47.5C 23.2102,43.7487 24.2102,40.082 25.5,36.5C 27.6545,34.3826 28.6545,31.716 28.5,28.5C 28.595,26.2143 29.2616,24.2143 30.5,22.5 Z"/></g>
<g><path style="opacity:1" fill="#eaeaea" d="M 147.5,24.5 C 147.244,26.7925 147.577,28.9592 148.5,31C 145.542,33.1277 144.876,35.7944 146.5,39C 155.765,38.8663 165.098,39.3663 174.5,40.5C 174.102,45.4119 173.102,50.0785 171.5,54.5C 166.58,55.7803 161.413,56.447 156,56.5C 150.988,56.4993 146.155,56.1659 141.5,55.5C 141.5,54.1667 141.5,52.8333 141.5,51.5C 142.742,42.2124 144.742,33.2124 147.5,24.5 Z"/></g>
<g><path style="opacity:1" fill="#a4a4a4" d="M 666.5,39.5 C 674.167,39.5 681.833,39.5 689.5,39.5C 689.5,40.5 689.5,41.5 689.5,42.5C 681.922,40.9016 674.255,39.9016 666.5,39.5 Z"/></g>
<g><path style="opacity:1" fill="#a5a5a5" d="M 691.5,40.5 C 691.5,40.1667 691.5,39.8333 691.5,39.5C 698.255,38.8771 704.588,39.5437 710.5,41.5C 704.256,40.5422 697.923,40.2088 691.5,40.5 Z"/></g>
<g><path style="opacity:1" fill="#9b9b9a" d="M 774.5,36.5 C 776.277,39.5046 777.277,42.8379 777.5,46.5C 776.323,44.3206 775.323,41.9872 774.5,39.5C 774.5,38.5 774.5,37.5 774.5,36.5 Z"/></g>
<g><path style="opacity:1" fill="#e7e7e7" d="M 619.5,24.5 C 622.322,35.5574 624.322,46.8908 625.5,58.5C 625.5,61.1667 625.5,63.8333 625.5,66.5C 600.925,66.1723 576.425,66.5056 552,67.5C 551.722,66.5842 551.222,65.9175 550.5,65.5C 548.512,53.5805 547.178,41.5805 546.5,29.5C 547.807,30.1534 549.14,30.8201 550.5,31.5C 554.54,31.3508 558.54,31.3508 562.5,31.5C 562.5,29.8333 562.5,28.1667 562.5,26.5C 563.451,27.9187 563.784,29.5853 563.5,31.5C 567.833,31.5 572.167,31.5 576.5,31.5C 576.5,32.8333 576.5,34.1667 576.5,35.5C 574.5,35.5 572.5,35.5 570.5,35.5C 571.819,41.4189 572.486,47.4189 572.5,53.5C 575.167,53.5 577.833,53.5 580.5,53.5C 580.5,51.5 580.5,49.5 580.5,47.5C 584.5,47.5 588.5,47.5 592.5,47.5C 592.5,49.5 592.5,51.5 592.5,53.5C 595.167,53.5 597.833,53.5 600.5,53.5C 600.265,48.759 599.598,44.0923 598.5,39.5C 597.596,38.791 597.263,37.791 597.5,36.5C 595.167,36.5 592.833,36.5 590.5,36.5C 590.5,34.5 590.5,32.5 590.5,30.5C 594.833,30.5 599.167,30.5 603.5,30.5C 603.5,29.5 603.5,28.5 603.5,27.5C 604.249,28.531 604.915,29.6976 605.5,31C 610.414,31.0597 614.914,31.2263 619,31.5C 619.497,29.1902 619.663,26.8568 619.5,24.5 Z"/></g>
<g><path style="opacity:1" fill="#4d4d4c" d="M 603.5,30.5 C 599.702,31.4834 595.702,31.8168 591.5,31.5C 591.5,32.8333 591.5,34.1667 591.5,35.5C 593.833,35.5 596.167,35.5 598.5,35.5C 598.5,36.8333 598.5,38.1667 598.5,39.5C 598.5,38.1667 598.5,36.8333 598.5,35.5C 596.167,35.5 593.833,35.5 591.5,35.5C 591.5,34.1667 591.5,32.8333 591.5,31.5C 595.702,31.8168 599.702,31.4834 603.5,30.5 Z"/></g>
<g><path style="opacity:1" fill="#e9e9e9" d="M 287.5,20.5 C 287.5,23.5 287.5,26.5 287.5,29.5C 297.484,29.3679 306.817,30.0346 315.5,31.5C 315.343,32.8734 315.51,34.2068 316,35.5C 316.21,33.9419 316.71,32.6085 317.5,31.5C 317.5,34.5 317.5,37.5 317.5,40.5C 324.167,40.5 330.833,40.5 337.5,40.5C 337.334,45.1785 337.501,49.8452 338,54.5C 339.437,50.0281 339.937,45.3614 339.5,40.5C 346.167,40.5 352.833,40.5 359.5,40.5C 359.5,46.1667 359.5,51.8333 359.5,57.5C 335.385,57.7693 311.552,57.1026 288,55.5C 287,56.1667 286,56.8333 285,57.5C 284.502,54.1832 284.335,50.8499 284.5,47.5C 284.353,42.7858 284.686,38.1191 285.5,33.5C 290.895,33.7335 296.228,33.4002 301.5,32.5C 302.043,32.44 302.376,32.1067 302.5,31.5C 297.208,30.5052 291.875,30.1718 286.5,30.5C 286.187,26.9581 286.521,23.6248 287.5,20.5 Z"/></g>
<g><path style="opacity:1" fill="#ebebeb" d="M 490.5,21.5 C 490.5,24.5 490.5,27.5 490.5,30.5C 490.5,33.8333 490.5,37.1667 490.5,40.5C 494.833,40.5 499.167,40.5 503.5,40.5C 503.5,38.1667 503.5,35.8333 503.5,33.5C 504.641,31.7573 506.308,30.7573 508.5,30.5C 516.623,30.3402 524.456,30.6735 532,31.5C 532.497,29.1902 532.663,26.8568 532.5,24.5C 532.833,24.5 533.167,24.5 533.5,24.5C 533.669,29.1811 534.002,33.8478 534.5,38.5C 530.833,38.5 527.167,38.5 523.5,38.5C 523.263,39.791 523.596,40.791 524.5,41.5C 524.5,42.8333 524.5,44.1667 524.5,45.5C 520.818,45.3347 517.152,45.5014 513.5,46C 517.638,46.8569 521.638,48.0236 525.5,49.5C 528.625,50.4794 531.958,50.8128 535.5,50.5C 535.663,52.8568 535.497,55.1902 535,57.5C 511.224,57.9173 487.391,57.4173 463.5,56C 462.103,54.6897 461.103,53.1897 460.5,51.5C 459.693,45.5362 459.36,39.5362 459.5,33.5C 460.5,33.5 461.5,33.5 462.5,33.5C 465.518,33.3354 468.518,33.502 471.5,34C 472.257,35.5122 473.257,36.8455 474.5,38C 478.5,38.6667 482.5,38.6667 486.5,38C 483.403,36.3899 480.069,35.3899 476.5,35C 474.963,33.8904 474.297,32.3904 474.5,30.5C 475.441,33.1251 476.607,33.1251 478,30.5C 481.51,30.3608 485.177,30.6941 489,31.5C 489.179,27.9748 489.679,24.6414 490.5,21.5 Z"/></g>
<g><path style="opacity:1" fill="#494847" d="M 490.5,30.5 C 491.477,33.2869 491.81,36.2869 491.5,39.5C 495.167,39.5 498.833,39.5 502.5,39.5C 502.5,36.8333 502.5,34.1667 502.5,31.5C 503.338,31.8417 503.672,32.5084 503.5,33.5C 503.5,35.8333 503.5,38.1667 503.5,40.5C 499.167,40.5 494.833,40.5 490.5,40.5C 490.5,37.1667 490.5,33.8333 490.5,30.5 Z"/></g>
<g><path style="opacity:1" fill="#e5e5e5" d="M 691.5,40.5 C 697.923,40.2088 704.256,40.5422 710.5,41.5C 712.579,46.8725 713.912,52.5392 714.5,58.5C 707.833,58.5 701.167,58.5 694.5,58.5C 693.25,52.5767 692.25,46.5767 691.5,40.5 Z"/></g>
<g><path style="opacity:1" fill="#929191" d="M 777.5,46.5 C 779.277,49.5046 780.277,52.8379 780.5,56.5C 778.723,53.4954 777.723,50.1621 777.5,46.5 Z"/></g>
<g><path style="opacity:1" fill="#3b3b3a" d="M 372.5,39.5 C 372.5,43.8333 372.5,48.1667 372.5,52.5C 380.301,52.7057 380.301,53.3724 372.5,54.5C 372.167,54.5 371.833,54.5 371.5,54.5C 371.179,49.3054 371.513,44.3054 372.5,39.5 Z"/></g>
<g><path style="opacity:1" fill="#e1e1e1" d="M 187.5,40.5 C 187.042,43.3938 187.709,45.8938 189.5,48C 210.986,47.2564 232.486,47.4231 254,48.5C 260.075,48.4541 265.909,47.7874 271.5,46.5C 271.5,47.8333 271.5,49.1667 271.5,50.5C 270.705,54.7853 270.372,59.1186 270.5,63.5C 269.111,68.2688 268.444,73.2688 268.5,78.5C 268.167,80.5 267.833,82.5 267.5,84.5C 264.842,83.8455 262.009,83.8455 259,84.5C 259.427,79.3391 259.26,74.3391 258.5,69.5C 256.901,67.2712 254.901,66.9378 252.5,68.5C 249.5,68.5 246.5,68.5 243.5,68.5C 241.5,68.5 239.5,68.5 237.5,68.5C 234.375,67.5206 231.042,67.1872 227.5,67.5C 227.5,65.5 227.5,63.5 227.5,61.5C 227.687,57.087 228.354,52.7536 229.5,48.5C 225.445,48.1758 221.445,48.5091 217.5,49.5C 215.656,56.0351 214.656,62.7018 214.5,69.5C 213.167,69.5 211.833,69.5 210.5,69.5C 202.677,68.6708 194.677,68.1708 186.5,68C 184.563,67.8784 183.23,67.045 182.5,65.5C 183.53,56.9085 185.196,48.5752 187.5,40.5 Z"/></g>
<g><path style="opacity:1" fill="#e2e1e1" d="M 689.5,43.5 C 689.833,43.5 690.167,43.5 690.5,43.5C 690.675,47.5406 690.842,51.5406 691,55.5C 689.69,56.8969 688.19,57.8969 686.5,58.5C 681.125,58.1718 675.792,58.5052 670.5,59.5C 671.309,61.0709 671.643,62.7376 671.5,64.5C 671.595,68.2246 671.762,71.8913 672,75.5C 663.369,74.7339 654.536,74.7339 645.5,75.5C 643.84,74.8284 642.507,73.8284 641.5,72.5C 639.607,64.9892 637.94,57.3225 636.5,49.5C 639.846,48.9264 643.179,48.2598 646.5,47.5C 660.442,47.9108 674.442,48.2441 688.5,48.5C 689.452,46.9547 689.785,45.288 689.5,43.5 Z"/></g>
<g><path style="opacity:1" fill="#dedede" d="M 22.5,47.5 C 22.0371,50.4824 21.7038,53.4824 21.5,56.5C 31.3933,55.8613 41.3933,56.1947 51.5,57.5C 62.2621,56.4904 73.0954,56.4904 84,57.5C 86.8231,56.3134 89.4898,55.6467 92,55.5C 92.3879,56.428 93.0546,57.0946 94,57.5C 105.053,55.8312 115.886,56.1645 126.5,58.5C 126.451,62.0781 125.785,65.4115 124.5,68.5C 114.76,66.5642 104.76,65.8975 94.5,66.5C 95.2583,63.6481 95.2583,60.9815 94.5,58.5C 90.5,58.5 86.5,58.5 82.5,58.5C 81.2914,64.5449 79.9581,70.5449 78.5,76.5C 71.4921,76.6663 64.4921,76.4996 57.5,76C 58.8672,73.6985 59.5339,71.1985 59.5,68.5C 59.9595,65.1226 60.6261,61.7893 61.5,58.5C 57.5,58.5 53.5,58.5 49.5,58.5C 48.1693,64.1606 46.836,69.8273 45.5,75.5C 39.8236,75.6661 34.1569,75.4994 28.5,75C 27.7343,71.5816 27.7343,68.0816 28.5,64.5C 24.7852,64.577 21.1185,64.2436 17.5,63.5C 18.3904,57.8338 20.057,52.5005 22.5,47.5 Z"/></g>
<g><path style="opacity:1" fill="#e2e2e2" d="M 373.5,5.5 C 373.334,14.1731 373.5,22.8397 374,31.5C 383.237,31.307 391.904,31.307 400,31.5C 401.113,30.695 402.279,30.0283 403.5,29.5C 403.5,32.1667 403.5,34.8333 403.5,37.5C 402.5,37.5 401.5,37.5 400.5,37.5C 398.833,37.5 397.167,37.5 395.5,37.5C 390.428,35.5894 385.095,34.7561 379.5,35C 384.629,37.0432 389.963,38.2098 395.5,38.5C 398.649,38.4152 401.316,39.4152 403.5,41.5C 403.5,49.1667 403.5,56.8333 403.5,64.5C 402.677,67.977 402.177,71.6437 402,75.5C 392.628,74.4489 383.128,74.4489 373.5,75.5C 372.503,68.5316 372.17,61.5316 372.5,54.5C 380.301,53.3724 380.301,52.7057 372.5,52.5C 372.5,48.1667 372.5,43.8333 372.5,39.5C 372.172,27.9877 372.505,16.6544 373.5,5.5 Z"/></g>
<g><path style="opacity:1" fill="#dfdfdf" d="M 525.5,49.5 C 529.167,49.5 532.833,49.5 536.5,49.5C 537.11,55.8154 537.443,62.1487 537.5,68.5C 537.664,71.1873 537.497,73.854 537,76.5C 536.667,75.8333 536.333,75.1667 536,74.5C 533.301,74.2986 530.468,74.6319 527.5,75.5C 526.713,74.7579 526.047,73.9246 525.5,73C 519.175,72.5005 512.842,72.3338 506.5,72.5C 506.737,71.209 506.404,70.209 505.5,69.5C 505.5,65.8333 505.5,62.1667 505.5,58.5C 501.167,58.5 496.833,58.5 492.5,58.5C 492.5,59.5 492.5,60.5 492.5,61.5C 492.5,63.1667 492.5,64.8333 492.5,66.5C 482.251,66.1806 472.084,66.5139 462,67.5C 461.821,63.9748 461.321,60.6414 460.5,57.5C 460.5,55.5 460.5,53.5 460.5,51.5C 461.103,53.1897 462.103,54.6897 463.5,56C 487.391,57.4173 511.224,57.9173 535,57.5C 535.497,55.1902 535.663,52.8568 535.5,50.5C 531.958,50.8128 528.625,50.4794 525.5,49.5 Z"/></g>
<g><path style="opacity:1" fill="#868585" d="M 141.5,51.5 C 141.5,52.8333 141.5,54.1667 141.5,55.5C 140.833,56.5 140.167,57.5 139.5,58.5C 139.41,55.8478 140.076,53.5145 141.5,51.5 Z"/></g>
<g><path style="opacity:1" fill="#2e2e2e" d="M 691.5,39.5 C 691.5,39.8333 691.5,40.1667 691.5,40.5C 692.25,46.5767 693.25,52.5767 694.5,58.5C 691.833,58.5 689.167,58.5 686.5,58.5C 688.19,57.8969 689.69,56.8969 691,55.5C 690.842,51.5406 690.675,47.5406 690.5,43.5C 690.232,41.901 690.566,40.5676 691.5,39.5 Z"/></g>
<g><path style="opacity:1" fill="#0d0e0e" d="M 94.5,58.5 C 91.4995,71.1717 88.4995,83.8384 85.5,96.5C 84.6762,92.6877 84.1762,88.6877 84,84.5C 82.1384,82.0672 80.3051,79.7339 78.5,77.5C 78.5,77.1667 78.5,76.8333 78.5,76.5C 79.9581,70.5449 81.2914,64.5449 82.5,58.5C 86.5,58.5 90.5,58.5 94.5,58.5 Z"/></g>
<g><path style="opacity:1" fill="#dddddd" d="M 171.5,54.5 C 170.643,62.2576 169.31,69.9243 167.5,77.5C 166.842,76.6016 166.176,75.6016 165.5,74.5C 156.38,74.5986 147.547,74.9319 139,75.5C 137.681,73.7505 137.181,71.7505 137.5,69.5C 137.848,65.7423 138.515,62.0756 139.5,58.5C 140.167,57.5 140.833,56.5 141.5,55.5C 146.155,56.1659 150.988,56.4993 156,56.5C 161.413,56.447 166.58,55.7803 171.5,54.5 Z"/></g>
<g><path style="opacity:1" fill="#d9d9d9" d="M 284.5,47.5 C 284.335,50.8499 284.502,54.1832 285,57.5C 286,56.8333 287,56.1667 288,55.5C 311.552,57.1026 335.385,57.7693 359.5,57.5C 344.676,58.4961 329.676,58.8294 314.5,58.5C 314.5,62.5 314.5,66.5 314.5,70.5C 313.549,71.9187 313.216,73.5853 313.5,75.5C 304.086,74.7761 293.419,74.7761 281.5,75.5C 281.5,74.8333 281.5,74.1667 281.5,73.5C 283.031,68.7498 283.698,63.7498 283.5,58.5C 283.185,54.6286 283.518,50.9619 284.5,47.5 Z"/></g>
<g><path style="opacity:1" fill="#cccccc" d="M 460.5,57.5 C 461.321,60.6414 461.821,63.9748 462,67.5C 472.084,66.5139 482.251,66.1806 492.5,66.5C 485.679,67.3285 478.679,67.8285 471.5,68C 471,68.5 470.5,69 470,69.5C 469.667,75.5 469.333,81.5 469,87.5C 467.634,91.2965 465.8,94.6298 463.5,97.5C 461.581,84.5387 460.581,71.2054 460.5,57.5 Z"/></g>
<g><path style="opacity:1" fill="#616060" d="M 227.5,61.5 C 227.5,63.5 227.5,65.5 227.5,67.5C 231.042,67.1872 234.375,67.5206 237.5,68.5C 233.833,68.5 230.167,68.5 226.5,68.5C 226.198,65.9407 226.532,63.6074 227.5,61.5 Z"/></g>
<g><path style="opacity:1" fill="#515151" d="M 182.5,65.5 C 183.23,67.045 184.563,67.8784 186.5,68C 194.677,68.1708 202.677,68.6708 210.5,69.5C 206.298,69.1832 202.298,69.5166 198.5,70.5C 192.833,70.5 187.167,70.5 181.5,70.5C 181.216,68.5853 181.549,66.9187 182.5,65.5 Z"/></g>
<g><path style="opacity:1" fill="#1f1f1f" d="M 258.5,69.5 C 258.115,76.1969 257.448,82.8635 256.5,89.5C 255.539,87.7354 255.205,85.7354 255.5,83.5C 256.311,78.9937 256.311,74.6604 255.5,70.5C 254.5,69.8333 253.5,69.1667 252.5,68.5C 254.901,66.9378 256.901,67.2712 258.5,69.5 Z"/></g>
<g><path style="opacity:1" fill="#696969" d="M 243.5,68.5 C 246.5,68.5 249.5,68.5 252.5,68.5C 253.5,69.1667 254.5,69.8333 255.5,70.5C 250.5,70.5 245.5,70.5 240.5,70.5C 241.5,69.8333 242.5,69.1667 243.5,68.5 Z"/></g>
<g><path style="opacity:1" fill="#5a5958" d="M 782.5,62.5 C 784.04,64.8383 784.706,67.5049 784.5,70.5C 775.983,70.8261 767.65,70.4927 759.5,69.5C 767.5,69.5 775.5,69.5 783.5,69.5C 783.007,67.1944 782.674,64.861 782.5,62.5 Z"/></g>
<g><path style="opacity:1" fill="#979695" d="M 283.5,58.5 C 283.698,63.7498 283.031,68.7498 281.5,73.5C 281.444,68.2688 282.111,63.2688 283.5,58.5 Z"/></g>
<g><path style="opacity:1" fill="#cfcfcf" d="M 671.5,64.5 C 673.958,74.6771 676.291,85.0104 678.5,95.5C 678.253,96.7133 677.586,97.38 676.5,97.5C 666.5,97.5 656.5,97.5 646.5,97.5C 645.351,97.2089 644.684,96.3756 644.5,95C 643.302,87.5153 642.302,80.0153 641.5,72.5C 642.507,73.8284 643.84,74.8284 645.5,75.5C 654.536,74.7339 663.369,74.7339 672,75.5C 671.762,71.8913 671.595,68.2246 671.5,64.5 Z"/></g>
<g><path style="opacity:1" fill="#d1d1d1" d="M 94.5,58.5 C 95.2583,60.9815 95.2583,63.6481 94.5,66.5C 104.76,65.8975 114.76,66.5642 124.5,68.5C 122.61,78.3887 120.277,88.0554 117.5,97.5C 107.451,98.7573 97.4505,98.7573 87.5,97.5C 86.8333,97.5 86.1667,97.5 85.5,97.5C 85.5,97.1667 85.5,96.8333 85.5,96.5C 88.4995,83.8384 91.4995,71.1717 94.5,58.5 Z"/></g>
<g><path style="opacity:1" fill="#cfcfcf" d="M 137.5,69.5 C 137.181,71.7505 137.681,73.7505 139,75.5C 147.547,74.9319 156.38,74.5986 165.5,74.5C 166.176,75.6016 166.842,76.6016 167.5,77.5C 166.244,83.4485 165.244,89.4485 164.5,95.5C 163.466,96.6871 162.133,97.5204 160.5,98C 155.806,98.5639 151.14,98.3973 146.5,97.5C 146.756,93.1382 146.923,88.8049 147,84.5C 144.826,88.5458 143.993,92.8791 144.5,97.5C 140.167,97.5 135.833,97.5 131.5,97.5C 132.441,87.8226 134.441,78.4893 137.5,69.5 Z"/></g>
<g><path style="opacity:1" fill="#d0cfcf" d="M 371.5,54.5 C 371.833,54.5 372.167,54.5 372.5,54.5C 372.17,61.5316 372.503,68.5316 373.5,75.5C 383.128,74.4489 392.628,74.4489 402,75.5C 402.177,71.6437 402.677,67.977 403.5,64.5C 403.5,69.1667 403.5,73.8333 403.5,78.5C 418.5,78.5 433.5,78.5 448.5,78.5C 448.823,85.0221 448.49,91.3554 447.5,97.5C 443.167,97.5 438.833,97.5 434.5,97.5C 434.487,92.7405 433.82,88.0738 432.5,83.5C 432.369,88.2877 432.036,92.9544 431.5,97.5C 421.167,97.5 410.833,97.5 400.5,97.5C 400.67,96.1779 400.337,95.0113 399.5,94C 395.642,93.1901 391.976,93.3567 388.5,94.5C 387.005,94.4148 386.005,95.0815 385.5,96.5C 380.88,97.4933 376.214,97.8266 371.5,97.5C 371.259,83.3492 371.259,69.0159 371.5,54.5 Z"/></g>
<g><path style="opacity:1" fill="#d6d6d6" d="M 472.5,81.5 C 471.218,78.0641 471.218,74.7307 472.5,71.5C 479.109,70.5774 485.776,70.2441 492.5,70.5C 492.5,74.8333 492.5,79.1667 492.5,83.5C 486.77,83.2409 481.27,82.9076 476,82.5C 474.267,84.958 473.1,84.6247 472.5,81.5 Z"/></g>
<g><path style="opacity:1" fill="#cecece" d="M 537.5,68.5 C 538.646,76.333 539.646,84.333 540.5,92.5C 540.493,94.3693 540.16,96.036 539.5,97.5C 533.167,97.5 526.833,97.5 520.5,97.5C 520.167,93.5 519.833,93.5 519.5,97.5C 515.833,97.5 512.167,97.5 508.5,97.5C 507.384,90.3536 506.717,83.0203 506.5,75.5C 512.537,75.8293 518.537,75.4959 524.5,74.5C 518.202,73.5037 511.868,73.1703 505.5,73.5C 505.5,72.1667 505.5,70.8333 505.5,69.5C 506.404,70.209 506.737,71.209 506.5,72.5C 512.842,72.3338 519.175,72.5005 525.5,73C 526.047,73.9246 526.713,74.7579 527.5,75.5C 530.468,74.6319 533.301,74.2986 536,74.5C 536.333,75.1667 536.667,75.8333 537,76.5C 537.497,73.854 537.664,71.1873 537.5,68.5 Z"/></g>
<g><path style="opacity:1" fill="#d4d4d4" d="M 625.5,58.5 C 627.075,64.274 628.075,70.274 628.5,76.5C 617.513,75.6449 606.513,74.9783 595.5,74.5C 595.756,72.2075 595.423,70.0408 594.5,68C 590.514,67.5012 586.514,67.3345 582.5,67.5C 583.452,76.3772 584.785,85.2105 586.5,94C 586.392,95.6811 585.725,96.8478 584.5,97.5C 580.167,97.5 575.833,97.5 571.5,97.5C 571.167,93.5 570.833,93.5 570.5,97.5C 565.167,97.5 559.833,97.5 554.5,97.5C 552.825,94.4928 552.159,91.1595 552.5,87.5C 552.556,82.2688 551.889,77.2688 550.5,72.5C 550.5,70.1667 550.5,67.8333 550.5,65.5C 551.222,65.9175 551.722,66.5842 552,67.5C 576.425,66.5056 600.925,66.1723 625.5,66.5C 625.5,63.8333 625.5,61.1667 625.5,58.5 Z"/></g>
<g><path style="opacity:1" fill="#a4a3a3" d="M 59.5,68.5 C 59.5339,71.1985 58.8672,73.6985 57.5,76C 64.4921,76.4996 71.4921,76.6663 78.5,76.5C 78.5,76.8333 78.5,77.1667 78.5,77.5C 71.5,77.5 64.5,77.5 57.5,77.5C 56.9033,77.2648 56.5699,76.7648 56.5,76C 57.2333,73.2804 58.2333,70.7804 59.5,68.5 Z"/></g>
<g><path style="opacity:1" fill="#949393" d="M 27.5,78.5 C 33.0129,77.1843 38.6796,77.1843 44.5,78.5C 44.3764,79.1067 44.0431,79.44 43.5,79.5C 38.3595,78.5119 33.0262,78.1786 27.5,78.5 Z"/></g>
<g><path style="opacity:1" fill="#505050" d="M 270.5,63.5 C 270.556,68.7312 269.889,73.7312 268.5,78.5C 268.444,73.2688 269.111,68.2688 270.5,63.5 Z"/></g>
<g><path style="opacity:1" fill="#3a3a3a" d="M 314.5,70.5 C 314.5,72.8333 314.5,75.1667 314.5,77.5C 326.345,77.1717 338.012,77.5051 349.5,78.5C 337.5,78.5 325.5,78.5 313.5,78.5C 313.5,77.5 313.5,76.5 313.5,75.5C 313.216,73.5853 313.549,71.9187 314.5,70.5 Z"/></g>
<g><path style="opacity:1" fill="#3b3b3b" d="M 403.5,41.5 C 404.495,53.3217 404.828,65.3217 404.5,77.5C 419.343,77.1707 434.01,77.504 448.5,78.5C 433.5,78.5 418.5,78.5 403.5,78.5C 403.5,73.8333 403.5,69.1667 403.5,64.5C 403.5,56.8333 403.5,49.1667 403.5,41.5 Z"/></g>
<g><path style="opacity:1" fill="#c6c5c5" d="M 27.5,78.5 C 33.0262,78.1786 38.3595,78.5119 43.5,79.5C 42.8333,82.1667 42.1667,84.8333 41.5,87.5C 36.1563,87.666 30.8229,87.4994 25.5,87C 22.624,83.3373 23.2907,80.5039 27.5,78.5 Z"/></g>
<g><path style="opacity:1" fill="#272628" d="M 57.5,77.5 C 64.5,77.5 71.5,77.5 78.5,77.5C 80.3051,79.7339 82.1384,82.0672 84,84.5C 84.1762,88.6877 84.6762,92.6877 85.5,96.5C 85.5,96.8333 85.5,97.1667 85.5,97.5C 84.9569,97.56 84.6236,97.8933 84.5,98.5C 86.3929,100.952 87.7263,103.619 88.5,106.5C 86.0108,106.702 83.6775,106.202 81.5,105C 78.0194,100.685 74.3527,96.5184 70.5,92.5C 72.4233,91.6922 74.4233,91.1922 76.5,91C 73.4465,90.8214 70.4465,90.3214 67.5,89.5C 63.7371,85.7479 60.4037,81.7479 57.5,77.5 Z"/></g>
<g><path style="opacity:1" fill="#545353" d="M 550.5,72.5 C 551.889,77.2688 552.556,82.2688 552.5,87.5C 551.111,82.7312 550.444,77.7312 550.5,72.5 Z"/></g>
<g><path style="opacity:1" fill="#c5c5c5" d="M 39.5,94.5 C 38.596,95.209 38.2627,96.209 38.5,97.5C 28.8558,98.5267 19.1891,98.6933 9.5,98C 8.26253,97.7679 7.26253,97.2679 6.5,96.5C 9.70285,86.2249 12.7029,75.8915 15.5,65.5C 18.7766,65.2161 21.9433,65.5495 25,66.5C 24.4599,72.9766 22.9599,79.3099 20.5,85.5C 20.6082,86.4419 20.9415,87.2753 21.5,88C 27.8246,88.4995 34.1579,88.6662 40.5,88.5C 40.4828,90.5648 40.1495,92.5648 39.5,94.5 Z"/></g>
<g><path style="opacity:1" fill="#cdcdcd" d="M 181.5,70.5 C 187.167,70.5 192.833,70.5 198.5,70.5C 202.514,70.3345 206.514,70.5012 210.5,71C 211.416,71.3742 212.25,71.8742 213,72.5C 212.392,81.0647 210.892,89.3981 208.5,97.5C 203.167,97.5 197.833,97.5 192.5,97.5C 192.742,94.319 192.742,91.319 192.5,88.5C 190.736,91.2148 189.736,94.2148 189.5,97.5C 185.833,97.5 182.167,97.5 178.5,97.5C 177.351,97.2089 176.684,96.3756 176.5,95C 177.939,86.745 179.605,78.5783 181.5,70.5 Z"/></g>
<g><path style="opacity:1" fill="#cfcfcf" d="M 240.5,70.5 C 245.5,70.5 250.5,70.5 255.5,70.5C 256.311,74.6604 256.311,78.9937 255.5,83.5C 253.896,87.8996 253.229,92.5662 253.5,97.5C 247.5,97.5 241.5,97.5 235.5,97.5C 235.167,97.5 234.833,97.5 234.5,97.5C 235.254,92.5365 235.587,87.5365 235.5,82.5C 235.392,78.753 235.892,75.0863 237,71.5C 238.011,70.6634 239.178,70.33 240.5,70.5 Z"/></g>
<g><path style="opacity:1" fill="#c4c4c4" d="M 258.5,69.5 C 259.26,74.3391 259.427,79.3391 259,84.5C 262.009,83.8455 264.842,83.8455 267.5,84.5C 267.562,89.0758 266.895,93.4091 265.5,97.5C 262.5,97.5 259.5,97.5 256.5,97.5C 256.5,94.8333 256.5,92.1667 256.5,89.5C 257.448,82.8635 258.115,76.1969 258.5,69.5 Z"/></g>
<g><path style="opacity:1" fill="#cacaca" d="M 293.5,97.5 C 289.167,97.5 284.833,97.5 280.5,97.5C 279.45,91.3261 279.45,84.9927 280.5,78.5C 284.182,78.3347 287.848,78.5014 291.5,79C 292,79.5 292.5,80 293,80.5C 293.499,86.1569 293.666,91.8236 293.5,97.5 Z"/></g>
<g><path style="opacity:1" fill="#cfcece" d="M 313.5,75.5 C 313.5,76.5 313.5,77.5 313.5,78.5C 325.5,78.5 337.5,78.5 349.5,78.5C 349.439,80.5922 348.439,82.0922 346.5,83C 342.833,83.3333 339.167,83.6667 335.5,84C 334.748,84.6708 334.414,85.5041 334.5,86.5C 333.518,89.9619 333.185,93.6286 333.5,97.5C 321.167,97.5 308.833,97.5 296.5,97.5C 295.672,91.3466 295.172,85.0133 295,78.5C 294.5,78 294,77.5 293.5,77C 289.312,76.8238 285.312,76.3238 281.5,75.5C 293.419,74.7761 304.086,74.7761 313.5,75.5 Z"/></g>
<g><path style="opacity:1" fill="#c8c8c8" d="M 356.5,97.5 C 349.833,97.5 343.167,97.5 336.5,97.5C 336.5,94.1667 336.5,90.8333 336.5,87.5C 336.611,86.8826 336.944,86.3826 337.5,86C 341.167,85.6667 344.833,85.3333 348.5,85C 350.919,83.4912 351.919,81.3245 351.5,78.5C 353.833,78.5 356.167,78.5 358.5,78.5C 359.123,85.2547 358.456,91.588 356.5,97.5 Z"/></g>
<g><path style="opacity:1" fill="#cdcdcd" d="M 630.5,97.5 C 620.5,97.5 610.5,97.5 600.5,97.5C 599.833,97.5 599.5,97.1667 599.5,96.5C 598.899,90.6379 597.899,84.9712 596.5,79.5C 596.5,78.5 596.5,77.5 596.5,76.5C 607.572,76.9074 618.572,77.9074 629.5,79.5C 630.5,84.83 631.5,90.1633 632.5,95.5C 632.253,96.7133 631.586,97.38 630.5,97.5 Z"/></g>
<g><path style="opacity:1" fill="#cccccc" d="M 790.5,97.5 C 780.5,97.5 770.5,97.5 760.5,97.5C 757.595,89.4346 755.261,81.1012 753.5,72.5C 764.133,71.4038 774.8,71.2372 785.5,72C 787.834,79.6681 790.168,87.3348 792.5,95C 792.316,96.3756 791.649,97.2089 790.5,97.5 Z"/></g>
<g><path style="opacity:1" fill="#3a3a3a" d="M 596.5,79.5 C 597.899,84.9712 598.899,90.6379 599.5,96.5C 598.778,96.0825 598.278,95.4158 598,94.5C 597.088,89.5364 596.588,84.5364 596.5,79.5 Z"/></g>
<g><path style="opacity:1" fill="#4e4d4d" d="M 255.5,83.5 C 255.205,85.7354 255.539,87.7354 256.5,89.5C 256.5,92.1667 256.5,94.8333 256.5,97.5C 255.686,95.369 255.186,93.0356 255,90.5C 254.814,93.0356 254.314,95.369 253.5,97.5C 253.229,92.5662 253.896,87.8996 255.5,83.5 Z"/></g>
<g><path style="opacity:1" fill="#959494" d="M 235.5,82.5 C 235.587,87.5365 235.254,92.5365 234.5,97.5C 233.848,96.5514 233.514,95.3847 233.5,94C 233.892,89.9778 234.558,86.1445 235.5,82.5 Z"/></g>
<g><path style="opacity:1" fill="#c8c8c8" d="M 493.5,69.5 C 494.481,78.997 494.481,88.3304 493.5,97.5C 484.833,97.5 476.167,97.5 467.5,97.5C 467.78,94.2735 469.113,91.6068 471.5,89.5C 472.48,86.9135 472.813,84.2469 472.5,81.5C 473.1,84.6247 474.267,84.958 476,82.5C 481.27,82.9076 486.77,83.2409 492.5,83.5C 492.5,79.1667 492.5,74.8333 492.5,70.5C 485.776,70.2441 479.109,70.5774 472.5,71.5C 472.611,70.8826 472.944,70.3826 473.5,70C 480.158,69.5004 486.825,69.3337 493.5,69.5 Z"/></g>
<g><path style="opacity:1" fill="#101010" d="M 400.5,97.5 C 400.617,99.4835 399.95,101.15 398.5,102.5C 395.839,101.668 393.172,100.834 390.5,100C 389.139,98.4157 388.472,96.5824 388.5,94.5C 391.976,93.3567 395.642,93.1901 399.5,94C 400.337,95.0113 400.67,96.1779 400.5,97.5 Z"/></g>
<g><path style="opacity:1" fill="#29282a" d="M 388.5,94.5 C 388.472,96.5824 389.139,98.4157 390.5,100C 393.172,100.834 395.839,101.668 398.5,102.5C 399.95,101.15 400.617,99.4835 400.5,97.5C 410.833,97.5 421.167,97.5 431.5,97.5C 431.231,106.924 430.231,116.257 428.5,125.5C 410.488,125.833 392.488,125.5 374.5,124.5C 372.48,122.401 372.146,120.067 373.5,117.5C 382.893,115.096 382.56,114.096 372.5,114.5C 371.78,108.862 371.447,103.196 371.5,97.5C 376.214,97.8266 380.88,97.4933 385.5,96.5C 386.005,95.0815 387.005,94.4148 388.5,94.5 Z"/></g>
<g><path style="opacity:1" fill="#282729" d="M 492.5,61.5 C 493.473,63.9479 493.806,66.6146 493.5,69.5C 486.825,69.3337 480.158,69.5004 473.5,70C 472.944,70.3826 472.611,70.8826 472.5,71.5C 471.218,74.7307 471.218,78.0641 472.5,81.5C 472.813,84.2469 472.48,86.9135 471.5,89.5C 469.113,91.6068 467.78,94.2735 467.5,97.5C 476.167,97.5 484.833,97.5 493.5,97.5C 493.277,104.059 491.944,110.392 489.5,116.5C 479.519,117.252 469.519,117.252 459.5,116.5C 459.676,109.867 461.01,103.534 463.5,97.5C 465.8,94.6298 467.634,91.2965 469,87.5C 469.333,81.5 469.667,75.5 470,69.5C 470.5,69 471,68.5 471.5,68C 478.679,67.8285 485.679,67.3285 492.5,66.5C 492.5,64.8333 492.5,63.1667 492.5,61.5 Z"/></g>
<g><path style="opacity:1" fill="#282729" d="M 539.5,97.5 C 539.424,100.973 538.758,104.306 537.5,107.5C 526.916,106.659 526.25,107.992 535.5,111.5C 534.167,115.167 532.833,118.833 531.5,122.5C 530.5,123.333 529.5,124.167 528.5,125C 520.167,125.667 511.833,125.667 503.5,125C 503,115.488 504.666,106.322 508.5,97.5C 512.167,97.5 515.833,97.5 519.5,97.5C 519.833,93.5 520.167,93.5 520.5,97.5C 526.833,97.5 533.167,97.5 539.5,97.5 Z"/></g>
<g><path style="opacity:1" fill="#282729" d="M 584.5,97.5 C 583.752,102.33 582.419,106.997 580.5,111.5C 568.969,111.336 568.302,112.503 578.5,115C 576.893,118.896 574.559,122.229 571.5,125C 562.833,125.667 554.167,125.667 545.5,125C 544.446,123.612 544.28,122.112 545,120.5C 547.499,112.488 550.666,104.821 554.5,97.5C 559.833,97.5 565.167,97.5 570.5,97.5C 570.833,93.5 571.167,93.5 571.5,97.5C 575.833,97.5 580.167,97.5 584.5,97.5 Z"/></g>
<g><path style="opacity:1" fill="#282729" d="M 760.5,97.5 C 770.5,97.5 780.5,97.5 790.5,97.5C 783.471,106.037 775.804,114.204 767.5,122C 765.5,123 763.5,124 761.5,125C 753.507,125.5 745.507,125.666 737.5,125.5C 737.491,123.692 737.991,122.025 739,120.5C 741.018,118.65 742.851,116.65 744.5,114.5C 750.45,113.339 756.45,112.505 762.5,112C 758.434,111.021 754.434,109.854 750.5,108.5C 753.174,104.163 756.507,100.496 760.5,97.5 Z"/></g>
<g><path style="opacity:1" fill="#272628" d="M 39.5,94.5 C 39.3398,96.1992 39.5065,97.8659 40,99.5C 43.1667,102.667 46.3333,105.833 49.5,109C 46.4245,109.346 43.4245,110.012 40.5,111C 44.6893,112.109 49.0226,112.942 53.5,113.5C 56.1504,116.651 58.9838,119.651 62,122.5C 62.4828,123.448 62.6495,124.448 62.5,125.5C 53.4938,125.666 44.4938,125.5 35.5,125C 24.8829,115.542 15.2162,106.042 6.5,96.5C 7.26253,97.2679 8.26253,97.7679 9.5,98C 19.1891,98.6933 28.8558,98.5267 38.5,97.5C 38.2627,96.209 38.596,95.209 39.5,94.5 Z"/></g>
<g><path style="opacity:1" fill="#272628" d="M 87.5,97.5 C 97.4505,98.7573 107.451,98.7573 117.5,97.5C 123.138,104.734 128.805,112.068 134.5,119.5C 129.99,121.053 125.324,121.886 120.5,122C 125.813,123.092 131.147,124.092 136.5,125C 132,125.167 127.5,125.333 123,125.5C 117.725,125.616 112.558,125.116 107.5,124C 101,116.167 94.5,108.333 88,100.5C 87.5172,99.552 87.3505,98.552 87.5,97.5 Z"/></g>
<g><path style="opacity:1" fill="#272628" d="M 164.5,95.5 C 164.34,97.1992 164.506,98.8659 165,100.5C 170.931,108.248 175.764,116.581 179.5,125.5C 169.727,125.948 160.061,125.448 150.5,124C 143.774,115.354 137.441,106.521 131.5,97.5C 135.833,97.5 140.167,97.5 144.5,97.5C 143.993,92.8791 144.826,88.5458 147,84.5C 146.923,88.8049 146.756,93.1382 146.5,97.5C 151.14,98.3973 155.806,98.5639 160.5,98C 162.133,97.5204 163.466,96.6871 164.5,95.5 Z"/></g>
<g><path style="opacity:1" fill="#282729" d="M 208.5,97.5 C 213.574,105.31 217.907,113.643 221.5,122.5C 221.392,123.442 221.059,124.275 220.5,125C 216.333,125.167 212.167,125.333 208,125.5C 203.056,125.612 198.223,125.112 193.5,124C 187.043,115.912 182.043,107.079 178.5,97.5C 182.167,97.5 185.833,97.5 189.5,97.5C 189.736,94.2148 190.736,91.2148 192.5,88.5C 192.742,91.319 192.742,94.319 192.5,97.5C 197.833,97.5 203.167,97.5 208.5,97.5 Z"/></g>
<g><path style="opacity:1" fill="#272628" d="M 256.5,97.5 C 259.5,97.5 262.5,97.5 265.5,97.5C 269.593,105.429 272.926,113.762 275.5,122.5C 275.392,123.442 275.059,124.275 274.5,125C 265.5,125.667 256.5,125.667 247.5,125C 243.21,121.193 243.877,118.527 249.5,117C 246.905,116.774 244.405,116.274 242,115.5C 238.925,109.771 236.758,103.771 235.5,97.5C 241.5,97.5 247.5,97.5 253.5,97.5C 254.314,95.369 254.814,93.0356 255,90.5C 255.186,93.0356 255.686,95.369 256.5,97.5 Z"/></g>
<g><path style="opacity:1" fill="#29282a" d="M 334.5,86.5 C 334.334,90.8461 334.501,95.1794 335,99.5C 335.176,95.3123 335.676,91.3123 336.5,87.5C 336.5,90.8333 336.5,94.1667 336.5,97.5C 343.167,97.5 349.833,97.5 356.5,97.5C 358.134,101.27 359.134,105.27 359.5,109.5C 342.491,111.141 342.825,112.474 360.5,113.5C 360.665,116.85 360.498,120.183 360,123.5C 359.5,124 359,124.5 358.5,125C 336.167,125.667 313.833,125.667 291.5,125C 290.584,124.626 289.75,124.126 289,123.5C 284.928,115.203 282.095,106.537 280.5,97.5C 284.833,97.5 289.167,97.5 293.5,97.5C 294.56,103.346 296.226,109.012 298.5,114.5C 298.833,114 299.167,113.5 299.5,113C 297.971,107.92 296.971,102.753 296.5,97.5C 308.833,97.5 321.167,97.5 333.5,97.5C 333.185,93.6286 333.518,89.9619 334.5,86.5 Z"/></g>
<g><path style="opacity:1" fill="#29282a" d="M 434.5,97.5 C 438.833,97.5 443.167,97.5 447.5,97.5C 448.006,105.817 447.506,114.151 446,122.5C 445.167,123.333 444.333,124.167 443.5,125C 439.514,125.499 435.514,125.666 431.5,125.5C 432.141,116.115 433.141,106.782 434.5,97.5 Z"/></g>
<g><path style="opacity:1" fill="#282729" d="M 600.5,97.5 C 610.5,97.5 620.5,97.5 630.5,97.5C 630.657,98.8734 630.49,100.207 630,101.5C 625.751,109 621.251,116.334 616.5,123.5C 615.5,124 614.5,124.5 613.5,125C 605.167,125.667 596.833,125.667 588.5,125C 587.941,124.275 587.608,123.442 587.5,122.5C 591.078,113.673 595.412,105.34 600.5,97.5 Z"/></g>
<g><path style="opacity:1" fill="#292829" d="M 646.5,97.5 C 656.5,97.5 666.5,97.5 676.5,97.5C 676.649,98.552 676.483,99.552 676,100.5C 672.753,104.659 669.753,108.992 667,113.5C 663.831,117.7 660.331,121.533 656.5,125C 647.833,125.667 639.167,125.667 630.5,125C 630.043,124.586 629.709,124.086 629.5,123.5C 631.3,119.871 633.3,116.371 635.5,113C 633.477,109.817 632.977,106.317 634,102.5C 636.003,105.5 636.836,108.833 636.5,112.5C 642.176,112.666 647.843,112.499 653.5,112C 648.429,111.076 643.429,109.909 638.5,108.5C 640.454,104.234 643.121,100.567 646.5,97.5 Z"/></g>
<g><path style="opacity:1" fill="#29282a" d="M 459.5,118.5 C 469.5,118.833 479.5,119.167 489.5,119.5C 489.548,122.292 488.215,124.125 485.5,125C 477.167,125.667 468.833,125.667 460.5,125C 459.577,122.959 459.244,120.792 459.5,118.5 Z"/></g>
</svg>
